<svg id="a5a2977f-f054-4d41-87a9-ed32cf70a76e" data-name="Capa 1" xmlns="http://www.w3.org/2000/svg" viewBox="0 0 800 800"><defs><style>.b9464a12-c6a5-4e9f-844a-e3467a102593{fill:#3c3c3b;}.beba1baa-f55d-4b2c-8ada-ddf6b3ddcd2b{fill:#fff;}.eb2f7c50-cadf-4401-9dec-e1c3ab9c0a1d{fill:#ffec36;}</style></defs><polygon class="b9464a12-c6a5-4e9f-844a-e3467a102593" points="483.66 658.72 355.95 660.02 350.08 595.52 325.98 585.74 321.32 546 505.72 546 508.42 585.74 484.96 593.56 483.66 658.72"/><g id="e93ae884-be5c-4d09-80ed-ec76d6087f61" data-name="4"><path class="beba1baa-f55d-4b2c-8ada-ddf6b3ddcd2b" d="M222.49,347.19H203.73a13,13,0,0,1,0-26.09h18.76a13,13,0,0,1,0,26.09Z"/><path class="beba1baa-f55d-4b2c-8ada-ddf6b3ddcd2b" d="M407.89,226.36A124.12,124.12,0,0,0,357,241.62a9.78,9.78,0,1,0,9.5,17.1,104.58,104.58,0,0,1,42.9-12.85,9.78,9.78,0,1,0-1.53-19.51Z"/><path class="beba1baa-f55d-4b2c-8ada-ddf6b3ddcd2b" d="M540.23,344.47c0-49-29.72-92.18-75.71-110a9.79,9.79,0,0,0-7.07,18.25c38.39,14.88,63.21,50.9,63.21,91.76a9.79,9.79,0,0,0,19.57,0Z"/><path class="beba1baa-f55d-4b2c-8ada-ddf6b3ddcd2b" d="M450.52,684.76H379.86a9.79,9.79,0,1,0,0,19.57h70.66a9.79,9.79,0,1,0,0-19.57Z"/><path class="beba1baa-f55d-4b2c-8ada-ddf6b3ddcd2b" d="M416.82,172.61a13,13,0,0,0,13-13.05V147.15a13,13,0,1,0-26.09,0v12.41A13,13,0,0,0,416.82,172.61Z"/><path class="beba1baa-f55d-4b2c-8ada-ddf6b3ddcd2b" d="M629.91,327.62H611a13,13,0,1,0,0,26.09h18.94a13,13,0,0,0,0-26.09Z"/><path class="eb2f7c50-cadf-4401-9dec-e1c3ab9c0a1d" d="M629.91,417.05l-47.14-19.89a12.64,12.64,0,0,0-3.74-.76,170,170,0,0,0,9-54.64A165.75,165.75,0,0,0,579.78,290L629,269.32a13,13,0,0,0-10.11-24.06L569.55,266a160.27,160.27,0,0,0-22.5-32.7c.16-.15.37-.2.52-.35L585.52,195a13,13,0,1,0-18.45-18.45l-38,37.95c-.34.35-.47.8-.77,1.17A167.45,167.45,0,0,0,492,192.86a12.71,12.71,0,0,0,2.13-3.56l14.55-36.89a13,13,0,1,0-24.27-9.58l-14.55,36.9a13.08,13.08,0,0,0-.86,4.81,180.92,180.92,0,0,0-65-6.92,173.26,173.26,0,0,0-38.84,7.77,12.94,12.94,0,0,0-.84-4.86L351,146.4a13,13,0,1,0-24.32,9.46L340,190a12.9,12.9,0,0,0,2.74,4.13,170.73,170.73,0,0,0-32,20.19,12.18,12.18,0,0,0-1.32-2l-35.82-35.82A13,13,0,0,0,255.12,195L291,230.79a10.39,10.39,0,0,0,1,.65,166.76,166.76,0,0,0-25,35,12,12,0,0,0-2.28-1.55l-49.93-21.07a13,13,0,1,0-10.14,24l49.93,21.07a11.94,11.94,0,0,0,2.42.49,158.46,158.46,0,0,0-9.1,54,169.69,169.69,0,0,0,8.35,50.51,11.53,11.53,0,0,0-1.42.29L207.54,414a13,13,0,1,0,10.1,24.06l47.18-19.8a11.44,11.44,0,0,0,1-.67A169.74,169.74,0,0,0,290,453.55l-34.92,34.92a13,13,0,0,0,18.45,18.45L308.49,472A69.3,69.3,0,0,1,333,518.1a7.54,7.54,0,0,0,.12.81l2.55,13.65h-.11a22,22,0,0,0-22,22v21.2a22,22,0,0,0,22,22H337v41.35a35.29,35.29,0,0,0,35.25,35.24h91.25a35.29,35.29,0,0,0,35.25-35.24V597.79h1.48a22,22,0,0,0,22-22v-21.2a22,22,0,0,0-22-22h-.12L502.69,519a5.66,5.66,0,0,0,.12-.81c1.54-15.15,12.82-36.34,24.62-46.28.84-.71,1.56-1.51,2.38-2.23l37.26,37.27a13,13,0,1,0,18.45-18.45L548,451a169,169,0,0,0,21.28-32,12.88,12.88,0,0,0,3.35,2.28l47.14,19.89a13,13,0,0,0,10.14-24ZM479.2,639.14a15.69,15.69,0,0,1-15.67,15.67H372.28a15.69,15.69,0,0,1-15.67-15.67V597.79H479.2Zm23.5-84.57v21.2a2.45,2.45,0,0,1-2.44,2.45H335.55a2.45,2.45,0,0,1-2.44-2.45v-21.2a2.45,2.45,0,0,1,2.44-2.45H500.26A2.45,2.45,0,0,1,502.7,554.57Zm-116-159H374.59a12.14,12.14,0,0,1-12.13-12.13v-1.83a12.13,12.13,0,0,1,24.26,0Zm18,135.24.82-116.69c11.38-2.72,13.61-2.87,25.42,0l.81,116.72a10.25,10.25,0,0,0,.36,1.75H404.34A9.39,9.39,0,0,0,404.71,530.81Zm44.38-135.24v-14a12.13,12.13,0,1,1,24.26,0v1.83a12.14,12.14,0,0,1-12.13,12.13Zm65.74,61.34c-15.5,13-29.24,38.81-31.44,58.83l-2.81,15a9.42,9.42,0,0,0,0,1.84H451a9.3,9.3,0,0,0,.37-1.89l-.81-115.53h10.7a31.74,31.74,0,0,0,31.7-31.7v-1.83a31.7,31.7,0,1,0-63.4,0v12.12c-9.22-1.91-14.07-1.8-23.23.17V381.61a31.7,31.7,0,0,0-63.4,0v1.83a31.74,31.74,0,0,0,31.7,31.7H386l-.81,115.53a9.28,9.28,0,0,0,.36,1.89H355.21a9.42,9.42,0,0,0,0-1.84l-2.82-15A88.72,88.72,0,0,0,321,456.94a150.41,150.41,0,0,1-53.65-113.71c-.73-75.77,59.95-139.94,138.13-146.1,43.89-3.5,86.59,10.88,117.33,39.29,29.43,27.21,45.64,64.62,45.64,105.34A150.27,150.27,0,0,1,514.83,456.91Z"/></g></svg>