<svg xmlns="http://www.w3.org/2000/svg" viewBox="0 0 323.84 278.05"><defs><style>.a895f807-a7f8-491a-a988-f5d38cdefe0c{fill:#006691;}.bfd387ee-59fb-4326-8bb3-96035422f9d3{fill:#e62a32;}.b62b2e51-0212-4237-bbc5-f7487f4c8eb0{fill:#3c3c3b;}</style></defs><g id="fcf3e1d2-c4a5-43bb-840b-2a823363e918" data-name="Lineas"><path class="a895f807-a7f8-491a-a988-f5d38cdefe0c" d="M253.28,135.83a9,9,0,0,0-10.78-6.78l-84.32,19.16a9,9,0,1,0,4,17.57l84.33-19.17A9,9,0,0,0,253.28,135.83ZM87.52,243.72a7.21,7.21,0,0,1-8.63-5.43L51.74,118.83a7.2,7.2,0,0,1,5.43-8.62l182.7-41.53a7.2,7.2,0,0,1,8.62,5.43l15.05,66.22,21.72-34.5-19.84-87.3a28.84,28.84,0,0,0-34.5-21.72L34.17,41.54A28.82,28.82,0,0,0,12.45,76L52.38,251.7a28.83,28.83,0,0,0,34.5,21.72l114.65-26.06a21.52,21.52,0,0,1,3.1-13.48c2-3.14,7.46-11.82,7.46-11.82l4.89-7.77ZM96,53.35,124.08,47A10.81,10.81,0,1,1,128.87,68l-28.1,6.39A10.81,10.81,0,1,1,96,53.35ZM53,59.42A14.41,14.41,0,1,1,42.16,76.67,14.41,14.41,0,0,1,53,59.42Zm259.41,98.71-24.74-15.57a3.6,3.6,0,0,0-5,1.13L239.09,213a3.6,3.6,0,0,0,1.13,5L265,233.53a3.61,3.61,0,0,0,5-1.13l43.62-69.3A3.61,3.61,0,0,0,312.43,158.13ZM95.9,199.32a9,9,0,1,0,4,17.57l126.48-28.75a9,9,0,1,0-4-17.57ZM234.52,93.91,150.2,113.08a9,9,0,0,0,4,17.57l84.32-19.17a9,9,0,1,0-4-17.57Z"/><path class="bfd387ee-59fb-4326-8bb3-96035422f9d3" d="M111.15,120.11,83,126.5a7.2,7.2,0,0,0-5.43,8.62l8,35.13a7.2,7.2,0,0,0,8.62,5.43l28.11-6.39a7.2,7.2,0,0,0,5.43-8.62l-8-35.13A7.2,7.2,0,0,0,111.15,120.11Zm222.73,3.94-24.73-15.58a3.61,3.61,0,0,0-5,1.13l-8.19,13a3.61,3.61,0,0,0,1.13,5l24.74,15.57a3.6,3.6,0,0,0,5-1.12L335,129A3.6,3.6,0,0,0,333.88,124.05Z"/><path class="b62b2e51-0212-4237-bbc5-f7487f4c8eb0" d="M236.59,221.88a3.58,3.58,0,0,0-5,1.11c-1.78,2.8-4.32,6.82-5.52,8.75a3.54,3.54,0,0,0-.49,2.4l3.42,23.15a3.6,3.6,0,0,0,4.76,2.87l21.28-7.48A3.68,3.68,0,0,0,257,251.2l5.51-8.77a3.61,3.61,0,0,0-1.12-5Z"/></g></svg>