<svg id="fc6d3fef-c4ce-4a08-b275-41d80873b02f" data-name="Capa 1" xmlns="http://www.w3.org/2000/svg" viewBox="0 0 1080 1080"><defs><style>.e85c5f48-2473-4cc9-b804-053de03a0904{fill:#00b5e2;}.b8982752-e025-49db-9a69-c78425ccc87a{fill:#3c3c3b;}.a984d20f-51c8-49eb-802e-9a538e8f4bcb{fill:#ffec36;}.e076206f-e7f7-4591-9742-91251dfcb11c{fill:#fff;}</style></defs><circle class="e85c5f48-2473-4cc9-b804-053de03a0904" cx="538.63" cy="536.51" r="529.27"/><path class="b8982752-e025-49db-9a69-c78425ccc87a" d="M470.88,435.08c13.69-36.85,62.14-45.05,87.2-14.77l147.31,178,147.32,178c25.06,30.28,7.94,76.34-30.82,82.91L594.08,897.79l-227.8,38.58c-38.76,6.56-70.09-31.29-56.39-68.14l80.49-216.58Z"/><path class="a984d20f-51c8-49eb-802e-9a538e8f4bcb" d="M836.38,789.82l-294.62-356a29.88,29.88,0,0,0-51,8.64l-161,433.15a29.88,29.88,0,0,0,33,39.86l455.61-77.15a29.87,29.87,0,0,0,18-48.5ZM361.36,883,519.52,457.49,809,807.24Z"/><circle class="e076206f-e7f7-4591-9742-91251dfcb11c" cx="541.36" cy="586.43" r="33.85" transform="translate(-90.31 98.62) rotate(-9.61)"/><circle class="e076206f-e7f7-4591-9742-91251dfcb11c" cx="568.07" cy="744.19" r="18.17" transform="translate(-243.26 277.01) rotate(-22.71)"/><polygon class="e076206f-e7f7-4591-9742-91251dfcb11c" points="507.99 592.08 551.08 750.64 586.23 743.9 574.73 580.78 507.99 592.08"/><circle class="e076206f-e7f7-4591-9742-91251dfcb11c" cx="577.64" cy="800.66" r="21.92" transform="translate(-226.38 227.71) rotate(-18.72)"/><path class="e076206f-e7f7-4591-9742-91251dfcb11c" d="M562.51,335.54a28.21,28.21,0,1,1-14.15-37.3A28.22,28.22,0,0,1,562.51,335.54Z"/><path class="e076206f-e7f7-4591-9742-91251dfcb11c" d="M631.2,114.12a232.21,232.21,0,0,0-190.62,0,17.66,17.66,0,0,0-9.36,22.37v0a17.61,17.61,0,0,0,23.69,9.81A197.18,197.18,0,0,1,724.06,267.39a17.63,17.63,0,0,0,23.06,11.22h0a17.66,17.66,0,0,0,10.53-21.84A232.23,232.23,0,0,0,631.2,114.12Z"/><path class="e076206f-e7f7-4591-9742-91251dfcb11c" d="M606.12,169.87a178.34,178.34,0,0,0-149.57,1.44,17.64,17.64,0,0,0-9,22.21l0,0a17.62,17.62,0,0,0,24,9.66,143.13,143.13,0,0,1,198.8,89.46,17.64,17.64,0,0,0,23.17,11.57l.05,0a17.64,17.64,0,0,0,10.64-21.47A178.31,178.31,0,0,0,606.12,169.87Z"/><path class="e076206f-e7f7-4591-9742-91251dfcb11c" d="M579.83,228.29a114.43,114.43,0,0,0-101.28,3.65,17.62,17.62,0,0,0-8.17,21.79h0a17.6,17.6,0,0,0,24.8,9.26A79.24,79.24,0,0,1,610,314.66a17.61,17.61,0,0,0,23.39,12.42h0a17.63,17.63,0,0,0,10.89-20.57A114.47,114.47,0,0,0,579.83,228.29Z"/></svg>