<svg xmlns="http://www.w3.org/2000/svg" viewBox="0 0 349.37 314.27"><defs><style>.bc3de19a-2e96-4cab-8672-1505a1687d28{fill:#006691;}.e76c8d75-6bbc-494b-9b13-6027a84ef801{fill:#fff;}.a400eb72-c621-417d-8134-5a30713f65e2{fill:#00b5e2;}</style></defs><g id="b522a14e-f956-40c5-833e-88606e9acb90" data-name="Lineas"><path class="bc3de19a-2e96-4cab-8672-1505a1687d28" d="M352.71,300.08l-16-47.88a10.59,10.59,0,0,1,.71-8.23,125,125,0,0,0,11.76-79.82c-8-44.47-40.52-81.41-82.75-95.58a148.94,148.94,0,0,1,8.78,84.6c-11.06,59-58.3,105.76-117.55,116.38a151.58,151.58,0,0,1-23.1,2.25,124.74,124.74,0,0,0,148.25,26.56,10.55,10.55,0,0,1,8.18-.68l48.07,16A10.76,10.76,0,0,0,352.71,300.08Z"/><path class="e76c8d75-6bbc-494b-9b13-6027a84ef801" d="M144.9,135.27a7.67,7.67,0,0,0,2.27-2,4,4,0,0,0,.84-2.43,4.55,4.55,0,0,0-.44-1.89,8.64,8.64,0,0,0-1.09-1.8,6.07,6.07,0,0,0-1.48-1.35,2.88,2.88,0,0,0-1.61-.53,7.07,7.07,0,0,0-3.83,1.47L134,130.68l-.4-.33v-7.53a10.58,10.58,0,0,0-.24-2.36,4.66,4.66,0,0,0-.83-1.8A3.9,3.9,0,0,0,131,117.5a6,6,0,0,0-2.39-.41c-1.83,0-3.1.52-3.81,1.57a7.39,7.39,0,0,0-1,4.16v7.53l-.4.33-5.66-3.93a7,7,0,0,0-3.83-1.47,3,3,0,0,0-1.59.53,6,6,0,0,0-1.5,1.35,8.64,8.64,0,0,0-1.09,1.8,4.71,4.71,0,0,0-.44,1.89,4,4,0,0,0,.84,2.43,7.55,7.55,0,0,0,2.27,2l7.09,4.34v.49l-7.25,4.51a7.39,7.39,0,0,0-2.17,1.94,4,4,0,0,0-.78,2.4,4.89,4.89,0,0,0,.4,1.88,7.26,7.26,0,0,0,1,1.8,6.24,6.24,0,0,0,1.46,1.36,3,3,0,0,0,1.65.53,6.41,6.41,0,0,0,3.67-1.4l5.9-4.09.4.33v6.71a7.71,7.71,0,0,0,1,4.37q1.06,1.53,3.81,1.53c1.91,0,3.23-.51,3.95-1.53a7.62,7.62,0,0,0,1.07-4.37v-6.71l.48-.33,5.74,4.09a7,7,0,0,0,1.87,1,5.35,5.35,0,0,0,1.8.35,3,3,0,0,0,1.65-.53,6.24,6.24,0,0,0,1.46-1.36,7.26,7.26,0,0,0,1-1.8A4.89,4.89,0,0,0,148,149a4,4,0,0,0-.78-2.4,7.39,7.39,0,0,0-2.17-1.94l-7.25-4.51v-.49Z"/><path class="e76c8d75-6bbc-494b-9b13-6027a84ef801" d="M128.6,75c-12.18,0-22.08,9.29-22.08,20.71v6.82h44.16V95.69C150.68,84.27,140.78,75,128.6,75Z"/><path class="e76c8d75-6bbc-494b-9b13-6027a84ef801" d="M253.46,149.08C269.9,61.36,194.56-14.06,106.86,2.23,56.93,11.51,16.93,52.07,8,102.06a124.92,124.92,0,0,0,11.76,79.83,10.63,10.63,0,0,1,.7,8.23L4.48,238A10.76,10.76,0,0,0,18.1,251.61l48.07-16a10.57,10.57,0,0,1,8.17.67,125.16,125.16,0,0,0,79.45,11.46C203.66,238.79,244.12,198.88,253.46,149.08ZM128.6,176.55a330.83,330.83,0,0,1-40.93-2.49,4.4,4.4,0,0,1-4-4.27v-63a4.46,4.46,0,0,1,4.6-4.31h6.85V95.69c0-17.29,15-31.35,33.44-31.35S162,78.4,162,95.69v6.82h6.85a4.45,4.45,0,0,1,4.59,4.31v63a4.39,4.39,0,0,1-3.95,4.27A330.83,330.83,0,0,1,128.6,176.55Z"/><path class="a400eb72-c621-417d-8134-5a30713f65e2" d="M173.48,169.79v-63a4.45,4.45,0,0,0-4.59-4.31H162V95.69c0-17.29-15-31.35-33.44-31.35S95.16,78.4,95.16,95.69v6.82H88.31a4.46,4.46,0,0,0-4.6,4.31v63a4.4,4.4,0,0,0,4,4.27,330.83,330.83,0,0,0,40.93,2.49,330.83,330.83,0,0,0,40.93-2.49A4.39,4.39,0,0,0,173.48,169.79Zm-28.42-25.18a7.39,7.39,0,0,1,2.17,1.94A4,4,0,0,1,148,149a4.89,4.89,0,0,1-.4,1.88,7.26,7.26,0,0,1-1,1.8,6.24,6.24,0,0,1-1.46,1.36,3,3,0,0,1-1.65.53,5.35,5.35,0,0,1-1.8-.35,7,7,0,0,1-1.87-1L134.06,149l-.48.33v6.71a7.62,7.62,0,0,1-1.07,4.37c-.72,1-2,1.53-3.95,1.53s-3.1-.51-3.81-1.53a7.71,7.71,0,0,1-1-4.37v-6.71l-.4-.33-5.9,4.09a6.41,6.41,0,0,1-3.67,1.4,3,3,0,0,1-1.65-.53,6.24,6.24,0,0,1-1.46-1.36,7.26,7.26,0,0,1-1-1.8,4.89,4.89,0,0,1-.4-1.88,4,4,0,0,1,.78-2.4,7.39,7.39,0,0,1,2.17-1.94l7.25-4.51v-.49l-7.09-4.34a7.55,7.55,0,0,1-2.27-2,4,4,0,0,1-.84-2.43,4.71,4.71,0,0,1,.44-1.89,8.64,8.64,0,0,1,1.09-1.8,6,6,0,0,1,1.5-1.35,3,3,0,0,1,1.59-.53,7,7,0,0,1,3.83,1.47l5.66,3.93.4-.33v-7.53a7.39,7.39,0,0,1,1-4.16c.71-1,2-1.57,3.81-1.57a6,6,0,0,1,2.39.41,3.9,3.9,0,0,1,1.56,1.16,4.66,4.66,0,0,1,.83,1.8,10.58,10.58,0,0,1,.24,2.36v7.53l.4.33,5.58-3.93a7.07,7.07,0,0,1,3.83-1.47,2.88,2.88,0,0,1,1.61.53,6.07,6.07,0,0,1,1.48,1.35,8.64,8.64,0,0,1,1.09,1.8,4.55,4.55,0,0,1,.44,1.89,4,4,0,0,1-.84,2.43,7.67,7.67,0,0,1-2.27,2l-7.09,4.34v.49Zm5.62-42.1H106.52V95.69c0-11.42,9.9-20.71,22.08-20.71s22.08,9.29,22.08,20.71Z"/></g></svg>