<svg id="e3fe03f0-1089-400c-996a-47e9d2001b98" data-name="Capa 1" xmlns="http://www.w3.org/2000/svg" viewBox="0 0 1080 1080"><defs><style>.e3aeaf03-0d23-4351-b346-852d7e722276{fill:#00b5e2;}.b9534b56-0607-4a14-8ccd-1ec81e7256d0{fill:#3c3c3b;}.eea4feff-2785-4ab4-a175-f0e2b98542a1{fill:#fff;}.bff5cc0a-6dd5-4fbb-a7e9-a6a1e3939ee8{fill:#ffec36;}</style></defs><circle class="e3aeaf03-0d23-4351-b346-852d7e722276" cx="538.63" cy="536.51" r="529.27"/><path class="b9534b56-0607-4a14-8ccd-1ec81e7256d0" d="M588.1,806.91A24.12,24.12,0,1,1,564,831,24.12,24.12,0,0,1,588.1,806.91Z"/><path class="b9534b56-0607-4a14-8ccd-1ec81e7256d0" d="M443.64,831a152.48,152.48,0,0,0,53.63,116.13,15.08,15.08,0,0,0,20.45-.8l0,0a15.07,15.07,0,0,0-.9-22.12,122.36,122.36,0,0,1,0-186.37,15.06,15.06,0,0,0,.9-22.11l0,0a15.08,15.08,0,0,0-20.45-.79A152.45,152.45,0,0,0,443.64,831Z"/><path class="b9534b56-0607-4a14-8ccd-1ec81e7256d0" d="M498.41,831a97.83,97.83,0,0,0,38.38,77.68,15.08,15.08,0,0,0,19.85-1.27h0a15.08,15.08,0,0,0-1.54-22.64,67.75,67.75,0,0,1,0-107.55,15.07,15.07,0,0,0,1.54-22.63h0a15.07,15.07,0,0,0-19.85-1.28A97.83,97.83,0,0,0,498.41,831Z"/><path class="b9534b56-0607-4a14-8ccd-1ec81e7256d0" d="M733.63,831A152.45,152.45,0,0,1,680,947.16a15.06,15.06,0,0,1-20.44-.8l0,0a15.07,15.07,0,0,1,.9-22.12,122.36,122.36,0,0,0,0-186.37,15.06,15.06,0,0,1-.9-22.11l0,0A15.06,15.06,0,0,1,680,714.9,152.41,152.41,0,0,1,733.63,831Z"/><path class="b9534b56-0607-4a14-8ccd-1ec81e7256d0" d="M678.87,831a97.83,97.83,0,0,1-38.38,77.68,15.08,15.08,0,0,1-19.85-1.27h0a15.08,15.08,0,0,1,1.54-22.64,67.75,67.75,0,0,0,0-107.55,15.07,15.07,0,0,1-1.54-22.63h0a15.06,15.06,0,0,1,19.85-1.27A97.8,97.8,0,0,1,678.87,831Z"/><polygon class="b9534b56-0607-4a14-8ccd-1ec81e7256d0" points="627.1 589.83 507.86 627.25 484.09 568.5 458.74 566.18 443.12 530.27 615.81 478.01 629.6 514.47 609.85 528.44 627.1 589.83"/><g id="aba5b571-1edf-4a6d-81ec-20b7b94da3d1" data-name="4"><path class="eea4feff-2785-4ab4-a175-f0e2b98542a1" d="M294.2,372.1l-17.56,5.31a12.76,12.76,0,1,1-7.4-24.43l17.57-5.32a12.77,12.77,0,0,1,7.39,24.44Z"/><path class="eea4feff-2785-4ab4-a175-f0e2b98542a1" d="M433.59,206.38a121.46,121.46,0,0,0-43.31,28.71,9.57,9.57,0,0,0,9.65,15.83,9.43,9.43,0,0,0,4.09-2.5,102.4,102.4,0,0,1,36.54-24.2,9.58,9.58,0,0,0-7-17.84Z"/><path class="eea4feff-2785-4ab4-a175-f0e2b98542a1" d="M591,279.49c-13.89-45.89-54-77.91-102.08-81.57A9.57,9.57,0,1,0,487.48,217c40.17,3.06,73.62,29.76,85.2,68A9.57,9.57,0,0,0,591,279.49Z"/><path class="eea4feff-2785-4ab4-a175-f0e2b98542a1" d="M603.44,623.61l-66.18,20A9.58,9.58,0,1,0,542.81,662l66.18-20a9.58,9.58,0,0,0-5.55-18.33Z"/><path class="eea4feff-2785-4ab4-a175-f0e2b98542a1" d="M426.72,153.52a12.77,12.77,0,0,0,8.52-15.92L431.72,126a12.77,12.77,0,0,0-24.44,7.4L410.8,145A12.78,12.78,0,0,0,426.72,153.52Z"/><path class="eea4feff-2785-4ab4-a175-f0e2b98542a1" d="M670.22,238.3l-17.74,5.36a12.77,12.77,0,1,0,7.4,24.44l17.74-5.37a12.76,12.76,0,1,0-7.4-24.43Z"/><path class="bff5cc0a-6dd5-4fbb-a7e9-a6a1e3939ee8" d="M695.57,322.05l-49.79-5.27a12.48,12.48,0,0,0-3.72.35,166.38,166.38,0,0,0-7-53.73,162,162,0,0,0-22.41-46.15l40.25-33.31a12.77,12.77,0,1,0-16.28-19.67l-40.35,33.39a156.76,156.76,0,0,0-30.34-24.25c.11-.18.29-.28.39-.47l24.78-46.3a12.76,12.76,0,1,0-22.5-12l-24.79,46.3a12.27,12.27,0,0,0-.39,1.31,163.38,163.38,0,0,0-40.52-11,12.54,12.54,0,0,0,1-3.94L507,108.56a12.76,12.76,0,1,0-25.44-2.08l-3.17,38.68a12.54,12.54,0,0,0,.56,4.75,176.79,176.79,0,0,0-62.86,12,168.29,168.29,0,0,0-34.17,18.28,12.52,12.52,0,0,0-2.17-4.31l-22.11-28.21a12.77,12.77,0,0,0-20.1,15.75l22.12,28.21a12.49,12.49,0,0,0,3.73,3.1,167.43,167.43,0,0,0-24.24,28,11.5,11.5,0,0,0-1.78-1.47l-43.71-23.4a12.77,12.77,0,0,0-12.05,22.51l43.71,23.39a10.68,10.68,0,0,0,1.1.33,163.24,163.24,0,0,0-13.53,39.88,12.4,12.4,0,0,0-2.57-.81l-52.74-5.58a12.77,12.77,0,1,0-2.68,25.39l52.74,5.58a12,12,0,0,0,2.4-.22,154.92,154.92,0,0,0,6.78,53.15A166.06,166.06,0,0,0,339,406.33c-.4.27-.87.36-1.25.67l-38.58,31.92a12.77,12.77,0,1,0,16.29,19.67L354,426.67a10.87,10.87,0,0,0,.74-.91,165.8,165.8,0,0,0,32.87,26.8l-22.8,42.6a12.77,12.77,0,0,0,22.51,12l22.81-42.61a67.78,67.78,0,0,1,36,36.24c.11.24.22.49.34.73l6.27,12.05-.11,0a21.57,21.57,0,0,0-14.38,26.86l6,19.86a21.57,21.57,0,0,0,26.86,14.37l1.39-.42,11.72,38.73a34.53,34.53,0,0,0,43,23l85.45-25.87a34.52,34.52,0,0,0,23-43L624,528.48l1.38-.42a21.56,21.56,0,0,0,14.38-26.86l-6-19.85A21.56,21.56,0,0,0,606.89,467l-.12,0-1.45-13.44c0-.27-.07-.54-.12-.8-2.85-14.62,1.7-37.66,9.94-50.32.58-.9,1-1.85,1.59-2.76L662.19,424a12.76,12.76,0,1,0,12-22.5L628.47,377a165.73,165.73,0,0,0,10.85-36,12.74,12.74,0,0,0,3.78,1.19l49.79,5.27a12.77,12.77,0,1,0,2.68-25.39Zm-78.19,250.7a15.37,15.37,0,0,1-10.24,19.13l-85.46,25.86a15.35,15.35,0,0,1-19.12-10.24l-11.72-38.72L605.66,534Zm-2-85.86,6,19.86a2.4,2.4,0,0,1-1.6,3L465.57,556.42a2.4,2.4,0,0,1-3-1.6l-6-19.86a2.39,2.39,0,0,1,1.6-3L612.43,485.3A2.39,2.39,0,0,1,615.42,486.89Zm-153.69-116-11.36,3.43a11.87,11.87,0,0,1-14.8-7.92l-.52-1.71a11.87,11.87,0,0,1,22.72-6.88ZM516.9,492.42,484.6,382.9c9.88-5.77,11.94-6.54,23.79-7.24l33.85,109.09a8.74,8.74,0,0,0,.84,1.53l-26,7.87A9.21,9.21,0,0,0,516.9,492.42Zm3.24-139.24-4-13.07a11.87,11.87,0,0,1,22.72-6.88l.52,1.71a11.88,11.88,0,0,1-7.92,14.8Zm79,38.81c-10.83,16.62-16.4,44.64-12.78,64l1.61,14.83a9.22,9.22,0,0,0,.55,1.71l-27.76,8.4a9.13,9.13,0,0,0-.19-1.87L527,371.1l10-3a31.06,31.06,0,0,0,20.71-38.68l-.52-1.71a31,31,0,0,0-59.38,18L501.29,357c-9.18.83-13.69,2.3-21.71,6.75l-3.48-11.51a31,31,0,1,0-59.38,18l.52,1.71a31.05,31.05,0,0,0,38.68,20.7l10.63-3.22,32,108.43a8.23,8.23,0,0,0,.88,1.66L471,508.08a9.37,9.37,0,0,0-.49-1.72l-6.9-13.27A86.89,86.89,0,0,0,417.58,447a147.16,147.16,0,0,1-82.47-91.28c-22.16-70.76,16.48-148.06,87.95-176,40.12-15.72,84.18-14.36,121,3.53,35.28,17.14,61.06,47.59,72.6,85.72A147,147,0,0,1,599.1,392Z"/></g></svg>