<svg xmlns="http://www.w3.org/2000/svg" viewBox="0 0 2400 1800"><defs><style>.a0801d94-0402-416c-8131-6939d3de62cd,.a441a902-2625-4d4b-88a6-745a667d9665,.a8d3ffbd-163b-4132-9e62-8c38da7a1644,.aac3626f-8f6a-4abb-ba05-29cfdc08d539,.ade9b21c-ed85-40d0-992f-eb21dbaabe2b,.b140d069-5902-4363-9ffe-a18172660e8e,.e0097664-818b-44f2-9b67-225494f411fe,.f37830ad-54e8-4d6e-bc8d-2342d3d7894c,.f62abba1-169a-4157-ae2b-39122b153093,.f87b6e82-3dfd-46b3-8484-c366f13741e5{fill:none;}.a0801d94-0402-416c-8131-6939d3de62cd,.a441a902-2625-4d4b-88a6-745a667d9665,.a8d3ffbd-163b-4132-9e62-8c38da7a1644,.aac3626f-8f6a-4abb-ba05-29cfdc08d539,.ade9b21c-ed85-40d0-992f-eb21dbaabe2b,.b140d069-5902-4363-9ffe-a18172660e8e,.e0097664-818b-44f2-9b67-225494f411fe,.f37830ad-54e8-4d6e-bc8d-2342d3d7894c,.f62abba1-169a-4157-ae2b-39122b153093{stroke:#3c3c3b;stroke-linecap:round;stroke-linejoin:round;stroke-width:16px;}.a0801d94-0402-416c-8131-6939d3de62cd{stroke-dasharray:0.98 31.26;}.f37830ad-54e8-4d6e-bc8d-2342d3d7894c{stroke-dasharray:1.05 33.49;}.a8d3ffbd-163b-4132-9e62-8c38da7a1644{stroke-dasharray:0.97 31.14;}.e0097664-818b-44f2-9b67-225494f411fe{stroke-dasharray:0.98 31.29;}.aac3626f-8f6a-4abb-ba05-29cfdc08d539{stroke-dasharray:1.01 32.24;}.f62abba1-169a-4157-ae2b-39122b153093{stroke-dasharray:0.98 31.31;}.a441a902-2625-4d4b-88a6-745a667d9665{stroke-dasharray:0.83 26.72;}.b140d069-5902-4363-9ffe-a18172660e8e{stroke-dasharray:1 32;}.a538f0a0-9249-45ef-ad58-3b5161cc787e{fill:#006691;}.fbde0648-59d5-434d-9741-7b68c5f9757d{fill:#00b5e2;}.ea6883d5-9d5a-4975-a533-1e2574086a55{fill:#fff;}.ba5e1fc5-1db9-428a-a00a-f5b2cbb3734b{fill:#3c3c3b;}.eeb9c13b-c2de-44be-8f8e-b25c32490fff{fill:#ffec36;}.ba737adf-134d-42be-bd55-9745621a3348{font-size:32px;font-family:Poppins-Regular, Poppins;}.a3c7910d-4f61-4bbb-b611-b90e0c5d9f4a{font-family:Wingdings3, "Wingdings 3";}.e2940fba-7627-491f-b4e9-56960649aa1c{fill:#e62a32;}.b49a9bf0-505f-40e0-b571-46003b04d874{fill:#fceaea;}.ee0619ad-3b4c-4609-b6ba-c7e017647970{fill:#2a343f;}</style></defs><g id="bfda9c02-aa11-4562-a46a-cb5f2cbedc9a" data-name="Lineas"><line class="ade9b21c-ed85-40d0-992f-eb21dbaabe2b" x1="1218.45" y1="397.12" x2="1218.95" y2="397.12"/><line class="a0801d94-0402-416c-8131-6939d3de62cd" x1="1250.21" y1="397.12" x2="1653.61" y2="397.12"/><line class="ade9b21c-ed85-40d0-992f-eb21dbaabe2b" x1="1669.24" y1="397.12" x2="1669.74" y2="397.12"/><line class="ade9b21c-ed85-40d0-992f-eb21dbaabe2b" x1="618.09" y1="943.03" x2="618.59" y2="943.03"/><line class="f37830ad-54e8-4d6e-bc8d-2342d3d7894c" x1="652.07" y1="943.03" x2="877.06" y2="943.03"/><polyline class="ade9b21c-ed85-40d0-992f-eb21dbaabe2b" points="893.8 943.03 894.3 943.03 894.3 942.53"/><line class="a8d3ffbd-163b-4132-9e62-8c38da7a1644" x1="894.3" y1="911.4" x2="894.3" y2="413.18"/><polyline class="ade9b21c-ed85-40d0-992f-eb21dbaabe2b" points="894.3 397.62 894.3 397.12 894.8 397.12"/><line class="e0097664-818b-44f2-9b67-225494f411fe" x1="926.09" y1="397.12" x2="974.99" y2="397.12"/><line class="ade9b21c-ed85-40d0-992f-eb21dbaabe2b" x1="990.63" y1="397.12" x2="991.13" y2="397.12"/><line class="ade9b21c-ed85-40d0-992f-eb21dbaabe2b" x1="1237.47" y1="1594.92" x2="1237.97" y2="1594.92"/><line class="aac3626f-8f6a-4abb-ba05-29cfdc08d539" x1="1270.22" y1="1594.92" x2="1653.12" y2="1594.92"/><line class="ade9b21c-ed85-40d0-992f-eb21dbaabe2b" x1="1669.24" y1="1594.92" x2="1669.74" y2="1594.92"/><line class="ade9b21c-ed85-40d0-992f-eb21dbaabe2b" x1="618.09" y1="1046" x2="618.59" y2="1046"/><line class="f37830ad-54e8-4d6e-bc8d-2342d3d7894c" x1="652.07" y1="1046" x2="877.06" y2="1046"/><polyline class="ade9b21c-ed85-40d0-992f-eb21dbaabe2b" points="893.8 1046 894.3 1046 894.3 1046.5"/><line class="f62abba1-169a-4157-ae2b-39122b153093" x1="894.3" y1="1077.81" x2="894.3" y2="1578.77"/><polyline class="ade9b21c-ed85-40d0-992f-eb21dbaabe2b" points="894.3 1594.42 894.3 1594.92 894.8 1594.92"/><line class="a441a902-2625-4d4b-88a6-745a667d9665" x1="921.51" y1="1594.92" x2="963.26" y2="1594.92"/><line class="ade9b21c-ed85-40d0-992f-eb21dbaabe2b" x1="976.62" y1="1594.92" x2="977.12" y2="1594.92"/><line class="b140d069-5902-4363-9ffe-a18172660e8e" x1="1265.49" y1="994.63" x2="1701.38" y2="994.63"/><line class="b140d069-5902-4363-9ffe-a18172660e8e" x1="618.09" y1="994.63" x2="968.1" y2="994.63"/></g><g id="ab7c1d41-efc7-4dd1-be83-e50514173472" data-name="Capa 3"><path class="a538f0a0-9249-45ef-ad58-3b5161cc787e" d="M1782.14,1328.87l-102.5-.06a11.67,11.67,0,0,0-11.67,11.68l-.09,148.64a11.66,11.66,0,0,0,11.66,11.68l102.5.06a11.69,11.69,0,0,0,11.68-11.67l.08-148.64A11.68,11.68,0,0,0,1782.14,1328.87Zm-51.34,167.6a6.94,6.94,0,1,1,6.94-6.93A6.92,6.92,0,0,1,1730.8,1496.47Zm47.38-19.92-94.73-.06a3.75,3.75,0,0,1-3.75-3.75l.08-126.15a3.74,3.74,0,0,1,3.74-3.74l94.73.06a3.74,3.74,0,0,1,3.75,3.74l-.08,126.15A3.75,3.75,0,0,1,1778.18,1476.55Z"/><path class="fbde0648-59d5-434d-9741-7b68c5f9757d" d="M1855.24,1638.51h247.89c3.39,0,5.58-3.16,5.58-6.55V1460.9a5.31,5.31,0,0,0-5.59-5.68H1855.24c-3.39,0-6.19,2.29-6.19,5.68V1632A6.55,6.55,0,0,0,1855.24,1638.51Zm6.22-163.19c0-3.73,4.6-6.9,8.11-6.9h220.15c3.51,0,4.32,3.17,4.32,6.9V1617.4c0,3.72-.81,5.23-4.32,5.23H1869.57c-3.51,0-8.11-1.51-8.11-5.23Z"/><path class="fbde0648-59d5-434d-9741-7b68c5f9757d" d="M2123.11,1644.12H1833.65a7.59,7.59,0,0,0,0,15.17h289.46a7.59,7.59,0,1,0,0-15.17Z"/><path class="a538f0a0-9249-45ef-ad58-3b5161cc787e" d="M1872.49,676.07,1770,676a11.66,11.66,0,0,0-11.67,11.67l-.08,148.65A11.66,11.66,0,0,0,1769.88,848l102.51.06a11.68,11.68,0,0,0,11.67-11.67l.09-148.64A11.67,11.67,0,0,0,1872.49,676.07Zm-51.35,167.59a6.94,6.94,0,1,1,6.94-6.92A6.93,6.93,0,0,1,1821.14,843.66Zm47.38-19.92-94.73,0a3.75,3.75,0,0,1-3.74-3.75l.07-126.15a3.74,3.74,0,0,1,3.75-3.74l94.73.05a3.75,3.75,0,0,1,3.74,3.75L1872.26,820A3.73,3.73,0,0,1,1868.52,823.74Z"/><path class="fbde0648-59d5-434d-9741-7b68c5f9757d" d="M1730.36,793.89h-56.07a9.71,9.71,0,0,0-9.7,9.72V917.45a9.7,9.7,0,0,0,9.7,9.7h56.07a9.71,9.71,0,0,0,9.7-9.7V803.61A9.72,9.72,0,0,0,1730.36,793.89ZM1724,800a2.48,2.48,0,1,1-2.49,2.48A2.48,2.48,0,0,1,1724,800ZM1712.28,916.8h-19.92a1.88,1.88,0,0,1-1.88-1.87v-3.54a1.88,1.88,0,0,1,1.88-1.87h19.92a1.88,1.88,0,0,1,1.88,1.87v3.54A1.88,1.88,0,0,1,1712.28,916.8Zm18.63-14.94h-57.17a1.88,1.88,0,0,1-1.88-1.87V812.15a1.87,1.87,0,0,1,1.88-1.87h57.17a1.87,1.87,0,0,1,1.88,1.87V900A1.88,1.88,0,0,1,1730.91,901.86Z"/><path class="ea6883d5-9d5a-4975-a533-1e2574086a55" d="M1690.74,800.91a1.42,1.42,0,0,0-1.41,1.42h0a1.42,1.42,0,0,0,1.41,1.42h23.17a1.42,1.42,0,0,0,1.41-1.42h0a1.42,1.42,0,0,0-1.41-1.42"/><path class="ea6883d5-9d5a-4975-a533-1e2574086a55" d="M1724,804.93a2.48,2.48,0,1,0-2.49-2.48A2.48,2.48,0,0,0,1724,804.93Z"/><path class="a538f0a0-9249-45ef-ad58-3b5161cc787e" d="M1886.35,1298h-56.07a9.7,9.7,0,0,0-9.7,9.71v113.84a9.7,9.7,0,0,0,9.7,9.7h56.07a9.71,9.71,0,0,0,9.7-9.7V1307.75A9.72,9.72,0,0,0,1886.35,1298Zm-6.4,6.08a2.48,2.48,0,1,1-2.49,2.48A2.47,2.47,0,0,1,1880,1304.12ZM1868.27,1421h-19.92a1.88,1.88,0,0,1-1.88-1.88v-3.54a1.88,1.88,0,0,1,1.88-1.87h19.92a1.88,1.88,0,0,1,1.88,1.87v3.54A1.88,1.88,0,0,1,1868.27,1421Zm18.63-15h-57.17a1.86,1.86,0,0,1-1.87-1.87v-87.84a1.87,1.87,0,0,1,1.87-1.87h57.17a1.88,1.88,0,0,1,1.88,1.87v87.84A1.87,1.87,0,0,1,1886.9,1406Z"/><path class="ea6883d5-9d5a-4975-a533-1e2574086a55" d="M1846.73,1305.06a1.41,1.41,0,0,0-1.41,1.41h0a1.41,1.41,0,0,0,1.41,1.42h23.17a1.41,1.41,0,0,0,1.41-1.41h0a1.41,1.41,0,0,0-1.41-1.42"/><path class="ea6883d5-9d5a-4975-a533-1e2574086a55" d="M1880,1309.08a2.48,2.48,0,1,0-2.49-2.48A2.48,2.48,0,0,0,1880,1309.08Z"/><path class="a538f0a0-9249-45ef-ad58-3b5161cc787e" d="M1786.05,113l-102.5-.06a11.66,11.66,0,0,0-11.67,11.68l-.09,148.64A11.67,11.67,0,0,0,1683.45,285L1786,285a11.69,11.69,0,0,0,11.68-11.67l.08-148.64A11.67,11.67,0,0,0,1786.05,113Zm-51.34,167.6a6.94,6.94,0,1,1,6.94-6.93A6.93,6.93,0,0,1,1734.71,280.62Zm47.37-19.93-94.72-.05a3.75,3.75,0,0,1-3.75-3.75l.08-126.15a3.74,3.74,0,0,1,3.74-3.74l94.73,0a3.75,3.75,0,0,1,3.75,3.75L1785.83,257A3.74,3.74,0,0,1,1782.08,260.69Z"/><path class="fbde0648-59d5-434d-9741-7b68c5f9757d" d="M1855.24,422.66h247.89c3.39,0,5.58-3.16,5.58-6.55V245.05a5.31,5.31,0,0,0-5.59-5.68H1855.24c-3.39,0-6.19,2.28-6.19,5.68V416.11A6.55,6.55,0,0,0,1855.24,422.66Zm6.22-163.2c0-3.72,4.6-6.89,8.11-6.89h220.15c3.51,0,4.32,3.17,4.32,6.89V401.54c0,3.73-.81,5.24-4.32,5.24H1869.57c-3.51,0-8.11-1.51-8.11-5.24Z"/><path class="fbde0648-59d5-434d-9741-7b68c5f9757d" d="M2123.11,428.27H1833.65a7.59,7.59,0,0,0,0,15.17h289.46a7.59,7.59,0,1,0,0-15.17Z"/><path class="a538f0a0-9249-45ef-ad58-3b5161cc787e" d="M1890.26,82.19h-56.07a9.69,9.69,0,0,0-9.7,9.71V205.74a9.7,9.7,0,0,0,9.7,9.7h56.07a9.71,9.71,0,0,0,9.7-9.7V91.9A9.71,9.71,0,0,0,1890.26,82.19Zm-6.4,6.07a2.49,2.49,0,1,1-2.49,2.48A2.48,2.48,0,0,1,1883.86,88.26Zm-11.68,116.83h-19.93a1.87,1.87,0,0,1-1.87-1.87v-3.54a1.87,1.87,0,0,1,1.87-1.87h19.93a1.88,1.88,0,0,1,1.88,1.87v3.54A1.87,1.87,0,0,1,1872.18,205.09Zm18.63-14.94h-57.17a1.88,1.88,0,0,1-1.88-1.87V100.44a1.87,1.87,0,0,1,1.88-1.87h57.17a1.87,1.87,0,0,1,1.88,1.87v87.84A1.88,1.88,0,0,1,1890.81,190.15Z"/><path class="ea6883d5-9d5a-4975-a533-1e2574086a55" d="M1850.64,89.2a1.42,1.42,0,0,0-1.41,1.42h0a1.42,1.42,0,0,0,1.41,1.42h23.17a1.41,1.41,0,0,0,1.41-1.42h0a1.42,1.42,0,0,0-1.41-1.42"/><path class="ea6883d5-9d5a-4975-a533-1e2574086a55" d="M1883.86,93.23a2.49,2.49,0,1,0-2.49-2.49A2.49,2.49,0,0,0,1883.86,93.23Z"/><path class="fbde0648-59d5-434d-9741-7b68c5f9757d" d="M1855.24,1050.13h247.89c3.39,0,5.58-3.16,5.58-6.55V872.52a5.31,5.31,0,0,0-5.59-5.68H1855.24c-3.39,0-6.19,2.29-6.19,5.68v171.06A6.55,6.55,0,0,0,1855.24,1050.13Zm6.22-163.19c0-3.73,4.6-6.9,8.11-6.9h220.15c3.51,0,4.32,3.17,4.32,6.9V1029c0,3.72-.81,5.23-4.32,5.23H1869.57c-3.51,0-8.11-1.51-8.11-5.23Z"/><path class="fbde0648-59d5-434d-9741-7b68c5f9757d" d="M2123.11,1055.74H1833.65a7.59,7.59,0,0,0,0,15.17h289.46a7.59,7.59,0,1,0,0-15.17Z"/><path class="ba5e1fc5-1db9-428a-a00a-f5b2cbb3734b" d="M1933.43,1582h89.91l-45-77.86Zm45-4.59a4.34,4.34,0,1,1,4.35-4.34A4.34,4.34,0,0,1,1978.38,1577.45Zm6.71-47.37a7,7,0,0,1-.13,1.3l-3,30.49a3.6,3.6,0,0,1-7.2-.1l-3-30.39a6.23,6.23,0,0,1-.13-1.3,6.71,6.71,0,0,1,13.41,0Z"/><path class="ba5e1fc5-1db9-428a-a00a-f5b2cbb3734b" d="M2032.9,1577.45,2010,1537.82l-22.88-39.63a10.12,10.12,0,0,0-17.52,0l-22.87,39.63-22.88,39.63a10.11,10.11,0,0,0,8.75,15.17h91.52A10.11,10.11,0,0,0,2032.9,1577.45Zm-3.63,8a5.85,5.85,0,0,1-5.13,3h-91.51a5.92,5.92,0,0,1-5.13-8.87l45.76-79.26a5.92,5.92,0,0,1,10.25,0l45.75,79.26A5.87,5.87,0,0,1,2029.27,1585.46Z"/><path class="eeb9c13b-c2de-44be-8f8e-b25c32490fff" d="M1983.51,1500.29a5.92,5.92,0,0,0-10.25,0l-45.76,79.26a5.92,5.92,0,0,0,5.13,8.87h91.51a5.91,5.91,0,0,0,5.12-8.87ZM1933.43,1582l45-77.86,45,77.86Z"/><path class="ea6883d5-9d5a-4975-a533-1e2574086a55" d="M1971.68,1530.08a6.23,6.23,0,0,0,.13,1.3l3,30.39a3.6,3.6,0,0,0,7.2.1l3-30.49a7,7,0,0,0,.13-1.3,6.71,6.71,0,0,0-13.41,0Z"/><path class="ea6883d5-9d5a-4975-a533-1e2574086a55" d="M1978.38,1568.77a4.34,4.34,0,1,0,4.35,4.34A4.34,4.34,0,0,0,1978.38,1568.77Z"/><path class="ba5e1fc5-1db9-428a-a00a-f5b2cbb3734b" d="M172.68,1006a173.75,173.75,0,0,0,58.59,130.14,13.17,13.17,0,0,0,18-.59h0a13.21,13.21,0,0,0-.65-19.24,147.48,147.48,0,0,1,0-220.62,13.21,13.21,0,0,0,.65-19.24h0a13.17,13.17,0,0,0-18-.59A173.74,173.74,0,0,0,172.68,1006Z"/><path class="ba5e1fc5-1db9-428a-a00a-f5b2cbb3734b" d="M218.41,1006a133.38,133.38,0,0,0,47,101.63,13.19,13.19,0,0,0,17.87-.73h0a13.2,13.2,0,0,0-.75-19.36,107,107,0,0,1,0-163.08,13.2,13.2,0,0,0,.75-19.36h0a13.19,13.19,0,0,0-17.87-.73A133.38,133.38,0,0,0,218.41,1006Z"/><path class="ba5e1fc5-1db9-428a-a00a-f5b2cbb3734b" d="M266.33,1006A85.61,85.61,0,0,0,300,1074.12a13,13,0,0,0,17.07-1.07l.37-.36a13,13,0,0,0-1.45-19.52,59.27,59.27,0,0,1,0-94.26,13,13,0,0,0,1.45-19.52l-.37-.36A13,13,0,0,0,300,938,85.61,85.61,0,0,0,266.33,1006Z"/><path class="ba5e1fc5-1db9-428a-a00a-f5b2cbb3734b" d="M547.42,1006a173.72,173.72,0,0,1-58.59,130.14,13.15,13.15,0,0,1-18-.59h0a13.21,13.21,0,0,1,.64-19.24,147.48,147.48,0,0,0,0-220.62,13.21,13.21,0,0,1-.64-19.24h0a13.15,13.15,0,0,1,18-.59A173.7,173.7,0,0,1,547.42,1006Z"/><path class="ba5e1fc5-1db9-428a-a00a-f5b2cbb3734b" d="M501.7,1006a133.41,133.41,0,0,1-46.95,101.63,13.2,13.2,0,0,1-17.88-.73h0a13.2,13.2,0,0,1,.76-19.36,107.05,107.05,0,0,0-.23-163.28,12.89,12.89,0,0,1-.74-18.94l.4-.4a12.91,12.91,0,0,1,17.49-.72A133.42,133.42,0,0,1,501.7,1006Z"/><path class="ba5e1fc5-1db9-428a-a00a-f5b2cbb3734b" d="M453.78,1006a85.62,85.62,0,0,1-33.72,68.08,13,13,0,0,1-17.07-1.07l-.36-.36a13,13,0,0,1,1.44-19.52,59.27,59.27,0,0,0,0-94.26,13,13,0,0,1-1.44-19.52L403,939A13,13,0,0,1,420.06,938,85.62,85.62,0,0,1,453.78,1006Z"/><path class="ba5e1fc5-1db9-428a-a00a-f5b2cbb3734b" d="M388.09,1006a28,28,0,1,0-33,27.59v128.11a4.94,4.94,0,0,0,4.94,4.94h0a4.94,4.94,0,0,0,4.94-4.94V1033.63A28,28,0,0,0,388.09,1006Z"/><rect class="ba5e1fc5-1db9-428a-a00a-f5b2cbb3734b" x="280.05" y="1202.13" width="160" height="100" rx="20"/><path class="ba5e1fc5-1db9-428a-a00a-f5b2cbb3734b" d="M1703.48,405.66a9,9,0,1,1,9-9A9,9,0,0,1,1703.48,405.66Z"/><path class="ba5e1fc5-1db9-428a-a00a-f5b2cbb3734b" d="M1777,396.65a74.14,74.14,0,0,0-25-55.51,5.63,5.63,0,0,0-7.74.21h0a5.62,5.62,0,0,0,.24,8.18,62.95,62.95,0,0,1,0,94.24,5.63,5.63,0,0,0-.24,8.19h0a5.63,5.63,0,0,0,7.74.21A74.16,74.16,0,0,0,1777,396.65Z"/><path class="ba5e1fc5-1db9-428a-a00a-f5b2cbb3734b" d="M1757.44,396.65a57,57,0,0,0-20-43.36,5.63,5.63,0,0,0-7.65.29h0a5.63,5.63,0,0,0,.33,8.26,45.69,45.69,0,0,1,0,69.61,5.63,5.63,0,0,0-.33,8.26h0a5.64,5.64,0,0,0,7.65.29A57,57,0,0,0,1757.44,396.65Z"/><path class="ba5e1fc5-1db9-428a-a00a-f5b2cbb3734b" d="M1737,396.65a36.53,36.53,0,0,0-14.33-29,5.63,5.63,0,0,0-7.42.47h0a5.63,5.63,0,0,0,.55,8.44,25.3,25.3,0,0,1,0,40.21,5.62,5.62,0,0,0-.55,8.43h0a5.64,5.64,0,0,0,7.42.48A36.55,36.55,0,0,0,1737,396.65Z"/><path class="ba5e1fc5-1db9-428a-a00a-f5b2cbb3734b" d="M1721.48,1002.64a9,9,0,1,1,9-9A9,9,0,0,1,1721.48,1002.64Z"/><path class="ba5e1fc5-1db9-428a-a00a-f5b2cbb3734b" d="M1795,993.63a74.14,74.14,0,0,0-25-55.51,5.64,5.64,0,0,0-7.74.2h0a5.62,5.62,0,0,0,.25,8.18,63,63,0,0,1,0,94.24,5.62,5.62,0,0,0-.25,8.18h0a5.64,5.64,0,0,0,7.74.2A74.14,74.14,0,0,0,1795,993.63Z"/><path class="ba5e1fc5-1db9-428a-a00a-f5b2cbb3734b" d="M1775.44,993.63a56.91,56.91,0,0,0-20-43.36,5.63,5.63,0,0,0-7.65.28h0a5.64,5.64,0,0,0,.34,8.27,45.71,45.71,0,0,1,0,69.61,5.63,5.63,0,0,0-.34,8.26h0a5.64,5.64,0,0,0,7.65.29A57,57,0,0,0,1775.44,993.63Z"/><path class="ba5e1fc5-1db9-428a-a00a-f5b2cbb3734b" d="M1755,993.63a36.51,36.51,0,0,0-14.33-29,5.63,5.63,0,0,0-7.42.47h0a5.62,5.62,0,0,0,.56,8.44,25.31,25.31,0,0,1,0,40.2,5.62,5.62,0,0,0-.56,8.44h0a5.64,5.64,0,0,0,7.42.48A36.55,36.55,0,0,0,1755,993.63Z"/><path class="ba5e1fc5-1db9-428a-a00a-f5b2cbb3734b" d="M1703.48,1603.16a9,9,0,1,1,9-9A9,9,0,0,1,1703.48,1603.16Z"/><path class="ba5e1fc5-1db9-428a-a00a-f5b2cbb3734b" d="M1777,1594.15a74.16,74.16,0,0,0-25-55.52,5.64,5.64,0,0,0-7.74.21h0a5.63,5.63,0,0,0,.24,8.19,62.95,62.95,0,0,1,0,94.24,5.62,5.62,0,0,0-.24,8.18h0a5.64,5.64,0,0,0,7.74.2A74.14,74.14,0,0,0,1777,1594.15Z"/><path class="ba5e1fc5-1db9-428a-a00a-f5b2cbb3734b" d="M1757.44,1594.15a57,57,0,0,0-20-43.37,5.64,5.64,0,0,0-7.65.29h0a5.63,5.63,0,0,0,.33,8.26,45.69,45.69,0,0,1,0,69.61,5.63,5.63,0,0,0-.33,8.26v0a5.63,5.63,0,0,0,7.65.28A57,57,0,0,0,1757.44,1594.15Z"/><path class="ba5e1fc5-1db9-428a-a00a-f5b2cbb3734b" d="M1737,1594.15a36.55,36.55,0,0,0-14.33-29,5.64,5.64,0,0,0-7.42.48h0a5.63,5.63,0,0,0,.55,8.44,25.29,25.29,0,0,1,0,40.2,5.63,5.63,0,0,0-.55,8.44h0a5.63,5.63,0,0,0,7.42.47A36.51,36.51,0,0,0,1737,1594.15Z"/><text class="ba737adf-134d-42be-bd55-9745621a3348" transform="translate(226.21 1354.58)">Punto de acceso</text><text class="ba737adf-134d-42be-bd55-9745621a3348" transform="translate(934.55 1114.96)">Usuario B <tspan class="a3c7910d-4f61-4bbb-b611-b90e0c5d9f4a" x="157.41" y="0"> </tspan><tspan x="217.92" y="0">Contraseña B</tspan></text><text class="ba737adf-134d-42be-bd55-9745621a3348" transform="translate(929.68 1705.3)">Bloqueo de usuario por mal uso de la red</text><text class="ba737adf-134d-42be-bd55-9745621a3348" transform="translate(931.25 534.4)">Usuario A <tspan class="a3c7910d-4f61-4bbb-b611-b90e0c5d9f4a" x="159.36" y="0"> </tspan><tspan x="219.87" y="0">Contraseña A</tspan></text><text class="ba737adf-134d-42be-bd55-9745621a3348" transform="translate(632.78 778.35)">Máxima<tspan x="-15.68" y="38.4">velocidad</tspan></text><path class="f87b6e82-3dfd-46b3-8484-c366f13741e5" d="M693.38,669.77a6.42,6.42,0,1,0,8.4,3.45A6.41,6.41,0,0,0,693.38,669.77Z"/><path class="f87b6e82-3dfd-46b3-8484-c366f13741e5" d="M707.2,663.81l-.1-.09Z"/><path class="f87b6e82-3dfd-46b3-8484-c366f13741e5" d="M708.61,665.34a.86.86,0,0,1,.14.18A.86.86,0,0,0,708.61,665.34Z"/><path class="f87b6e82-3dfd-46b3-8484-c366f13741e5" d="M712.22,677.13v0Z"/><path class="f87b6e82-3dfd-46b3-8484-c366f13741e5" d="M712.28,676.12v0Z"/><path class="f87b6e82-3dfd-46b3-8484-c366f13741e5" d="M709.28,666.22l.1.14Z"/><path class="f87b6e82-3dfd-46b3-8484-c366f13741e5" d="M710.45,668.15c0,.09.09.17.13.26C710.54,668.32,710.49,668.24,710.45,668.15Z"/><path class="f87b6e82-3dfd-46b3-8484-c366f13741e5" d="M709.94,667.23l.11.19Z"/><path class="f87b6e82-3dfd-46b3-8484-c366f13741e5" d="M711.48,670.63l-.09-.28Z"/><path class="f87b6e82-3dfd-46b3-8484-c366f13741e5" d="M706.32,663l0,0Z"/><path class="f87b6e82-3dfd-46b3-8484-c366f13741e5" d="M711.78,671.64l-.06-.22Z"/><path class="f87b6e82-3dfd-46b3-8484-c366f13741e5" d="M696.4,557.58A110.56,110.56,0,0,0,592,704.24H800.85A110.58,110.58,0,0,0,696.4,557.58ZM735.71,661l-27.18,25.2a16.44,16.44,0,1,1-11.18-26.82l37-1.58A1.85,1.85,0,0,1,735.71,661Zm45.47,12.77h0A12.54,12.54,0,0,1,768.79,663,73.19,73.19,0,0,0,624,663a12.54,12.54,0,0,1-12.39,10.73h0a12.5,12.5,0,0,1-12.41-14.23,98.23,98.23,0,0,1,194.37,0A12.5,12.5,0,0,1,781.18,673.72Z"/><path class="f87b6e82-3dfd-46b3-8484-c366f13741e5" d="M712,672.82l0-.17Z"/><path class="f87b6e82-3dfd-46b3-8484-c366f13741e5" d="M712.19,673.91l0-.22Z"/><path class="e2940fba-7627-491f-b4e9-56960649aa1c" d="M599.22,659.49a12.5,12.5,0,0,0,12.41,14.23h0A12.54,12.54,0,0,0,624,663a72.94,72.94,0,0,1,20.67-41L627,604.28A97.93,97.93,0,0,0,599.22,659.49Z"/><path class="eeb9c13b-c2de-44be-8f8e-b25c32490fff" d="M696.4,575.52A97.89,97.89,0,0,0,627,604.28L644.69,622a73,73,0,0,1,103.43,0l17.73-17.73A97.93,97.93,0,0,0,696.4,575.52Z"/><path class="fbde0648-59d5-434d-9741-7b68c5f9757d" d="M748.12,622a73.06,73.06,0,0,1,20.67,41,12.54,12.54,0,0,0,12.39,10.73h0a12.5,12.5,0,0,0,12.41-14.23,97.93,97.93,0,0,0-27.74-55.21Z"/><path class="ba5e1fc5-1db9-428a-a00a-f5b2cbb3734b" d="M734.37,657.75l-37,1.58a16.43,16.43,0,1,0,11.18,26.82L735.71,661A1.85,1.85,0,0,0,734.37,657.75Zm-23.79,10.66c0-.09-.09-.17-.13-.26C710.49,668.24,710.54,668.32,710.58,668.41Zm-.53-1-.11-.19Zm-.67-1.06-.1-.14Zm-.63-.84a.86.86,0,0,0-.14-.18A.86.86,0,0,1,708.75,665.52Zm-1.55-1.71-.1-.09Zm-.85-.76,0,0Zm-8,18.57a6.42,6.42,0,1,1,3.46-8.4A6.42,6.42,0,0,1,698.32,681.62Zm14-5.5v0Zm-.06,1v0Zm-.83-6.82.09.28Zm.33,1.07.06.22Zm.28,1.23,0,.17Zm.16,1,0,.22Z"/><path class="ba5e1fc5-1db9-428a-a00a-f5b2cbb3734b" d="M813.42,618.64a127,127,0,0,0-237,91A16.5,16.5,0,0,0,592,720.74H800.85a16.5,16.5,0,0,0,15.59-11.1,127.5,127.5,0,0,0-3-91Zm-12.57,85.6H592a110.5,110.5,0,1,1,208.89,0Z"/><circle class="f87b6e82-3dfd-46b3-8484-c366f13741e5" cx="417.98" cy="694.23" r="5.15"/><path class="b49a9bf0-505f-40e0-b571-46003b04d874" d="M513.1,664.25a5.61,5.61,0,0,0,5.35-5.6v-.91a5.65,5.65,0,0,0-5.64-5.64H481.47A11.07,11.07,0,0,1,470.41,641V627.87a9.56,9.56,0,0,0-9.54-9.53h-.31a2.6,2.6,0,0,0-2.35,2.66v13.73c0,6.91-4.91,12.29-8.86,16.62-2.05,2.25-4.87,5.33-4.87,6.84v43.9a2.65,2.65,0,0,0,1.41,2.35l4.29,2.28a47.43,47.43,0,0,0,22.34,5.62h26.56a5.66,5.66,0,0,0,5.65-5.65v-.91a5.5,5.5,0,0,0-.68-2.58,4.2,4.2,0,0,1,1.47-5.49,5.62,5.62,0,0,0,2.64-4.75v-2.62a5.57,5.57,0,0,0-1.72-4,4.19,4.19,0,0,1,1.46-6.95,4.89,4.89,0,0,0,2.26-8.15,4.2,4.2,0,0,1,2.94-7Z"/><path class="ba5e1fc5-1db9-428a-a00a-f5b2cbb3734b" d="M512.81,643.71H481.47A2.67,2.67,0,0,1,478.8,641V627.87A17.93,17.93,0,0,0,460.29,610a11,11,0,0,0-10.48,11v13.73c0,3.66-3.38,7.37-6.66,11-3.47,3.8-7.06,7.74-7.06,12.5v43.9a11,11,0,0,0,5.88,9.77l4.24,2.26a55.89,55.89,0,0,0,26.31,6.61h26.56a14.06,14.06,0,0,0,14-14v-.91a13.37,13.37,0,0,0-.39-3.21,14,14,0,0,0,3.82-9.61v-2.62a13.91,13.91,0,0,0-1.26-5.82,14,14,0,0,0,4.53-8.46,4.08,4.08,0,0,0,.16-1.17v-.8a4.37,4.37,0,0,0-.17-1.21,14.84,14.84,0,0,0-.41-1.87,14,14,0,0,0,7.45-12.37v-.91A14,14,0,0,0,512.81,643.71Zm-2.65,27.5a4.89,4.89,0,0,1-2.26,8.15,4.19,4.19,0,0,0-1.46,6.95,5.57,5.57,0,0,1,1.72,4V693a5.62,5.62,0,0,1-2.64,4.75,4.2,4.2,0,0,0-1.47,5.49,5.5,5.5,0,0,1,.68,2.58v.91a5.66,5.66,0,0,1-5.65,5.65H472.52a47.43,47.43,0,0,1-22.34-5.62l-4.29-2.28a2.65,2.65,0,0,1-1.41-2.35V658.2c0-1.51,2.82-4.59,4.87-6.84,3.95-4.33,8.86-9.71,8.86-16.62V621a2.6,2.6,0,0,1,2.35-2.66h.31a9.56,9.56,0,0,1,9.54,9.53V641a11.07,11.07,0,0,0,11.06,11.06h31.34a5.65,5.65,0,0,1,5.64,5.64v.91a5.61,5.61,0,0,1-5.35,5.6,4.2,4.2,0,0,0-2.94,7Z"/><path class="ba5e1fc5-1db9-428a-a00a-f5b2cbb3734b" d="M430,651.33H406a1.72,1.72,0,0,0-1.71,1.72V708a1.72,1.72,0,0,0,1.71,1.72h24A1.71,1.71,0,0,0,431.7,708V653.05A1.71,1.71,0,0,0,430,651.33Zm-12,48a5.15,5.15,0,1,1,5.14-5.15A5.14,5.14,0,0,1,418,699.38Z"/><path class="e2940fba-7627-491f-b4e9-56960649aa1c" d="M1975.83,123.16a33.11,33.11,0,1,0,9.7,23.42A32.86,32.86,0,0,0,1975.83,123.16Zm-23.41,1.07a22.2,22.2,0,0,1,11.53,3.21l-30.67,30.66a22.33,22.33,0,0,1,19.14-33.87Zm0,44.69a22.26,22.26,0,0,1-11.53-3.2l30.67-30.67a22.33,22.33,0,0,1-19.14,33.87Z"/><path class="e2940fba-7627-491f-b4e9-56960649aa1c" d="M1639.62,201.35a33.11,33.11,0,1,0,9.7,23.42A32.89,32.89,0,0,0,1639.62,201.35Zm-23.42,1.07a22.18,22.18,0,0,1,11.53,3.21l-30.67,30.66a22.33,22.33,0,0,1,19.14-33.87Zm0,44.69a22.29,22.29,0,0,1-11.53-3.2l30.67-30.67a22.33,22.33,0,0,1-19.14,33.87Z"/><path class="e2940fba-7627-491f-b4e9-56960649aa1c" d="M1960.2,751.28a33.12,33.12,0,1,0,9.7,23.42A32.92,32.92,0,0,0,1960.2,751.28Zm-23.42,1.07a22.18,22.18,0,0,1,11.53,3.21l-30.67,30.67a22.34,22.34,0,0,1,19.14-33.88Zm0,44.7a22.2,22.2,0,0,1-11.53-3.21l30.67-30.67a22.34,22.34,0,0,1-19.14,33.88Z"/><path class="e2940fba-7627-491f-b4e9-56960649aa1c" d="M1970.62,1344.22a33.12,33.12,0,1,0,9.7,23.42A32.9,32.9,0,0,0,1970.62,1344.22Zm-23.41,1.07a22.14,22.14,0,0,1,11.52,3.21l-30.66,30.67a22.34,22.34,0,0,1,19.14-33.88Zm0,44.7a22.18,22.18,0,0,1-11.53-3.21l30.67-30.67a22.34,22.34,0,0,1-19.14,33.88Z"/><path class="e2940fba-7627-491f-b4e9-56960649aa1c" d="M2187,1525.36a33.12,33.12,0,1,0,9.7,23.42A32.92,32.92,0,0,0,2187,1525.36Zm-23.42,1.07a22.18,22.18,0,0,1,11.53,3.21l-30.67,30.67a22.34,22.34,0,0,1,19.14-33.88Zm0,44.7a22.2,22.2,0,0,1-11.53-3.21l30.67-30.67a22.34,22.34,0,0,1-19.14,33.88Z"/><path class="e2940fba-7627-491f-b4e9-56960649aa1c" d="M1635.71,1415.9a33.11,33.11,0,1,0,9.7,23.41A32.89,32.89,0,0,0,1635.71,1415.9Zm-23.42,1.07a22.26,22.26,0,0,1,11.53,3.2l-30.67,30.67a22.33,22.33,0,0,1,19.14-33.87Zm0,44.69a22.23,22.23,0,0,1-11.52-3.2l30.66-30.67a22.33,22.33,0,0,1-19.14,33.87Z"/><path class="a538f0a0-9249-45ef-ad58-3b5161cc787e" d="M2162,364.4a5.93,5.93,0,0,1-4.21-1.74l-22.47-22.47a5.95,5.95,0,0,1,8.41-8.41L2162,350.05l37-36.82a6,6,0,1,1,8.4,8.43l-41.16,41A5.91,5.91,0,0,1,2162,364.4Z"/><path class="a538f0a0-9249-45ef-ad58-3b5161cc787e" d="M2162,991.24a5.93,5.93,0,0,1-4.21-1.74L2135.35,967a6,6,0,0,1,8.41-8.42L2162,976.89l37-36.82a5.95,5.95,0,1,1,8.4,8.42l-41.16,41A6,6,0,0,1,2162,991.24Z"/><path class="a538f0a0-9249-45ef-ad58-3b5161cc787e" d="M1602.2,893.5a5.92,5.92,0,0,1-4.2-1.74l-22.48-22.47a6,6,0,0,1,8.42-8.41l18.27,18.27,37-36.82a6,6,0,0,1,8.4,8.43l-41.17,41A5.91,5.91,0,0,1,1602.2,893.5Z"/><path class="fbde0648-59d5-434d-9741-7b68c5f9757d" d="M308.17,196.38H296.39V184.66c0-29.73-25.79-53.92-57.5-53.92s-57.5,24.19-57.5,53.92v11.72H169.61a7.67,7.67,0,0,0-7.9,7.42V312.08a7.55,7.55,0,0,0,6.8,7.34,569.67,569.67,0,0,0,70.38,4.28,569.67,569.67,0,0,0,70.38-4.28,7.55,7.55,0,0,0,6.8-7.34V203.8A7.67,7.67,0,0,0,308.17,196.38Zm-107.26,0V184.66c0-19.63,17-35.61,38-35.61s38,16,38,35.61v11.72Z"/><path class="ea6883d5-9d5a-4975-a533-1e2574086a55" d="M248.28,276.38l-.82.56v11.55q0,4.86-1.85,7.5c-1.24,1.77-3.5,2.64-6.79,2.64s-5.33-.87-6.54-2.64-1.82-4.26-1.82-7.5V276.94l-.68-.56-10.15,7a11,11,0,0,1-6.3,2.4,5.2,5.2,0,0,1-2.85-.92,10.33,10.33,0,0,1-2.5-2.32,13,13,0,0,1-1.78-3.1,8.59,8.59,0,0,1-.69-3.24,6.92,6.92,0,0,1,1.34-4.12,12.9,12.9,0,0,1,3.73-3.35L223.06,261v-.85l-12.2-7.46A13.33,13.33,0,0,1,207,249.3a6.86,6.86,0,0,1-1.44-4.19,8,8,0,0,1,.76-3.24,14.32,14.32,0,0,1,1.88-3.1,10.61,10.61,0,0,1,2.57-2.32,5.17,5.17,0,0,1,2.74-.92c1.92,0,4.12.85,6.58,2.54l9.74,6.76.68-.56v-13a12.65,12.65,0,0,1,1.82-7.15q1.82-2.72,6.54-2.71a10.5,10.5,0,0,1,4.12.71,6.64,6.64,0,0,1,2.67,2,7.85,7.85,0,0,1,1.44,3.1,18.43,18.43,0,0,1,.41,4.05v13l.68.56,9.6-6.76q3.7-2.53,6.58-2.54a5.11,5.11,0,0,1,2.78.92,10.83,10.83,0,0,1,2.53,2.32,14.32,14.32,0,0,1,1.88,3.1,7.86,7.86,0,0,1,.76,3.24,6.86,6.86,0,0,1-1.44,4.19,13.33,13.33,0,0,1-3.91,3.42l-12.2,7.46V261l12.48,7.74a12.77,12.77,0,0,1,3.73,3.35,6.92,6.92,0,0,1,1.34,4.12,8.59,8.59,0,0,1-.69,3.24,12.69,12.69,0,0,1-1.78,3.1,10.15,10.15,0,0,1-2.5,2.32,5.17,5.17,0,0,1-2.85.92,9.06,9.06,0,0,1-3.08-.6,12.2,12.2,0,0,1-3.22-1.8Z"/><path class="fbde0648-59d5-434d-9741-7b68c5f9757d" d="M1205,444.69c-2.45-13.54-11.36-18.87-29.47-26.64-8.55,28-24.71,21.86-74.15,22.34-21.44.21-62.74,8.08-66.07-22.34-18.11,7.77-26.93,13.1-29.38,26.64a4.59,4.59,0,0,1-3.07,3.49c10,15.71,52,27.49,102.16,27.49,50.53,0,92.67-11.94,102.36-27.8A4.55,4.55,0,0,1,1205,444.69Z"/><path class="b49a9bf0-505f-40e0-b571-46003b04d874" d="M1176.05,418.05c-8.73-6.42-52.85-32.19-54.67-43.73a50.67,50.67,0,0,1-31.5,0c-1.82,11.54-42.14,29.19-50.87,35.61,1.16,17.18,3,31.89,66.21,27.61C1122.66,436.36,1165.59,447,1176.05,418.05Z"/><path class="b49a9bf0-505f-40e0-b571-46003b04d874" d="M1159.1,315.37l.81-4.59,5.41.94c4.12,0,7.81-6,7.81-12.85s-3.69-12.85-7.89-12.85l-.72.15-4.61.83-.81-4.64c-.69-3.92,0-9-1.18-12.66,0,0-18.68-5.21-21.28-30.4-23,25.62-46.92,10.42-46.92,10.42-14.77,32.58-28.23,23.89-35.5,21.29a82.94,82.94,0,0,0-2.82,11.35l-.81,4.64-5.41-1c-4.12,0-7.8,6-7.8,12.85s3.68,12.84,7.88,12.84l5.34-.93.8,4.59c5.75,32.84,28.4,56.68,53.85,56.68S1153.35,348.21,1159.1,315.37Z"/><path class="f87b6e82-3dfd-46b3-8484-c366f13741e5" d="M1130.24,396.08a144.64,144.64,0,0,1-50.76-.17c-9.11,10.1-23.17,16.39-36.2,22.21l-3.58,1.6,3,7a13.61,13.61,0,0,0,12.51,8.24h99.17a13.61,13.61,0,0,0,12.51-8.24l3-7-3.58-1.6C1153.34,412.33,1139.36,406.08,1130.24,396.08Z"/><path class="a538f0a0-9249-45ef-ad58-3b5161cc787e" d="M1080.06,372.91c-17.45-9.31-31-28.32-36.22-52.59-8.36-1.36-14.62-10.3-14.62-21.45s6.26-20.09,14.62-21.45c.42-1.92.91-3.8,1.44-5.64a4.56,4.56,0,0,1,5.31-7.38,24.18,24.18,0,0,0,10.64,3.59c4.61.41,13.06.14,18-6.13a17.77,17.77,0,0,0,3.42-12l-.22-3.65,3.51-1a15.3,15.3,0,0,1,3.9-.6c4.53-.06,7.11,2.26,9.33,4.13,2.65,2.24,4.93,4.18,11,3.62,3.33-.31,5.6-3.13,8.94-7.72,4.38-6,11-15.12,24-7.81l3.42,1.92-1.39,3.67c-2,5.43-.31,12.81,4.12,17.52,2.81,3,7.69,6,15.54,4.73a4.58,4.58,0,0,1,5.13,3.16h0a4.56,4.56,0,0,1-3.63,5.84l-1.1.14c.24,1.17.48,2.41.69,3.6,8.32,1.41,14.54,10.32,14.54,21.44s-6.26,20.08-14.61,21.45c-5.24,24.27-18.78,43.27-36.23,52.59.76,8.88,5.08,15.47,11.46,20.86q5.08-1.32,10-3l-1.32-.18a4.58,4.58,0,1,1,1.39-9.06c5.3.85,14.71,1.08,18.78-6.77,2.15-4.15,1.27-10.6-1.62-14.76a4.52,4.52,0,0,1,.2-5.38h0a4.55,4.55,0,0,1,7.34.25,24,24,0,0,1,2.34,4.33c9.08-4.47,21.42-13.53,26.47-39.92,4.65-24.3-2.76-33.49-7.6-36.8-5-3.47-11-3.24-14.22-1.2l-4.84-7.76a20,20,0,0,1,10.65-2.82c1.2-4.61,2.37-12.12,1.79-17.57-.46-4.38-2.49-15.18-11.44-20.89a21.7,21.7,0,0,0-10.8-3.49,68,68,0,0,0-9.51.47l-7.53,1,2.68-7.1a48.24,48.24,0,0,0,3-19.57c-.58-16.13-4.27-18-4.31-18-.21.13-1.46,1.2-2.38,2a36.3,36.3,0,0,1-9.55,6.24c-8.71,3.72-15.5,1.81-21.51.11-5.27-1.49-10.25-2.9-17.27-1.14-.57.14-14,3.64-21,15.84a31.37,31.37,0,0,0-3.65,10.24l-.73,4.2-4.25-.44c-18.51-1.95-32.8,2.27-43.62,12.94-10.54,10.39-15.36,23-14.38,37.54l1-.35a27.32,27.32,0,0,1,7.13-1.28,4.57,4.57,0,0,1,.37,9.13,18.28,18.28,0,0,0-4.72.85,20.74,20.74,0,0,0-9.63,7c-7,8.23-9.54,22.53-6.2,34.78,1.36,4.94,7,21.51,23,27a33.81,33.81,0,0,0,16.69,1.24,4.57,4.57,0,1,1,1.55,9,47.31,47.31,0,0,1-5.5.59c-1.19,2.59-2.24,6.42-.76,10.25,1.9,4.91,6.72,6.82,8.3,7.45,6.1,2.41,12.18.44,15.82-1.33a4.53,4.53,0,0,1,5.68,1.43h0a4.63,4.63,0,0,1-1.79,6.84,33.28,33.28,0,0,1-10.76,3.15,137.39,137.39,0,0,0,14.59,4.75C1075.11,388.19,1079.32,381.66,1080.06,372.91Z"/><path class="ee0619ad-3b4c-4609-b6ba-c7e017647970" d="M1170,409.78c-10.87-4.86-21.42-9.58-29-16-6.38-5.39-10.7-12-11.46-20.86,17.45-9.32,31-28.32,36.23-52.59,8.35-1.37,14.61-10.3,14.61-21.45s-6.22-20-14.54-21.44c-.21-1.19-.45-2.43-.69-3.6l1.1-.14a4.56,4.56,0,0,0,3.63-5.84h0a4.58,4.58,0,0,0-5.13-3.16C1156.86,266,1152,263,1149.17,260c-4.43-4.71-6.16-12.09-4.12-17.52l1.39-3.67-3.42-1.92c-13-7.31-19.58,1.79-24,7.81-3.34,4.59-5.61,7.41-8.94,7.72-6,.56-8.31-1.38-11-3.62-2.22-1.87-4.8-4.19-9.33-4.13a15.3,15.3,0,0,0-3.9.6l-3.51,1,.22,3.65a17.77,17.77,0,0,1-3.42,12c-4.93,6.27-13.38,6.54-18,6.13a24.18,24.18,0,0,1-10.64-3.59,4.56,4.56,0,0,0-5.31,7.38c-.53,1.84-1,3.72-1.44,5.64-8.36,1.36-14.62,10.29-14.62,21.45s6.26,20.09,14.62,21.45c5.24,24.27,18.77,43.28,36.22,52.59-.74,8.75-5,15.28-11.18,20.63-7.65,6.55-18.32,11.32-29.32,16.24-18.58,8.3-37.73,16.85-40.75,35.4a4.58,4.58,0,0,0,9,1.49c1.79-10.55,11.29-17.07,23.58-23.09l2.87,6.7a22.73,22.73,0,0,0,20.91,13.77h99.17a22.71,22.71,0,0,0,20.9-13.77l2.87-6.7c12.29,6,21.79,12.54,23.59,23.09a4.54,4.54,0,0,0,4.49,3.74h0a4.56,4.56,0,0,0,4.54-5.23C1207.73,426.63,1188.58,418.08,1170,409.78Zm-117.93-94.85-.79-4.49-5.21.93c-4.12,0-7.72-5.84-7.72-12.5s3.6-12.5,7.63-12.5l5.31.93.79-4.49c.42-2.41,1-4.76,1.57-7.06a33.11,33.11,0,0,0,6.78,1.34c1.24.11,2.46.16,3.65.16,9.48,0,17.31-3.39,22.31-9.74a25.59,25.59,0,0,0,5.22-13.09c.43.3,1,.73,1.65,1.32,3.14,2.65,7.87,6.65,17.7,5.73,7.67-.71,12-6.66,15.48-11.44,3.79-5.2,5.64-7.4,8.94-6.59a27.75,27.75,0,0,0,7.12,22.78,24.5,24.5,0,0,0,13.2,7.31c.56,2.4,1.22,6.15,1.64,8.53l.93,5.24,5.21-.93c4.11,0,7.72,5.84,7.72,12.5s-3.61,12.5-7.64,12.5l-5.3-.93-.79,4.49c-5.63,31.95-27.79,55.14-52.7,55.14S1057.72,346.88,1052.08,314.93Zm114.8,111.75a13.61,13.61,0,0,1-12.51,8.24H1055.2a13.61,13.61,0,0,1-12.51-8.24l-3-7,3.58-1.6c13-5.82,27.09-12.11,36.2-22.21a36.71,36.71,0,0,0,9.33-19.26,51.09,51.09,0,0,0,31.94,0,36.81,36.81,0,0,0,9.49,19.43c9.12,10,23.1,16.25,36,22l3.58,1.6Z"/><path class="ee0619ad-3b4c-4609-b6ba-c7e017647970" d="M1066.84,378.8h0a4.53,4.53,0,0,0-5.68-1.43c-3.64,1.77-9.72,3.74-15.82,1.33-1.58-.63-6.4-2.54-8.3-7.45-1.48-3.83-.43-7.66.76-10.25a47.31,47.31,0,0,0,5.5-.59,4.57,4.57,0,1,0-1.55-9,33.81,33.81,0,0,1-16.69-1.24c-16-5.51-21.68-22.08-23-27-3.34-12.25-.79-26.55,6.2-34.78a20.74,20.74,0,0,1,9.63-7,18.28,18.28,0,0,1,4.72-.85,4.57,4.57,0,0,0-.37-9.13,27.32,27.32,0,0,0-7.13,1.28l-1,.35c-1-14.54,3.84-27.15,14.38-37.54,10.82-10.67,25.11-14.89,43.62-12.94l4.25.44.73-4.2a31.37,31.37,0,0,1,3.65-10.24c7-12.2,20.44-15.7,21-15.84,7-1.76,12-.35,17.27,1.14,6,1.7,12.8,3.61,21.51-.11a36.3,36.3,0,0,0,9.55-6.24c.92-.77,2.17-1.84,2.38-2,0,0,3.73,1.86,4.31,18a48.24,48.24,0,0,1-3,19.57l-2.68,7.1,7.53-1a68,68,0,0,1,9.51-.47,21.7,21.7,0,0,1,10.8,3.49c9,5.71,11,16.51,11.44,20.89.58,5.45-.59,13-1.79,17.57a20,20,0,0,0-10.65,2.82l4.84,7.76c3.25-2,9.18-2.27,14.22,1.2,4.84,3.31,12.25,12.5,7.6,36.8-5,26.39-17.39,35.45-26.47,39.92a24,24,0,0,0-2.34-4.33,4.55,4.55,0,0,0-7.34-.25h0a4.52,4.52,0,0,0-.2,5.38c2.89,4.16,3.77,10.61,1.62,14.76-4.07,7.85-13.48,7.62-18.78,6.77a4.58,4.58,0,1,0-1.39,9.06l1.32.18a39.24,39.24,0,0,0,4.69.29c8.15,0,17.41-2.71,22.27-12.1.2-.39.38-.78.55-1.19a21.86,21.86,0,0,0,1.62-9.42c9.83-4.48,27.2-14.84,33.43-47.36,5.62-29.4-4.74-41.47-11.41-46a23.81,23.81,0,0,0-4.61-2.47c1.45-5.78,2.56-14,1.9-20.3-.59-5.7-3.31-19.79-15.61-27.64a30.55,30.55,0,0,0-15.33-4.91c-1.37-.06-2.78-.05-4.12,0a60.54,60.54,0,0,0,1.53-16.45,66.25,66.25,0,0,0-2-15c-1.76-6.37-4.67-10.14-8.78-11.4-4.82-1.47-8.22,1.41-11,3.73l-.35.3a26.59,26.59,0,0,1-6.9,4.51c-5.74,2.46-9.8,1.3-15.42-.28s-12.61-3.57-22-1.21c-1.82.46-18,4.89-26.71,20.16a39.25,39.25,0,0,0-3.8,9.11c-19.52-1.24-34.88,4-46.94,15.86-13.44,13.26-19.14,30.21-16.61,49.15a37.34,37.34,0,0,0-4.17,4.31c-9,10.55-12.2,27.87-8,43.09,1.65,6,8.6,26.29,28.88,33.26a40.27,40.27,0,0,0,6.19,1.59,21.16,21.16,0,0,0,.24,14.16c.16.4.35.78.53,1.17,2.37,5.14,6.69,9,12.93,11.47a25.23,25.23,0,0,0,9.37,1.78,25.65,25.65,0,0,0,2.94-.18,33.28,33.28,0,0,0,10.76-3.15A4.63,4.63,0,0,0,1066.84,378.8Z"/><path class="b49a9bf0-505f-40e0-b571-46003b04d874" d="M1131.9,1544.33c13.5-9,23.91-25.49,27.46-45.65l.57-3.22.17-1,0-.07,1.66.28,3.07.52a5.07,5.07,0,0,0,2.79-.75,9.43,9.43,0,0,0,3.53-4.37,17.08,17.08,0,0,0,1.37-6.82c0-5.53-2.59-10.47-5.85-11.7h0c-3.93,9.25-11.46,16.07-18.3,20.69a75.12,75.12,0,0,1-12.61,6.85l-2.8,1.17a3,3,0,0,1-4-3.72l1-2.88c2.78-8.37,6.44-25.13-.34-43.31a61.89,61.89,0,0,0-10.44-18h0c-4.35,3.53-10.38,8.14-17.57,12.95-11.94,8-27.11,16.46-43.21,21.39v0c-.06.36-.13.71-.19,1.07l-.76,4.31-.08,0-5-.87a4.77,4.77,0,0,0-2.79,1c-2.6,1.89-4.54,6.23-4.54,11a16.73,16.73,0,0,0,1.66,7.37c1.38,2.78,3.49,4.63,5.75,4.63l2.83-.49,2.18-.37.25,1.39.51,2.89c5.41,30.68,26.69,53,50.6,53A41.71,41.71,0,0,0,1131.9,1544.33Z"/><path class="b49a9bf0-505f-40e0-b571-46003b04d874" d="M1180.41,1476.34a77.93,77.93,0,0,0-2.94-11.46c-.43,1-.88,2-1.38,3A21.88,21.88,0,0,1,1180.41,1476.34Z"/><path class="fbde0648-59d5-434d-9741-7b68c5f9757d" d="M1201.84,1625.14c-1.44-8.33-7.88-14-16.7-19-1.88-1.07-3.87-2.1-5.94-3.11l-2.75,6.43a21.83,21.83,0,0,1-20.08,13.23h-95.22a21.81,21.81,0,0,1-20.07-13.23l-2.76-6.43c-7.8,3.82-14.43,7.85-18.53,13.08a20,20,0,0,0-4.12,9.09,4.26,4.26,0,0,1-3.42,3.53c15.3,13.69,52.73,23.36,96.49,23.36s81.26-9.69,96.54-23.4A4.38,4.38,0,0,1,1201.84,1625.14Z"/><path class="b49a9bf0-505f-40e0-b571-46003b04d874" d="M1124.1,1558a49.22,49.22,0,0,1-30.67,0c-3.44,21.8-24.74,31.33-43.72,39.82l-3.44,1.54,2.86,6.67a13.07,13.07,0,0,0,12,7.92h95.22a13.07,13.07,0,0,0,12-7.92l2.86-6.67-3.44-1.54C1148.83,1589.28,1127.53,1579.75,1124.1,1558Z"/><path class="e2940fba-7627-491f-b4e9-56960649aa1c" d="M1051.3,1462.53a9.94,9.94,0,0,1,3,.67l.32.07a4.5,4.5,0,0,1,3-5.48c27.13-8.83,52-28.7,59.22-34.82l3.17-2.68,2.86,3a70.93,70.93,0,0,1,15,24,72.79,72.79,0,0,1,3,39.38c6.87-4.16,15.65-11.15,18.72-20.92h0a4.37,4.37,0,0,1,3.43-3,11.58,11.58,0,0,1,2.2-.27,13.36,13.36,0,0,1,3.59.51,50.33,50.33,0,0,0,4.39-17.52c.45-14.94-6.88-30-18.67-38.51a25,25,0,0,0-12.13-4.65l-6-.85L1139,1396c1.11-2.26,2.23-5.52,1.23-8.17-1.58-4.18-7.78-8.06-15.09-9.45-6.83-1.3-12.87-.15-15.74,3-1.7,1.87-2.49,4.64-2.37,8.23l.2,5.72-5.58-1.3a46.5,46.5,0,0,0-16.19-.92c-21.52,2.69-41,21.12-45.37,42.88a52.11,52.11,0,0,0,2.89,30.24,14.39,14.39,0,0,1,7.26-3.62C1050.27,1462.55,1051.3,1462.53,1051.3,1462.53Z"/><path class="ee0619ad-3b4c-4609-b6ba-c7e017647970" d="M1210.52,1623.74c-.06-.34-.14-.67-.21-1-2.52-12.56-12.9-20.26-25.17-26.55-4.43-2.27-9.11-4.36-13.75-6.43-6-2.67-11.83-5.29-17.13-8.2-9.41-5.18-17-11.27-20.23-20.14a27.57,27.57,0,0,1-1.53-7.06c16.75-8.95,29.75-27.2,34.78-50.5,7.91-1.3,13.86-9.66,14-20.17,0-.14,0-.28,0-.43v-.07a27,27,0,0,0-.9-6.85,21.88,21.88,0,0,0-4.32-8.46c.5-1,1-2,1.38-3a60.53,60.53,0,0,0,4.41-19.14,55.14,55.14,0,0,0-1.61-14.8,54.35,54.35,0,0,0-20.72-31.1,32.62,32.62,0,0,0-10.73-5.16,16.3,16.3,0,0,0-.39-9.91c-2.68-7.1-11.18-13-21.65-15-10-1.89-18.89.25-23.87,5.74a18,18,0,0,0-4.29,9.06,54.35,54.35,0,0,0-14.24-.14c-24,3-45.78,22.68-52.09,46.48-.29,1.12-.57,2.24-.79,3.38a61.1,61.1,0,0,0,2.39,32.72,54.16,54.16,0,0,0,3.62,8,26.3,26.3,0,0,0-1.3,8.24c0,.33,0,.65,0,1,.36,10.25,6.22,18.35,14,19.63,5,23.3,18,41.55,34.78,50.5a26.86,26.86,0,0,1-2.23,8.81c-3.53,7.93-10.74,13.55-19.51,18.38-5.31,2.91-11.18,5.54-17.15,8.21-9.42,4.2-19,8.48-26.34,14.2-6.33,4.91-11,10.89-12.6,18.8-.08.4-.16.81-.23,1.23a4.17,4.17,0,0,0,4.13,4.78h.45a4.17,4.17,0,0,0,.71-.06,4.26,4.26,0,0,0,3.42-3.53,20,20,0,0,1,4.12-9.09c4.1-5.23,10.73-9.26,18.53-13.08l2.76,6.43a21.81,21.81,0,0,0,20.07,13.23h95.22a21.83,21.83,0,0,0,20.08-13.23l2.75-6.43c2.07,1,4.06,2,5.94,3.11,8.82,5,15.26,10.69,16.7,19a4.38,4.38,0,0,0,3.44,3.53,4.33,4.33,0,0,0,.89.1A4.38,4.38,0,0,0,1210.52,1623.74ZM1040.09,1436c4.35-21.76,23.85-40.19,45.37-42.88a46.5,46.5,0,0,1,16.19.92l5.58,1.3-.2-5.72c-.12-3.59.67-6.36,2.37-8.23,2.87-3.16,8.91-4.31,15.74-3,7.31,1.39,13.51,5.27,15.09,9.45,1,2.65-.12,5.91-1.23,8.17l-2.68,5.43,6,.85a25,25,0,0,1,12.13,4.65c11.79,8.46,19.12,23.57,18.67,38.51a50.33,50.33,0,0,1-4.39,17.52,13.36,13.36,0,0,0-3.59-.51,11.58,11.58,0,0,0-2.2.27,4.37,4.37,0,0,0-3.43,3h0c-3.07,9.77-11.85,16.76-18.72,20.92a72.79,72.79,0,0,0-3-39.38,70.93,70.93,0,0,0-15-24l-2.86-3-3.17,2.68c-7.24,6.12-32.09,26-59.22,34.82a4.5,4.5,0,0,0-3,5.48l-.32-.07a9.94,9.94,0,0,0-3-.67s-1,0-1.06.13a14.39,14.39,0,0,0-7.26,3.62A52.11,52.11,0,0,1,1040.09,1436Zm18.07,62.64-.51-2.89-.25-1.39-2.18.37-2.83.49c-2.26,0-4.37-1.85-5.75-4.63a16.73,16.73,0,0,1-1.66-7.37c0-4.78,1.94-9.12,4.54-11a4.77,4.77,0,0,1,2.79-1l5,.87.08,0,.76-4.31c.06-.36.13-.71.19-1.07v0c16.1-4.93,31.27-13.42,43.21-21.39,7.19-4.81,13.22-9.42,17.57-12.95h0a61.89,61.89,0,0,1,10.44,18c6.78,18.18,3.12,34.94.34,43.31l-1,2.88a3,3,0,0,0,4,3.72l2.8-1.17a75.12,75.12,0,0,0,12.61-6.85c6.84-4.62,14.37-11.44,18.3-20.69h0c3.26,1.23,5.85,6.17,5.85,11.7a17.08,17.08,0,0,1-1.37,6.82,9.43,9.43,0,0,1-3.53,4.37,5.07,5.07,0,0,1-2.79.75l-3.07-.52-1.66-.28,0,.07-.17,1-.57,3.22c-3.55,20.16-14,36.68-27.46,45.65a41.71,41.71,0,0,1-23.14,7.3C1084.85,1551.63,1063.57,1529.36,1058.16,1498.68ZM1168.39,1606a13.07,13.07,0,0,1-12,7.92h-95.22a13.07,13.07,0,0,1-12-7.92l-2.86-6.67,3.44-1.54c19-8.49,40.28-18,43.72-39.82a49.22,49.22,0,0,0,30.67,0c3.43,21.8,24.73,31.33,43.71,39.82l3.44,1.54Z"/><path class="f87b6e82-3dfd-46b3-8484-c366f13741e5" d="M1117,781.77c-5.56-1.52-9.32-.57-14.53.75a65.43,65.43,0,0,1-17.14,2.46h-.45c-19.78,0-27.21,1-35.72,9.46H1128C1126,789.07,1122.43,783.25,1117,781.77Z"/><path class="b49a9bf0-505f-40e0-b571-46003b04d874" d="M1152.29,878.86l.15-.85a3.69,3.69,0,0,1,4.26-3l1.3.22c4.44,0,8-5.81,8-12.43,0-6.28-3.2-11.83-7-12.44-.31.31-.62.63-1,.93l-.76.7a3.69,3.69,0,0,1-5.6-.73l-.57-.87c-4.29-6.69-7-11.34-9.56-15.85-1.32-2.29-2.63-4.57-4.16-7.12a53.34,53.34,0,0,1-6-15.85c-10.32,7.07-23.56,7.51-36.44,7.93-10,.33-19.5.65-27.27,3.94-10.43,4.42-14.32,7.68-19.26,16.25-.6,2.3-1.13,4.67-1.55,7l-.2,1.15a3.39,3.39,0,0,1-3.93,2.76l-2-.35c-4,0-7.63,5.85-7.63,12.51s3.61,12.5,7.72,12.5l2.51-.44a2.76,2.76,0,0,1,3.18,2.24l.31,1.76c5.63,32,27.8,55.15,52.71,55.15S1146.65,910.82,1152.29,878.86Z"/><path class="b49a9bf0-505f-40e0-b571-46003b04d874" d="M1121.76,949.3a62.31,62.31,0,0,1-1.75-10.38,51.45,51.45,0,0,1-40.86,0,63.35,63.35,0,0,1-1.75,10.38c-4.3,16.53-14.84,24.3-26.37,28.93a65.83,65.83,0,0,0,6.88,6,70.21,70.21,0,0,0,83.33,0,64.93,64.93,0,0,0,6.89-6C1136.6,973.6,1126.06,965.83,1121.76,949.3Z"/><path class="e2940fba-7627-491f-b4e9-56960649aa1c" d="M1196.68,1010.25c-1.65-19-15.07-22.51-31.78-26.86-2.35-.61-4.78-1.25-7.22-1.95a75.18,75.18,0,0,1-11,10.08,79.32,79.32,0,0,1-94.26,0,75.18,75.18,0,0,1-11-10.08c-2.44.7-4.87,1.34-7.22,1.95-16.71,4.35-30.14,7.85-31.78,26.86a4.51,4.51,0,0,1-3.17,3.88c9.57,25.05,50.82,43.9,100.27,43.9s90.7-18.85,100.27-43.9A4.49,4.49,0,0,1,1196.68,1010.25Z"/><path class="ba5e1fc5-1db9-428a-a00a-f5b2cbb3734b" d="M1199.69,991.52c-4.35-6.07-10.58-9.76-17.37-12.4a138.84,138.84,0,0,0-15.12-4.57c-15.66-4.08-29.68-7.74-35.5-23.78a53.31,53.31,0,0,1-2.82-16.64c15.22-10,26.88-27.77,31.65-49.88,8.36-1.37,14.62-10.3,14.62-21.45,0-9.09-4.16-16.71-10.22-19.95,5.27-8.73,6.92-19.2,3.92-28-3.37-9.89-12.37-17.39-22.39-18.67a26.06,26.06,0,0,0-8.16.29c-.17-.65-.38-1.34-.59-2-2.64-8.45-8.29-18.75-18.28-21.48-7.87-2.16-13.36-.77-19.18.7a55.79,55.79,0,0,1-14.9,2.18h-.4c-22.55,0-33,1.47-45.51,15.64-.85,1-1.63,1.95-2.37,3a35.92,35.92,0,0,0-6.64,28.45c1.34,6.88,4.66,13.26,8.57,16.89-.12.53-.26,1-.38,1.56-8.35,1.37-14.61,10.3-14.61,21.46s6.26,20.08,14.61,21.45c4.78,22.11,16.43,39.84,31.66,49.88a53.31,53.31,0,0,1-2.82,16.64c-5.82,16-19.84,19.7-35.5,23.78-4.59,1.19-9.32,2.43-13.84,4.09-7.29,2.67-14,6.43-18.66,12.88-3.21,4.47-5.42,10.24-6.08,17.85a4.58,4.58,0,0,0,4.55,5,4.65,4.65,0,0,0,4.55-4.11c1.64-19,15.07-22.51,31.78-26.86,2.35-.61,4.78-1.25,7.22-1.95a75.18,75.18,0,0,0,11,10.08,79.32,79.32,0,0,0,94.26,0,75.18,75.18,0,0,0,11-10.08c2.44.7,4.87,1.34,7.22,1.95,16.71,4.35,30.13,7.85,31.78,26.86a4.65,4.65,0,0,0,4.55,4.11,4.59,4.59,0,0,0,4.55-5C1205.12,1001.76,1202.91,996,1199.69,991.52ZM1046.87,878.86l-.31-1.76a2.76,2.76,0,0,0-3.18-2.24l-2.51.44c-4.11,0-7.72-5.84-7.72-12.5s3.61-12.5,7.63-12.51l2,.35a3.39,3.39,0,0,0,3.93-2.76l.2-1.15c.42-2.37,1-4.74,1.55-7,4.94-8.57,8.83-11.83,19.26-16.25,7.77-3.29,17.24-3.61,27.27-3.94,12.88-.42,26.12-.86,36.44-7.93a53.34,53.34,0,0,0,6,15.85c1.53,2.55,2.84,4.83,4.16,7.12,2.59,4.51,5.27,9.16,9.56,15.85l.57.87a3.69,3.69,0,0,0,5.6.73l.76-.7c.33-.3.64-.62,1-.93,3.82.61,7,6.16,7,12.44,0,6.62-3.57,12.43-8,12.43l-1.3-.22a3.69,3.69,0,0,0-4.26,3l-.15.85c-5.64,32-27.8,55.15-52.71,55.15S1052.5,910.82,1046.87,878.86Zm94.37,105.34a70.21,70.21,0,0,1-83.33,0,65.83,65.83,0,0,1-6.88-6c11.53-4.63,22.07-12.4,26.37-28.93a63.35,63.35,0,0,0,1.75-10.38,51.45,51.45,0,0,0,40.86,0,62.31,62.31,0,0,0,1.75,10.38c4.3,16.53,14.84,24.3,26.37,28.93A64.93,64.93,0,0,1,1141.24,984.2Z"/></g></svg>