<svg id="be329a6f-5bd7-4360-a08c-058f3dc3accc" data-name="Capa 1" xmlns="http://www.w3.org/2000/svg" xmlns:xlink="http://www.w3.org/1999/xlink" viewBox="0 0 1080 1080"><defs><style>.a3272dd9-ba98-4bcf-80de-a9e17d2019b5{fill:none;}.e253aa0e-3ce0-4b42-8121-06be7619acb2{fill:#00b5e2;}.b0260fa7-0d75-4016-96ae-4bc44d6f51c3{fill:#3c3c3b;}.e9acaa7d-2d79-4b50-b85f-9d4ab331d658{clip-path:url(#a64d7964-bd21-42d0-a81e-9e4a915a6d2c);}.b2cb214a-f76d-49db-bbaa-faa62d5fd427{fill:#fceaea;}.eebbf46c-f7e5-48b7-9198-66e15a3dc018{fill:#006691;}</style><clipPath id="a64d7964-bd21-42d0-a81e-9e4a915a6d2c"><circle class="a3272dd9-ba98-4bcf-80de-a9e17d2019b5" cx="538.63" cy="536.51" r="529.27"/></clipPath></defs><circle class="e253aa0e-3ce0-4b42-8121-06be7619acb2" cx="538.63" cy="536.51" r="529.27"/><path class="b0260fa7-0d75-4016-96ae-4bc44d6f51c3" d="M738.7,385.21H716.09V362.72c0-57.07-49.52-103.51-110.38-103.51S495.33,305.65,495.33,362.72v22.49H472.71c-8.38,0-15.17,6.38-15.17,14.24V607.32c0,7.11,5.55,13.13,13.06,14.1a1095.6,1095.6,0,0,0,135.11,8.21,1095.55,1095.55,0,0,0,135.1-8.21c7.51-1,13.07-7,13.07-14.1V399.45C753.88,391.59,747.08,385.21,738.7,385.21Zm-78.65,139a24.3,24.3,0,0,1,7.17,6.42,13.27,13.27,0,0,1,2.56,7.91,16.51,16.51,0,0,1-1.31,6.22,24.77,24.77,0,0,1-3.42,5.94,19.7,19.7,0,0,1-4.81,4.47,9.87,9.87,0,0,1-5.46,1.75,17.51,17.51,0,0,1-5.92-1.14,23.87,23.87,0,0,1-6.18-3.45l-18.95-13.52-1.58,1.08V562q0,9.33-3.55,14.4t-13,5.07c-6.06,0-10.24-1.69-12.57-5.07s-3.49-8.18-3.49-14.4V539.87l-1.31-1.08-19.47,13.52q-6.45,4.59-12.11,4.59a9.92,9.92,0,0,1-5.46-1.75,19.67,19.67,0,0,1-4.8-4.47,24.44,24.44,0,0,1-3.42-5.94,16.53,16.53,0,0,1-1.32-6.22,13.28,13.28,0,0,1,2.57-7.91,24.3,24.3,0,0,1,7.17-6.42l23.94-14.87v-1.63L551.9,493.36a25.37,25.37,0,0,1-7.5-6.55,13.18,13.18,0,0,1-2.77-8.05,15.38,15.38,0,0,1,1.45-6.22,27.12,27.12,0,0,1,3.62-5.94,19.94,19.94,0,0,1,4.93-4.46,9.83,9.83,0,0,1,5.26-1.76q5.54,0,12.63,4.87l18.69,13,1.31-1.08V452.26q0-8.5,3.49-13.72c2.33-3.47,6.51-5.2,12.57-5.2a20.17,20.17,0,0,1,7.89,1.35,12.87,12.87,0,0,1,5.13,3.85,14.86,14.86,0,0,1,2.77,5.95,35.35,35.35,0,0,1,.78,7.77v24.88l1.32,1.08,18.42-13q7.11-4.87,12.63-4.87a9.66,9.66,0,0,1,5.33,1.76,20.44,20.44,0,0,1,4.87,4.46,27.08,27.08,0,0,1,3.61,5.94,15.22,15.22,0,0,1,1.45,6.22,13.23,13.23,0,0,1-2.76,8.05,25.37,25.37,0,0,1-7.5,6.55L636.1,507.69v1.63Zm18.56-139H532.81V362.72c0-37.69,32.7-68.36,72.9-68.36s72.9,30.67,72.9,68.36Z"/><g class="e9acaa7d-2d79-4b50-b85f-9d4ab331d658"><path class="b2cb214a-f76d-49db-bbaa-faa62d5fd427" d="M296.29,634.6A15.14,15.14,0,0,1,304,622.85l8-3.74c.73-.75,9.5-6.25,16.64-9.84q5.82-4.26,11.9-8.13c39.65-25.43,87.1-39.43,134.15-43.84q14-1.32,27.9-1.52c10.22-.15,20.36.13,30.3.84,30.21,10.28,27.79,58.62-2.42,67.07-3.1,1-6.33,2-9.63,2.88-30.46,8.27-68.21,12.19-87.27,37.15a54.55,54.55,0,0,0-7.63,13.75c5.43,38.68,46,25.57,90.95,24.55,77.23-1.75,278.55-53,303.62-71.68,7.28-3.94,14.29-4.61,20.61-3,25.64,6.57,40,51,16.25,69.46a577.64,577.64,0,0,1-89.11,66.7q-8.46,5.16-17.07,10c-61.37,34.73-128.75,58.85-197.76,71.9q-7.7,1.35-15.55,2.46c-5,1.31-10.14,2.51-15.3,3.5-23.72,5.71-49.2,10.49-74.53,11.59a213.24,213.24,0,0,1-39.94-1.77c-5.86-.15-11.71-.25-17.55-.25-14.39-.81-29.61-1.92-44.53-4.38a184.67,184.67,0,0,1-28.47-6.87,45.35,45.35,0,0,1-21.37-38.51V636.08C296.19,635.58,296.25,635.1,296.29,634.6Z"/><path class="eebbf46c-f7e5-48b7-9198-66e15a3dc018" d="M274.47,857.76a20.5,20.5,0,0,0,20.5-20.5v-215a20.5,20.5,0,0,0-20.5-20.5H192.68a20.5,20.5,0,0,0-20.5,20.5v215a20.5,20.5,0,0,0,20.5,20.5Z"/><path class="eebbf46c-f7e5-48b7-9198-66e15a3dc018" d="M170.17,900.45c18.2,0,33-12.45,33-27.81V580.79c0-15.36-14.75-27.82-33-27.82H8.7c-18.2,0-32.95,12.46-32.95,27.82V872.64c0,15.36,14.75,27.81,33,27.81Z"/></g></svg>