<svg id="f27c5a16-890a-49bc-ab3a-357d56c23c29" data-name="Capa 1" xmlns="http://www.w3.org/2000/svg" viewBox="0 0 1080 1080"><defs><style>.ea449163-93ff-46c2-98a1-3a15032c0e9b{fill:#00b5e2;}.ba196d5b-1a90-4f58-8d7d-46c830eaba6b{fill:#fff;}.a0e8fe3a-74ee-43b4-a617-b657ca175e6a{fill:#ffec36;}.e7885866-b1b8-4454-86f8-450754653e89{fill:#006691;}</style></defs><circle class="ea449163-93ff-46c2-98a1-3a15032c0e9b" cx="538.63" cy="536.51" r="529.27"/><path class="ba196d5b-1a90-4f58-8d7d-46c830eaba6b" d="M668.45,408.58l-24.19,5.1-5.07-24.06c-12.87-61.07-76.32-99.58-141.43-85.86S390.13,378.32,403,439.39l5.07,24.06-24.19,5.1c-9,1.89-14.8,10.24-13,18.65l46.87,222.4c1.6,7.61,8.9,12.8,17.15,12.13a1196.2,1196.2,0,0,0,146.4-21.67A1195.86,1195.86,0,0,0,724,660.81c7.82-2.72,12.4-10.41,10.8-18l-46.87-222.4C686.12,412,677.42,406.69,668.45,408.58ZM615.63,575a26.38,26.38,0,0,1,9.12,5.26,14.46,14.46,0,0,1,4.53,7.87,17.85,17.85,0,0,1,0,7,26.77,26.77,0,0,1-2.31,7.14,21.65,21.65,0,0,1-4.14,5.86,10.81,10.81,0,0,1-5.44,3.11,19,19,0,0,1-6.6.1,25.53,25.53,0,0,1-7.39-2.29l-23.32-10.19-1.44,1.51,5,23.72q2.1,10-.56,16.21t-12.79,8.35c-6.48,1.37-11.33.51-14.59-2.59s-5.57-8-7-14.61l-5-23.73-1.65-.85-17.79,18.85q-5.85,6.38-11.91,7.65a10.88,10.88,0,0,1-6.24-.65A21.59,21.59,0,0,1,500,629a26.47,26.47,0,0,1-5-5.59,18,18,0,0,1-2.82-6.35,14.46,14.46,0,0,1,1-9,26.63,26.63,0,0,1,6.22-8.49l22.27-21.31-.37-1.74L493,566.4a27.62,27.62,0,0,1-9.5-5.32,14.36,14.36,0,0,1-4.78-8,16.88,16.88,0,0,1,.15-7,29.86,29.86,0,0,1,2.53-7.18,22.21,22.21,0,0,1,4.27-5.89,10.76,10.76,0,0,1,5.24-3.06q5.91-1.25,14.61,2.36L528.41,542l1.16-1.46L524,514q-1.92-9.11.64-15.47t12.26-8.4a22.07,22.07,0,0,1,8.76-.33,14.16,14.16,0,0,1,6.36,3,16.37,16.37,0,0,1,4.29,5.74,38.37,38.37,0,0,1,2.6,8.14l5.61,26.62,1.65.86,16.78-18q6.5-6.81,12.42-8a10.48,10.48,0,0,1,6.09.68,22.43,22.43,0,0,1,6.22,3.67,29.58,29.58,0,0,1,5.21,5.55,16.77,16.77,0,0,1,2.95,6.33,14.47,14.47,0,0,1-1.14,9.23,28,28,0,0,1-6.55,8.7l-21.83,20.61.37,1.74ZM604.16,422.13,448.17,455l-5.07-24.06c-8.5-40.33,19.57-80.52,62.58-89.58s84.91,16.38,93.41,56.71Z"/><path class="a0e8fe3a-74ee-43b4-a617-b657ca175e6a" d="M769.46,308.54a20.55,20.55,0,0,1,15.39-6.26q23.63,0,37.94-11.1t14.31-34.36q0-17.88-12.88-29.7T792,215.31a51,51,0,0,0-34.72,13.24q-8.58,7.88-17.89,7.87a19,19,0,0,1-12.17-4.29q-9.32-7.15-9.31-16.82,0-8.24,6.8-15A91.26,91.26,0,0,1,755,179.7a94.14,94.14,0,0,1,37-7.34,90.09,90.09,0,0,1,44.38,11.1,84.24,84.24,0,0,1,31.85,30.6,81,81,0,0,1,11.81,42.76q0,34.37-19.68,54.4t-52.26,25.06c-1.19.48-1.79,1.07-1.79,1.79v13.24a21.5,21.5,0,0,1-6.08,15.57,22,22,0,0,1-30.78,0,21.46,21.46,0,0,1-6.08-15.57v-27.2A21.46,21.46,0,0,1,769.46,308.54Zm-2.33,123.11q-5.55-5.53-5.54-15.92v-6.09q0-10.36,5.54-15.92t15.93-5.55h4.65q10.38,0,15.93,5.55t5.55,15.92v6.09q0,10.38-5.55,15.92t-15.93,5.55h-4.65Q772.68,437.2,767.13,431.65Z"/><path class="e7885866-b1b8-4454-86f8-450754653e89" d="M288.07,689.42a21.25,21.25,0,0,1-12.83,11.42q-23,8.19-33.12,23.95t-2.06,38.43q6.19,17.43,22.84,24.49t35.47.36a52.72,52.72,0,0,0,29.24-24.93q5.65-10.64,14.72-13.86a19.6,19.6,0,0,1,13.34,0q11.55,3.75,14.89,13.17,2.85,8-1.42,17a94.49,94.49,0,0,1-22.35,30.52,97.28,97.28,0,0,1-33.55,20,93.15,93.15,0,0,1-47.09,4.55,87.24,87.24,0,0,1-41.63-18.79,83.78,83.78,0,0,1-26.31-37.58q-11.9-33.48.35-59.82t42.24-42.5c1-.88,1.38-1.67,1.13-2.37l-4.59-12.9a22.24,22.24,0,0,1,.54-17.27,22.8,22.8,0,0,1,30-10.66,22.18,22.18,0,0,1,11.32,13.07l9.42,26.5A22.22,22.22,0,0,1,288.07,689.42ZM247.72,568.65q7.32,3.48,10.92,13.59l2.1,5.93q3.6,10.11.11,17.44t-13.6,10.92l-4.53,1.61q-10.11,3.58-17.44.11t-10.92-13.6l-2.11-5.93q-3.58-10.12-.1-17.44t13.6-10.92l4.53-1.61Q240.39,565.17,247.72,568.65Z"/></svg>