<svg id="ae82bc0e-83d4-44f3-a90e-32560153a917" data-name="Capa 1" xmlns="http://www.w3.org/2000/svg" viewBox="0 0 800 800"><defs><style>.a6b6b4d7-311d-4f1c-a60d-5c4a2205255c{fill:#006691;}.ee4878f5-22ee-4b35-8985-df2ab4301f5a{fill:#fff;}</style></defs><g id="b2da1496-7380-4525-a92c-f044ce3f5243" data-name="6"><path class="a6b6b4d7-311d-4f1c-a60d-5c4a2205255c" d="M559.48,407.1a118.68,118.68,0,1,0,69.12,153A118.82,118.82,0,0,0,559.48,407.1Zm49.08,145.38a97.27,97.27,0,1,1-56.64-125.35A97.38,97.38,0,0,1,608.56,552.48Z"/><path class="a6b6b4d7-311d-4f1c-a60d-5c4a2205255c" d="M536.66,467.54a54.08,54.08,0,1,0,31.49,69.69A54.15,54.15,0,0,0,536.66,467.54Zm11.46,62.12h0a32.65,32.65,0,1,1-19-42.1A32.69,32.69,0,0,1,548.12,529.67Z"/><path class="ee4878f5-22ee-4b35-8985-df2ab4301f5a" d="M708,550.46l-19.19-7.24a173.77,173.77,0,0,0-2-61l18.73-8.46A10.72,10.72,0,0,0,711,459.62l-21.68-48a10.7,10.7,0,0,0-14.17-5.35l-18.72,8.46A173.42,173.42,0,0,0,611.94,373l7.25-19.2A10.71,10.71,0,0,0,613,340L563.7,321.42a10.7,10.7,0,0,0-13.8,6.23l-7.25,19.19a174,174,0,0,0-61,2l-8.46-18.72a10.72,10.72,0,0,0-14.17-5.35l-48,21.67a10.71,10.71,0,0,0-5.35,14.17l8.46,18.72a173.67,173.67,0,0,0-41.76,44.46l-19.19-7.25a10.7,10.7,0,0,0-13.8,6.24L320.85,472a10.71,10.71,0,0,0,6.24,13.8L346.28,493a173.53,173.53,0,0,0,2,61l-18.73,8.46a10.72,10.72,0,0,0-5.35,14.17l21.68,48A10.7,10.7,0,0,0,360,630l18.72-8.46a173.64,173.64,0,0,0,44.46,41.75l-7.25,19.2a10.71,10.71,0,0,0,6.23,13.8l49.26,18.59a10.71,10.71,0,0,0,13.8-6.23l7.25-19.19a174,174,0,0,0,60.95-2l8.47,18.72a10.71,10.71,0,0,0,14.16,5.35l48-21.67a10.71,10.71,0,0,0,5.35-14.17L620.93,657a173.81,173.81,0,0,0,41.76-44.45l19.19,7.25a10.71,10.71,0,0,0,13.8-6.24l18.6-49.26A10.72,10.72,0,0,0,708,550.46Zm-28.61,45.48L662,589.34A10.73,10.73,0,0,0,648.91,594a151.88,151.88,0,0,1-47.31,50.38,10.7,10.7,0,0,0-3.83,13.32l7.69,17L577,687.61l-7.7-17a10.68,10.68,0,0,0-12.53-5.93,151.82,151.82,0,0,1-69.06,2.21,10.77,10.77,0,0,0-12.14,6.71L469,691l-29.22-11,6.6-17.45a10.72,10.72,0,0,0-4.68-13.07,151.71,151.71,0,0,1-50.36-47.31A10.72,10.72,0,0,0,378,598.33L361,606l-12.86-28.46,17-7.7a10.71,10.71,0,0,0,5.93-12.53,151.86,151.86,0,0,1-2.21-69.07,10.71,10.71,0,0,0-6.71-12.14l-17.46-6.59,11-29.22,17.46,6.6a10.71,10.71,0,0,0,13.06-4.67,151.56,151.56,0,0,1,47.31-50.37,10.71,10.71,0,0,0,3.83-13.33l-7.69-17,28.45-12.85,7.7,17a10.71,10.71,0,0,0,12.54,5.93,152,152,0,0,1,69.06-2.21,10.74,10.74,0,0,0,12.14-6.72l6.59-17.46,29.22,11-6.59,17.46a10.7,10.7,0,0,0,4.67,13.06,151.74,151.74,0,0,1,50.37,47.31,10.72,10.72,0,0,0,13.33,3.83l17-7.7L687,458.69l-17,7.7a10.7,10.7,0,0,0-5.94,12.53A151.72,151.72,0,0,1,666.29,548,10.71,10.71,0,0,0,673,560.13l17.46,6.59Z"/><path class="ee4878f5-22ee-4b35-8985-df2ab4301f5a" d="M263.78,196.89a75.85,75.85,0,1,0,75.85,75.84A75.93,75.93,0,0,0,263.78,196.89Zm0,130.28a54.44,54.44,0,1,1,54.43-54.44A54.5,54.5,0,0,1,263.78,327.17Z"/><path class="a6b6b4d7-311d-4f1c-a60d-5c4a2205255c" d="M130.31,550.5a10.7,10.7,0,0,0,13.56-6.74,62.36,62.36,0,0,1,20.85-29.41,10.7,10.7,0,1,0-13.17-16.88,83.6,83.6,0,0,0-28,39.47A10.7,10.7,0,0,0,130.31,550.5Z"/><path class="a6b6b4d7-311d-4f1c-a60d-5c4a2205255c" d="M144.59,585.59a10.71,10.71,0,1,0-20,7.52,83.72,83.72,0,0,0,29.35,38.47,10.71,10.71,0,1,0,12.58-17.33A62.47,62.47,0,0,1,144.59,585.59Z"/><path class="a6b6b4d7-311d-4f1c-a60d-5c4a2205255c" d="M204.85,479.78a10.59,10.59,0,0,0-10.92,10.49,10.72,10.72,0,0,0,10.48,10.93,62.14,62.14,0,0,1,34.26,11.09,10.71,10.71,0,0,0,12.22-17.59A83.49,83.49,0,0,0,204.85,479.78Z"/><path class="a6b6b4d7-311d-4f1c-a60d-5c4a2205255c" d="M270.43,533a10.7,10.7,0,0,0-7.31,13.26,62.94,62.94,0,0,1-.38,36,10.69,10.69,0,0,0,7,13.41,10.39,10.39,0,0,0,3.19.49,10.71,10.71,0,0,0,10.22-7.51,84.42,84.42,0,0,0,.51-48.38A10.71,10.71,0,0,0,270.43,533Z"/><path class="a6b6b4d7-311d-4f1c-a60d-5c4a2205255c" d="M237.59,615.72A62.13,62.13,0,0,1,203.1,626.1a10.71,10.71,0,0,0,0,21.42,83.57,83.57,0,0,0,46.34-13.95,10.71,10.71,0,0,0-11.85-17.85Z"/><path class="a6b6b4d7-311d-4f1c-a60d-5c4a2205255c" d="M626.92,235.34a10.72,10.72,0,0,0,13.65-6.57A92.3,92.3,0,0,0,644,181a10.71,10.71,0,0,0-21,4.06,70.57,70.57,0,0,1-2.66,36.63A10.72,10.72,0,0,0,626.92,235.34Z"/><path class="a6b6b4d7-311d-4f1c-a60d-5c4a2205255c" d="M589.46,259.14a70.6,70.6,0,0,1-43.5,9.12,10.71,10.71,0,1,0-2.44,21.28,94.49,94.49,0,0,0,10.5.6,91.54,91.54,0,0,0,46.26-12.52,10.71,10.71,0,1,0-10.82-18.48Z"/><path class="a6b6b4d7-311d-4f1c-a60d-5c4a2205255c" d="M564.22,128.91a70,70,0,0,1,33.66,14.63,10.71,10.71,0,1,0,13.38-16.72,91.32,91.32,0,0,0-44-19.1,10.71,10.71,0,1,0-3.07,21.19Z"/><path class="a6b6b4d7-311d-4f1c-a60d-5c4a2205255c" d="M477.29,170.33a10.59,10.59,0,0,0,5,1.23,10.71,10.71,0,0,0,9.49-5.73,70.73,70.73,0,0,1,25-27,10.71,10.71,0,1,0-11.38-18.14,92.09,92.09,0,0,0-32.55,35.14A10.71,10.71,0,0,0,477.29,170.33Z"/><path class="a6b6b4d7-311d-4f1c-a60d-5c4a2205255c" d="M487,261a10.7,10.7,0,1,0,15.65-14.61A70.16,70.16,0,0,1,485.46,214a10.71,10.71,0,0,0-20.9,4.7A91.55,91.55,0,0,0,487,261Z"/><path class="a6b6b4d7-311d-4f1c-a60d-5c4a2205255c" d="M554,241.06a42.61,42.61,0,1,0-42.61-42.61A42.66,42.66,0,0,0,554,241.06Zm0-63.8a21.19,21.19,0,1,1-21.2,21.19A21.21,21.21,0,0,1,554,177.26Z"/><path class="ee4878f5-22ee-4b35-8985-df2ab4301f5a" d="M343.83,402.17a10.72,10.72,0,0,0,15.15,0l34.23-34.24a10.71,10.71,0,0,0,0-15.14L375,334.53a125.51,125.51,0,0,0,11.18-26.87h25.78A10.72,10.72,0,0,0,422.62,297V248.52a10.71,10.71,0,0,0-10.71-10.7H386.13A125.38,125.38,0,0,0,375,210.94l18.26-18.26a10.71,10.71,0,0,0,0-15.14L359,143.31a10.7,10.7,0,0,0-15.15,0l-18.26,18.25a125.57,125.57,0,0,0-26.87-11.17V124.61A10.72,10.72,0,0,0,288,113.9H239.57a10.71,10.71,0,0,0-10.7,10.71v25.78A125.43,125.43,0,0,0,202,161.56l-18.26-18.25a10.69,10.69,0,0,0-15.14,0l-34.24,34.23a10.71,10.71,0,0,0,0,15.14l18.26,18.26a126.41,126.41,0,0,0-11.18,26.88H115.65a10.71,10.71,0,0,0-10.71,10.7V297a10.72,10.72,0,0,0,10.71,10.71h25.78a126.54,126.54,0,0,0,11.18,26.87l-18.26,18.26a10.71,10.71,0,0,0,0,15.14l34.24,34.24a10.71,10.71,0,0,0,15.14,0L202,383.91a125.43,125.43,0,0,0,26.88,11.17v25.79a10.7,10.7,0,0,0,10.7,10.7H288a10.71,10.71,0,0,0,10.71-10.7V395.08a125.57,125.57,0,0,0,26.87-11.17Zm-58.06-25.93a10.71,10.71,0,0,0-8.49,10.48v23.44h-27V386.72a10.71,10.71,0,0,0-8.49-10.48,105,105,0,0,1-35.61-14.8,10.72,10.72,0,0,0-13.41,1.4l-16.61,16.62-19.1-19.1,16.62-16.61a10.73,10.73,0,0,0,1.4-13.42,104.84,104.84,0,0,1-14.8-35.6,10.71,10.71,0,0,0-10.48-8.49H126.36v-27H149.8a10.71,10.71,0,0,0,10.48-8.49,104.84,104.84,0,0,1,14.8-35.6,10.73,10.73,0,0,0-1.4-13.42l-16.62-16.61L176.16,166l16.61,16.61a10.69,10.69,0,0,0,13.41,1.4,105.21,105.21,0,0,1,35.61-14.8,10.7,10.7,0,0,0,8.49-10.48V135.32h27v23.43a10.7,10.7,0,0,0,8.49,10.48A105,105,0,0,1,321.38,184a10.69,10.69,0,0,0,13.41-1.4L351.4,166l19.1,19.09-16.61,16.61a10.72,10.72,0,0,0-1.41,13.42,104.64,104.64,0,0,1,14.8,35.6,10.71,10.71,0,0,0,10.48,8.49H401.2v27H377.76a10.71,10.71,0,0,0-10.48,8.49,104.64,104.64,0,0,1-14.8,35.6,10.72,10.72,0,0,0,1.41,13.42l16.61,16.61-19.1,19.1-16.61-16.62a10.71,10.71,0,0,0-13.41-1.4A104.84,104.84,0,0,1,285.77,376.24Z"/></g></svg>