<svg xmlns="http://www.w3.org/2000/svg" viewBox="0 0 2400 1800"><defs><style>.a047c93d-2fcb-4a58-8ac9-267cd399b41c,.a05258fb-c10a-49fd-a083-71966c835ca6,.a880c792-1a0d-461a-aef8-0978b1a07684,.aa6c80b6-951b-4ba9-8dc8-b27c591cc33d,.ac179268-7d98-4ad3-afa6-82e4d254f8af,.ae04ded3-bdee-4817-b3d3-1c226f94bd17,.aea99096-b7c9-4bd4-8f66-6d5856333d9e,.b2390bc1-379d-4061-9a1c-35ddcef9591e,.b3bbb5df-796c-4cc1-bde1-f3c9745785a2,.b490d3c9-ba88-4941-b7ec-1a4a903a496e,.b54b93dc-5010-4aa6-8762-e1d2be36a5c6,.b74e27eb-88c1-4ead-b59a-b0c983b3e2c1,.b895d878-a3b1-46db-b806-f72f66e82953,.b95db18e-efbe-43ea-b235-b29f5ac097e6,.bc5c0a75-5855-4826-8652-37b0a6160e40,.e440e147-14da-41bc-a58b-02516c507707,.f4807bb9-ef56-4a5a-be5f-2012f63ab53d,.f5d05e13-dca0-41c9-b29f-46edc8f0c0e4,.f6581991-2bfc-48a0-9f65-0a745a72bdb5,.fa269579-af20-44e6-9a46-be16d73ecd15{fill:none;}.a047c93d-2fcb-4a58-8ac9-267cd399b41c,.ac179268-7d98-4ad3-afa6-82e4d254f8af,.ae04ded3-bdee-4817-b3d3-1c226f94bd17,.b2390bc1-379d-4061-9a1c-35ddcef9591e,.b3bbb5df-796c-4cc1-bde1-f3c9745785a2,.b95db18e-efbe-43ea-b235-b29f5ac097e6,.bc5c0a75-5855-4826-8652-37b0a6160e40,.f4807bb9-ef56-4a5a-be5f-2012f63ab53d,.f5d05e13-dca0-41c9-b29f-46edc8f0c0e4,.f6581991-2bfc-48a0-9f65-0a745a72bdb5{stroke:#e62a32;}.a047c93d-2fcb-4a58-8ac9-267cd399b41c,.a05258fb-c10a-49fd-a083-71966c835ca6,.a880c792-1a0d-461a-aef8-0978b1a07684,.ac179268-7d98-4ad3-afa6-82e4d254f8af,.ae04ded3-bdee-4817-b3d3-1c226f94bd17,.aea99096-b7c9-4bd4-8f66-6d5856333d9e,.b2390bc1-379d-4061-9a1c-35ddcef9591e,.b3bbb5df-796c-4cc1-bde1-f3c9745785a2,.b490d3c9-ba88-4941-b7ec-1a4a903a496e,.b54b93dc-5010-4aa6-8762-e1d2be36a5c6,.b74e27eb-88c1-4ead-b59a-b0c983b3e2c1,.b895d878-a3b1-46db-b806-f72f66e82953,.b95db18e-efbe-43ea-b235-b29f5ac097e6,.bc5c0a75-5855-4826-8652-37b0a6160e40,.e440e147-14da-41bc-a58b-02516c507707,.f4807bb9-ef56-4a5a-be5f-2012f63ab53d,.f5d05e13-dca0-41c9-b29f-46edc8f0c0e4,.f6581991-2bfc-48a0-9f65-0a745a72bdb5,.fa269579-af20-44e6-9a46-be16d73ecd15{stroke-linecap:round;stroke-linejoin:round;stroke-width:16px;}.b2390bc1-379d-4061-9a1c-35ddcef9591e{stroke-dasharray:1.04 33.19;}.ac179268-7d98-4ad3-afa6-82e4d254f8af{stroke-dasharray:1.01 32.31;}.f4807bb9-ef56-4a5a-be5f-2012f63ab53d{stroke-dasharray:0.98 31.41;}.b95db18e-efbe-43ea-b235-b29f5ac097e6{stroke-dasharray:0.9 28.66;}.a05258fb-c10a-49fd-a083-71966c835ca6,.a880c792-1a0d-461a-aef8-0978b1a07684,.aea99096-b7c9-4bd4-8f66-6d5856333d9e,.b490d3c9-ba88-4941-b7ec-1a4a903a496e,.b54b93dc-5010-4aa6-8762-e1d2be36a5c6,.b74e27eb-88c1-4ead-b59a-b0c983b3e2c1,.b895d878-a3b1-46db-b806-f72f66e82953,.e440e147-14da-41bc-a58b-02516c507707,.fa269579-af20-44e6-9a46-be16d73ecd15{stroke:#3c3c3b;}.aea99096-b7c9-4bd4-8f66-6d5856333d9e{stroke-dasharray:1.01 32.43;}.fa269579-af20-44e6-9a46-be16d73ecd15{stroke-dasharray:1 32.02;}.b74e27eb-88c1-4ead-b59a-b0c983b3e2c1{stroke-dasharray:0.97 30.96;}.b490d3c9-ba88-4941-b7ec-1a4a903a496e{stroke-dasharray:0.85 27.2;}.b895d878-a3b1-46db-b806-f72f66e82953{stroke-dasharray:0.98 31.37;}.a880c792-1a0d-461a-aef8-0978b1a07684{stroke-dasharray:0.98 31.31;}.b54b93dc-5010-4aa6-8762-e1d2be36a5c6{stroke-dasharray:1.04 33.14;}.ef7a3239-9ece-4ff4-a987-73e689086d6d{fill:#fff;}.a047c93d-2fcb-4a58-8ac9-267cd399b41c{stroke-dasharray:1.02 32.55;}.f6581991-2bfc-48a0-9f65-0a745a72bdb5{stroke-dasharray:1 31.92;}.f5d05e13-dca0-41c9-b29f-46edc8f0c0e4{stroke-dasharray:1.04 33.19;}.ae04ded3-bdee-4817-b3d3-1c226f94bd17{stroke-dasharray:1.03 33.03;}.bc5c0a75-5855-4826-8652-37b0a6160e40,.e440e147-14da-41bc-a58b-02516c507707{stroke-dasharray:1 32;}.bd1bab50-591a-48f2-b0d6-62acb4aced0c{fill:#e62a32;}.baff1777-ca62-4ccc-9089-da764deaaaeb{fill:#00b5e2;}.f0917007-0f48-4296-956b-92beb1f32029{fill:#3c3c3b;}.f168d487-ce73-42b6-bc27-d31fd0e14308{fill:#ffec36;}.f508ae90-2f05-4419-974b-8457f2cd99ad{font-size:32px;font-family:Poppins-Regular, Poppins;}.a4571478-ed1b-4362-b724-187c00b855cf{font-family:Wingdings3, "Wingdings 3";}.f7b3b6d3-3d67-4b8a-bea6-9328deeda1b9{fill:#fceaea;}.bbdc9c20-3424-4434-8580-a871ede9831d{fill:#006691;}.bf6333ed-d8d3-411d-a416-95c7ed34b4d6{fill:#2a343f;}</style></defs><g id="abe6810d-eb60-4a82-8801-d010415bb7b1" data-name="Lineas"><line class="b3bbb5df-796c-4cc1-bde1-f3c9745785a2" x1="1361.7" y1="328.11" x2="1362.2" y2="328.11"/><line class="b2390bc1-379d-4061-9a1c-35ddcef9591e" x1="1395.39" y1="328.11" x2="1652.64" y2="328.11"/><line class="b3bbb5df-796c-4cc1-bde1-f3c9745785a2" x1="1669.24" y1="328.11" x2="1669.74" y2="328.11"/><line class="b3bbb5df-796c-4cc1-bde1-f3c9745785a2" x1="618.09" y1="814.02" x2="618.59" y2="814.02"/><line class="ac179268-7d98-4ad3-afa6-82e4d254f8af" x1="650.9" y1="814.02" x2="934.65" y2="814.02"/><polyline class="b3bbb5df-796c-4cc1-bde1-f3c9745785a2" points="950.8 814.02 951.3 814.02 951.3 813.52"/><line class="f4807bb9-ef56-4a5a-be5f-2012f63ab53d" x1="951.3" y1="782.11" x2="951.3" y2="344.31"/><polyline class="b3bbb5df-796c-4cc1-bde1-f3c9745785a2" points="951.3 328.61 951.3 328.11 951.8 328.11"/><line class="b95db18e-efbe-43ea-b235-b29f5ac097e6" x1="980.46" y1="328.11" x2="1084.36" y2="328.11"/><line class="b3bbb5df-796c-4cc1-bde1-f3c9745785a2" x1="1098.69" y1="328.11" x2="1099.19" y2="328.11"/><line class="a05258fb-c10a-49fd-a083-71966c835ca6" x1="1354.96" y1="397.12" x2="1355.46" y2="397.12"/><line class="aea99096-b7c9-4bd4-8f66-6d5856333d9e" x1="1387.9" y1="397.12" x2="1773.04" y2="397.12"/><line class="a05258fb-c10a-49fd-a083-71966c835ca6" x1="1789.25" y1="397.12" x2="1789.75" y2="397.12"/><line class="a05258fb-c10a-49fd-a083-71966c835ca6" x1="618.09" y1="876.03" x2="618.59" y2="876.03"/><line class="fa269579-af20-44e6-9a46-be16d73ecd15" x1="650.61" y1="876.03" x2="997.8" y2="876.03"/><polyline class="a05258fb-c10a-49fd-a083-71966c835ca6" points="1013.81 876.03 1014.31 876.03 1014.31 875.53"/><line class="b74e27eb-88c1-4ead-b59a-b0c983b3e2c1" x1="1014.31" y1="844.57" x2="1014.31" y2="413.09"/><polyline class="a05258fb-c10a-49fd-a083-71966c835ca6" points="1014.31 397.62 1014.31 397.12 1014.81 397.12"/><line class="b490d3c9-ba88-4941-b7ec-1a4a903a496e" x1="1042.01" y1="397.12" x2="1084.51" y2="397.12"/><line class="a05258fb-c10a-49fd-a083-71966c835ca6" x1="1098.11" y1="397.12" x2="1098.61" y2="397.12"/><line class="a05258fb-c10a-49fd-a083-71966c835ca6" x1="1369.21" y1="1594.92" x2="1369.71" y2="1594.92"/><line class="b895d878-a3b1-46db-b806-f72f66e82953" x1="1401.08" y1="1594.92" x2="1773.57" y2="1594.92"/><line class="a05258fb-c10a-49fd-a083-71966c835ca6" x1="1789.25" y1="1594.92" x2="1789.75" y2="1594.92"/><line class="a05258fb-c10a-49fd-a083-71966c835ca6" x1="618.09" y1="1046" x2="618.59" y2="1046"/><line class="fa269579-af20-44e6-9a46-be16d73ecd15" x1="650.61" y1="1046" x2="997.8" y2="1046"/><polyline class="a05258fb-c10a-49fd-a083-71966c835ca6" points="1013.81 1046 1014.31 1046 1014.31 1046.5"/><line class="a880c792-1a0d-461a-aef8-0978b1a07684" x1="1014.31" y1="1077.81" x2="1014.31" y2="1578.77"/><polyline class="a05258fb-c10a-49fd-a083-71966c835ca6" points="1014.31 1594.42 1014.31 1594.92 1014.81 1594.92"/><line class="b54b93dc-5010-4aa6-8762-e1d2be36a5c6" x1="1047.96" y1="1594.92" x2="1065.56" y2="1594.92"/><line class="a05258fb-c10a-49fd-a083-71966c835ca6" x1="1082.14" y1="1594.92" x2="1082.64" y2="1594.92"/><circle class="ef7a3239-9ece-4ff4-a987-73e689086d6d" cx="1014.41" cy="1562.04" r="18.08"/><line class="b3bbb5df-796c-4cc1-bde1-f3c9745785a2" x1="1300.52" y1="1557.73" x2="1301.02" y2="1557.73"/><line class="a047c93d-2fcb-4a58-8ac9-267cd399b41c" x1="1333.57" y1="1557.73" x2="1652.97" y2="1557.73"/><line class="b3bbb5df-796c-4cc1-bde1-f3c9745785a2" x1="1669.24" y1="1557.73" x2="1669.74" y2="1557.73"/><line class="b3bbb5df-796c-4cc1-bde1-f3c9745785a2" x1="618.09" y1="1112.83" x2="618.59" y2="1112.83"/><line class="f6581991-2bfc-48a0-9f65-0a745a72bdb5" x1="650.51" y1="1112.83" x2="930.84" y2="1112.83"/><polyline class="b3bbb5df-796c-4cc1-bde1-f3c9745785a2" points="946.8 1112.83 947.3 1112.83 947.3 1113.33"/><line class="f5d05e13-dca0-41c9-b29f-46edc8f0c0e4" x1="947.3" y1="1146.51" x2="947.3" y2="1540.64"/><polyline class="b3bbb5df-796c-4cc1-bde1-f3c9745785a2" points="947.3 1557.23 947.3 1557.73 947.8 1557.73"/><line class="ae04ded3-bdee-4817-b3d3-1c226f94bd17" x1="980.83" y1="1557.73" x2="1134.63" y2="1557.73"/><line class="b3bbb5df-796c-4cc1-bde1-f3c9745785a2" x1="1151.14" y1="1557.73" x2="1151.64" y2="1557.73"/><line class="e440e147-14da-41bc-a58b-02516c507707" x1="1381.8" y1="994.63" x2="1821.39" y2="994.63"/><line class="e440e147-14da-41bc-a58b-02516c507707" x1="618.09" y1="994.63" x2="1099.19" y2="994.63"/><line class="bc5c0a75-5855-4826-8652-37b0a6160e40" x1="1322.64" y1="934.4" x2="1655.38" y2="934.4"/><line class="bc5c0a75-5855-4826-8652-37b0a6160e40" x1="618.09" y1="934.4" x2="1129.19" y2="936.09"/></g><g id="b0315b7f-47b7-49f2-be78-5b97fd717235" data-name="Capa 3"><path class="bd1bab50-591a-48f2-b0d6-62acb4aced0c" d="M1902.15,1328.87l-102.5-.06a11.67,11.67,0,0,0-11.67,11.68l-.08,148.64a11.65,11.65,0,0,0,11.65,11.68l102.5.06a11.69,11.69,0,0,0,11.68-11.67l.09-148.64A11.69,11.69,0,0,0,1902.15,1328.87Zm-51.34,167.6a6.94,6.94,0,1,1,6.94-6.93A6.94,6.94,0,0,1,1850.81,1496.47Zm47.38-19.92-94.73-.06a3.74,3.74,0,0,1-3.74-3.75l.07-126.15a3.74,3.74,0,0,1,3.75-3.74l94.73.06a3.74,3.74,0,0,1,3.74,3.74l-.08,126.15A3.74,3.74,0,0,1,1898.19,1476.55Z"/><path class="baff1777-ca62-4ccc-9089-da764deaaaeb" d="M1975.25,1638.51h247.89c3.4,0,5.58-3.16,5.58-6.55V1460.9a5.31,5.31,0,0,0-5.59-5.68H1975.25c-3.39,0-6.19,2.29-6.19,5.68V1632A6.55,6.55,0,0,0,1975.25,1638.51Zm6.22-163.19c0-3.73,4.6-6.9,8.11-6.9h220.15c3.51,0,4.32,3.17,4.32,6.9V1617.4c0,3.72-.81,5.23-4.32,5.23H1989.58c-3.51,0-8.11-1.51-8.11-5.23Z"/><path class="baff1777-ca62-4ccc-9089-da764deaaaeb" d="M2243.13,1644.12H1953.66a7.59,7.59,0,0,0,0,15.17h289.47a7.59,7.59,0,0,0,0-15.17Z"/><path class="baff1777-ca62-4ccc-9089-da764deaaaeb" d="M1992.5,676.07,1890,676a11.65,11.65,0,0,0-11.67,11.67l-.09,148.65A11.66,11.66,0,0,0,1889.9,848l102.5.06a11.68,11.68,0,0,0,11.67-11.67l.09-148.64A11.67,11.67,0,0,0,1992.5,676.07Zm-51.35,167.59a6.94,6.94,0,1,1,6.95-6.92A6.93,6.93,0,0,1,1941.15,843.66Zm47.38-19.92-94.73,0a3.75,3.75,0,0,1-3.74-3.75l.07-126.15a3.74,3.74,0,0,1,3.75-3.74l94.73.05a3.74,3.74,0,0,1,3.74,3.75L1992.28,820A3.74,3.74,0,0,1,1988.53,823.74Z"/><path class="bd1bab50-591a-48f2-b0d6-62acb4aced0c" d="M1850.37,793.89H1794.3a9.7,9.7,0,0,0-9.69,9.72V917.45a9.69,9.69,0,0,0,9.69,9.7h56.07a9.71,9.71,0,0,0,9.7-9.7V803.61A9.71,9.71,0,0,0,1850.37,793.89ZM1844,800a2.48,2.48,0,1,1-2.48,2.48A2.49,2.49,0,0,1,1844,800ZM1832.3,916.8h-19.93a1.88,1.88,0,0,1-1.88-1.87v-3.54a1.88,1.88,0,0,1,1.88-1.87h19.93a1.87,1.87,0,0,1,1.87,1.87v3.54A1.87,1.87,0,0,1,1832.3,916.8Zm18.63-14.94h-57.18a1.87,1.87,0,0,1-1.87-1.87V812.15a1.87,1.87,0,0,1,1.87-1.87h57.18a1.87,1.87,0,0,1,1.87,1.87V900A1.87,1.87,0,0,1,1850.93,901.86Z"/><path class="ef7a3239-9ece-4ff4-a987-73e689086d6d" d="M1810.76,800.91a1.42,1.42,0,0,0-1.42,1.42h0a1.42,1.42,0,0,0,1.42,1.42h23.16a1.43,1.43,0,0,0,1.42-1.42h0a1.43,1.43,0,0,0-1.42-1.42"/><path class="ef7a3239-9ece-4ff4-a987-73e689086d6d" d="M1844,804.93a2.48,2.48,0,1,0-2.48-2.48A2.49,2.49,0,0,0,1844,804.93Z"/><path class="bd1bab50-591a-48f2-b0d6-62acb4aced0c" d="M2006.36,1298h-56.07a9.7,9.7,0,0,0-9.69,9.71v113.84a9.69,9.69,0,0,0,9.69,9.7h56.07a9.71,9.71,0,0,0,9.7-9.7V1307.75A9.71,9.71,0,0,0,2006.36,1298Zm-6.4,6.08a2.48,2.48,0,1,1-2.48,2.48A2.48,2.48,0,0,1,2000,1304.12ZM1988.29,1421h-19.93a1.87,1.87,0,0,1-1.87-1.88v-3.54a1.87,1.87,0,0,1,1.87-1.87h19.93a1.87,1.87,0,0,1,1.87,1.87v3.54A1.88,1.88,0,0,1,1988.29,1421Zm18.63-15h-57.18a1.87,1.87,0,0,1-1.87-1.87v-87.84a1.87,1.87,0,0,1,1.87-1.87h57.18a1.87,1.87,0,0,1,1.87,1.87v87.84A1.87,1.87,0,0,1,2006.92,1406Z"/><path class="ef7a3239-9ece-4ff4-a987-73e689086d6d" d="M1966.75,1305.06a1.41,1.41,0,0,0-1.42,1.41h0a1.41,1.41,0,0,0,1.42,1.42h23.16a1.42,1.42,0,0,0,1.42-1.41h0a1.42,1.42,0,0,0-1.42-1.42"/><path class="ef7a3239-9ece-4ff4-a987-73e689086d6d" d="M2000,1309.08a2.48,2.48,0,1,0-2.48-2.48A2.49,2.49,0,0,0,2000,1309.08Z"/><path class="bd1bab50-591a-48f2-b0d6-62acb4aced0c" d="M1906.06,113l-102.5-.06a11.67,11.67,0,0,0-11.67,11.68l-.08,148.64A11.66,11.66,0,0,0,1803.46,285L1906,285a11.69,11.69,0,0,0,11.68-11.67l.09-148.64A11.67,11.67,0,0,0,1906.06,113Zm-51.34,167.6a6.94,6.94,0,1,1,6.94-6.93A6.94,6.94,0,0,1,1854.72,280.62Zm47.38-19.93-94.73-.05a3.74,3.74,0,0,1-3.74-3.75l.07-126.15a3.74,3.74,0,0,1,3.75-3.74l94.73,0a3.75,3.75,0,0,1,3.74,3.75L1905.84,257A3.74,3.74,0,0,1,1902.1,260.69Z"/><path class="baff1777-ca62-4ccc-9089-da764deaaaeb" d="M1975.25,422.66h247.89c3.4,0,5.58-3.16,5.58-6.55V245.05a5.3,5.3,0,0,0-5.59-5.68H1975.25c-3.39,0-6.19,2.28-6.19,5.68V416.11A6.55,6.55,0,0,0,1975.25,422.66Zm6.22-163.2c0-3.72,4.6-6.89,8.11-6.89h220.15c3.51,0,4.32,3.17,4.32,6.89V401.54c0,3.73-.81,5.24-4.32,5.24H1989.58c-3.51,0-8.11-1.51-8.11-5.24Z"/><path class="baff1777-ca62-4ccc-9089-da764deaaaeb" d="M2243.13,428.27H1953.66a7.59,7.59,0,0,0,0,15.17h289.47a7.59,7.59,0,0,0,0-15.17Z"/><path class="bd1bab50-591a-48f2-b0d6-62acb4aced0c" d="M2010.27,82.19H1954.2a9.69,9.69,0,0,0-9.69,9.71V205.74a9.69,9.69,0,0,0,9.69,9.7h56.07a9.71,9.71,0,0,0,9.7-9.7V91.9A9.7,9.7,0,0,0,2010.27,82.19Zm-6.4,6.07a2.49,2.49,0,1,1-2.48,2.48A2.49,2.49,0,0,1,2003.87,88.26ZM1992.2,205.09h-19.93a1.87,1.87,0,0,1-1.88-1.87v-3.54a1.88,1.88,0,0,1,1.88-1.87h19.93a1.87,1.87,0,0,1,1.87,1.87v3.54A1.87,1.87,0,0,1,1992.2,205.09Zm18.63-14.94h-57.18a1.87,1.87,0,0,1-1.87-1.87V100.44a1.86,1.86,0,0,1,1.87-1.87h57.18a1.87,1.87,0,0,1,1.87,1.87v87.84A1.87,1.87,0,0,1,2010.83,190.15Z"/><path class="ef7a3239-9ece-4ff4-a987-73e689086d6d" d="M1970.66,89.2a1.42,1.42,0,0,0-1.42,1.42h0a1.42,1.42,0,0,0,1.42,1.42h23.16a1.41,1.41,0,0,0,1.41-1.42h0a1.41,1.41,0,0,0-1.41-1.42"/><path class="ef7a3239-9ece-4ff4-a987-73e689086d6d" d="M2003.87,93.23a2.49,2.49,0,1,0-2.48-2.49A2.5,2.5,0,0,0,2003.87,93.23Z"/><path class="baff1777-ca62-4ccc-9089-da764deaaaeb" d="M1975.25,1050.13h247.89c3.4,0,5.58-3.16,5.58-6.55V872.52a5.31,5.31,0,0,0-5.59-5.68H1975.25c-3.39,0-6.19,2.29-6.19,5.68v171.06A6.55,6.55,0,0,0,1975.25,1050.13Zm6.22-163.19c0-3.73,4.6-6.9,8.11-6.9h220.15c3.51,0,4.32,3.17,4.32,6.9V1029c0,3.72-.81,5.23-4.32,5.23H1989.58c-3.51,0-8.11-1.51-8.11-5.23Z"/><path class="baff1777-ca62-4ccc-9089-da764deaaaeb" d="M2243.13,1055.74H1953.66a7.59,7.59,0,0,0,0,15.17h289.47a7.59,7.59,0,0,0,0-15.17Z"/><path class="f0917007-0f48-4296-956b-92beb1f32029" d="M1960.82,1379.26h35l-17.5-30.32Zm17.51-1.79a1.69,1.69,0,1,1,1.69-1.69A1.68,1.68,0,0,1,1978.33,1377.47Zm2.61-18.44a2.73,2.73,0,0,1,0,.5l-1.16,11.88a1.4,1.4,0,0,1-2.8,0l-1.16-11.84a2.07,2.07,0,0,1,0-.5,2.61,2.61,0,0,1,5.22,0Z"/><path class="f0917007-0f48-4296-956b-92beb1f32029" d="M1999.56,1377.47l-8.91-15.43-8.91-15.43a3.93,3.93,0,0,0-6.82,0L1966,1362l-8.91,15.43a3.94,3.94,0,0,0,3.41,5.91h35.64A3.94,3.94,0,0,0,1999.56,1377.47Zm-1.42,3.12a2.26,2.26,0,0,1-2,1.16h-35.64a2.31,2.31,0,0,1-2-3.46l17.82-30.86a2.3,2.3,0,0,1,2-1.15,2.27,2.27,0,0,1,2,1.15l17.82,30.86A2.26,2.26,0,0,1,1998.14,1380.59Z"/><path class="f168d487-ce73-42b6-bc27-d31fd0e14308" d="M1980.32,1347.43a2.27,2.27,0,0,0-2-1.15,2.3,2.3,0,0,0-2,1.15l-17.82,30.86a2.31,2.31,0,0,0,2,3.46h35.64a2.31,2.31,0,0,0,2-3.46Zm-19.5,31.83,17.51-30.32,17.5,30.32Z"/><path class="ef7a3239-9ece-4ff4-a987-73e689086d6d" d="M1975.72,1359a2.07,2.07,0,0,0,0,.5l1.16,11.84a1.4,1.4,0,0,0,2.8,0l1.16-11.88a2.73,2.73,0,0,0,0-.5,2.61,2.61,0,0,0-5.22,0Z"/><path class="ef7a3239-9ece-4ff4-a987-73e689086d6d" d="M1978.33,1374.09a1.69,1.69,0,1,0,1.69,1.69A1.69,1.69,0,0,0,1978.33,1374.09Z"/><path class="f0917007-0f48-4296-956b-92beb1f32029" d="M1823.39,1441.08h54.93l-27.46-47.57Zm27.47-2.8a2.66,2.66,0,1,1,2.65-2.66A2.66,2.66,0,0,1,1850.86,1438.28Zm4.09-28.94a4.15,4.15,0,0,1-.08.79l-1.82,18.63a2.2,2.2,0,0,1-4.39-.07l-1.82-18.56a4.15,4.15,0,0,1-.08-.79,4.1,4.1,0,1,1,8.19,0Z"/><path class="f0917007-0f48-4296-956b-92beb1f32029" d="M1884.16,1438.28l-14-24.21-14-24.21a6.18,6.18,0,0,0-10.7,0l-14,24.21-14,24.21a6.17,6.17,0,0,0,5.35,9.26h55.91A6.17,6.17,0,0,0,1884.16,1438.28Zm-2.22,4.89a3.58,3.58,0,0,1-3.13,1.81H1822.9a3.62,3.62,0,0,1-3.13-5.42l28-48.42a3.61,3.61,0,0,1,6.26,0l28,48.42A3.54,3.54,0,0,1,1881.94,1443.17Z"/><path class="f168d487-ce73-42b6-bc27-d31fd0e14308" d="M1854,1391.14a3.61,3.61,0,0,0-6.26,0l-28,48.42a3.62,3.62,0,0,0,3.13,5.42h55.91a3.58,3.58,0,0,0,3.13-1.81,3.54,3.54,0,0,0,0-3.61Zm-30.6,49.94,27.47-47.57,27.46,47.57Z"/><path class="ef7a3239-9ece-4ff4-a987-73e689086d6d" d="M1846.76,1409.34a4.15,4.15,0,0,0,.08.79l1.82,18.56a2.2,2.2,0,0,0,4.39.07l1.82-18.63a4.15,4.15,0,0,0,.08-.79,4.1,4.1,0,1,0-8.19,0Z"/><path class="ef7a3239-9ece-4ff4-a987-73e689086d6d" d="M1850.86,1433a2.66,2.66,0,1,0,2.65,2.65A2.66,2.66,0,0,0,1850.86,1433Z"/><path class="f0917007-0f48-4296-956b-92beb1f32029" d="M2053.44,1582h89.91l-44.95-77.86Zm45-4.59a4.34,4.34,0,1,1,4.34-4.34A4.34,4.34,0,0,1,2098.4,1577.45Zm6.7-47.37a7,7,0,0,1-.13,1.3l-3,30.49a3.6,3.6,0,0,1-7.19-.1l-3-30.39a7,7,0,0,1-.13-1.3,6.71,6.71,0,0,1,13.41,0Z"/><path class="f0917007-0f48-4296-956b-92beb1f32029" d="M2152.91,1577.45,2130,1537.82l-22.88-39.63a10.11,10.11,0,0,0-17.51,0l-22.88,39.63-22.88,39.63a10.11,10.11,0,0,0,8.76,15.17h91.51A10.11,10.11,0,0,0,2152.91,1577.45Zm-3.63,8a5.85,5.85,0,0,1-5.13,3h-91.51a5.92,5.92,0,0,1-5.13-8.87l45.76-79.26a5.92,5.92,0,0,1,10.25,0l45.76,79.26A5.84,5.84,0,0,1,2149.28,1585.46Z"/><path class="f168d487-ce73-42b6-bc27-d31fd0e14308" d="M2103.52,1500.29a5.92,5.92,0,0,0-10.25,0l-45.76,79.26a5.92,5.92,0,0,0,5.13,8.87h91.51a5.92,5.92,0,0,0,5.13-8.87ZM2053.44,1582l45-77.86,44.95,77.86Z"/><path class="ef7a3239-9ece-4ff4-a987-73e689086d6d" d="M2091.69,1530.08a7,7,0,0,0,.13,1.3l3,30.39a3.6,3.6,0,0,0,7.19.1l3-30.49a7,7,0,0,0,.13-1.3,6.71,6.71,0,0,0-13.41,0Z"/><path class="ef7a3239-9ece-4ff4-a987-73e689086d6d" d="M2098.4,1568.77a4.34,4.34,0,1,0,4.34,4.34A4.34,4.34,0,0,0,2098.4,1568.77Z"/><path class="f0917007-0f48-4296-956b-92beb1f32029" d="M192.23,936.85A173.7,173.7,0,0,0,250.82,1067a13.14,13.14,0,0,0,18-.59h0a13.21,13.21,0,0,0-.64-19.24,147.48,147.48,0,0,1,0-220.62,13.21,13.21,0,0,0,.64-19.24h0a13.15,13.15,0,0,0-18-.59A173.72,173.72,0,0,0,192.23,936.85Z"/><path class="f0917007-0f48-4296-956b-92beb1f32029" d="M238,936.85a133.41,133.41,0,0,0,46.95,101.63,13.19,13.19,0,0,0,17.88-.73h0a13.18,13.18,0,0,0-.76-19.35,107.06,107.06,0,0,1,0-163.09,13.18,13.18,0,0,0,.76-19.35h0a13.19,13.19,0,0,0-17.88-.74A133.41,133.41,0,0,0,238,936.85Z"/><path class="f0917007-0f48-4296-956b-92beb1f32029" d="M285.87,936.85a85.62,85.62,0,0,0,33.72,68.08,13,13,0,0,0,17.07-1.07l.37-.36A13,13,0,0,0,335.58,984a59.27,59.27,0,0,1,0-94.26A13,13,0,0,0,337,870.2l-.37-.36a13,13,0,0,0-17.07-1.06A85.58,85.58,0,0,0,285.87,936.85Z"/><path class="f0917007-0f48-4296-956b-92beb1f32029" d="M567,936.85A173.7,173.7,0,0,1,508.38,1067a13.16,13.16,0,0,1-18-.59h0a13.21,13.21,0,0,1,.65-19.24,147.48,147.48,0,0,0,0-220.62,13.21,13.21,0,0,1-.65-19.24h0a13.17,13.17,0,0,1,18-.59A173.72,173.72,0,0,1,567,936.85Z"/><path class="f0917007-0f48-4296-956b-92beb1f32029" d="M521.25,936.85a133.41,133.41,0,0,1-46.95,101.63,13.19,13.19,0,0,1-17.88-.73h0a13.18,13.18,0,0,1,.76-19.35A107.06,107.06,0,0,0,457,855.11a12.89,12.89,0,0,1-.74-18.94l.39-.4a12.94,12.94,0,0,1,17.5-.72A133.42,133.42,0,0,1,521.25,936.85Z"/><path class="f0917007-0f48-4296-956b-92beb1f32029" d="M473.33,936.85a85.62,85.62,0,0,1-33.72,68.08,13,13,0,0,1-17.07-1.07l-.37-.36A13,13,0,0,1,423.62,984a59.27,59.27,0,0,0,0-94.26,13,13,0,0,1-1.45-19.52l.37-.36a13,13,0,0,1,17.07-1.06A85.58,85.58,0,0,1,473.33,936.85Z"/><path class="f0917007-0f48-4296-956b-92beb1f32029" d="M407.63,936.85a28,28,0,1,0-33,27.59v128.11a4.94,4.94,0,0,0,4.94,4.94h0a4.94,4.94,0,0,0,4.94-4.94V964.44A28,28,0,0,0,407.63,936.85Z"/><rect class="bd1bab50-591a-48f2-b0d6-62acb4aced0c" x="213.6" y="1132.95" width="160" height="100" rx="20"/><rect class="f0917007-0f48-4296-956b-92beb1f32029" x="385.6" y="1132.95" width="160" height="100" rx="20"/><path class="bd1bab50-591a-48f2-b0d6-62acb4aced0c" d="M1712.45,333.67a9,9,0,1,1,0-12.74A9,9,0,0,1,1712.45,333.67Z"/><path class="bd1bab50-591a-48f2-b0d6-62acb4aced0c" d="M1758,275.34a74.16,74.16,0,0,0-56.91-21.6,5.64,5.64,0,0,0-5.32,5.62h0a5.62,5.62,0,0,0,6,5.61,63,63,0,0,1,66.63,66.64,5.63,5.63,0,0,0,5.62,6h0a5.64,5.64,0,0,0,5.62-5.33A74.18,74.18,0,0,0,1758,275.34Z"/><path class="bd1bab50-591a-48f2-b0d6-62acb4aced0c" d="M1744.24,289.15a56.93,56.93,0,0,0-44.82-16.51,5.64,5.64,0,0,0-5.21,5.61v0a5.63,5.63,0,0,0,6.08,5.6,45.69,45.69,0,0,1,49.22,49.22,5.63,5.63,0,0,0,5.61,6.08h0a5.64,5.64,0,0,0,5.61-5.21A56.93,56.93,0,0,0,1744.24,289.15Z"/><path class="bd1bab50-591a-48f2-b0d6-62acb4aced0c" d="M1729.77,303.61a36.55,36.55,0,0,0-30.65-10.38,5.64,5.64,0,0,0-4.91,5.58h0a5.62,5.62,0,0,0,6.36,5.57A25.31,25.31,0,0,1,1729,332.81a5.63,5.63,0,0,0,5.57,6.36h0a5.64,5.64,0,0,0,5.59-4.91A36.55,36.55,0,0,0,1729.77,303.61Z"/><path class="bd1bab50-591a-48f2-b0d6-62acb4aced0c" d="M1712.45,1562.23a9,9,0,1,1,0-12.74A9,9,0,0,1,1712.45,1562.23Z"/><path class="bd1bab50-591a-48f2-b0d6-62acb4aced0c" d="M1758,1503.91a74.16,74.16,0,0,0-56.91-21.6,5.63,5.63,0,0,0-5.32,5.62h0a5.63,5.63,0,0,0,6,5.62,62.94,62.94,0,0,1,66.63,66.63,5.63,5.63,0,0,0,5.62,6h0a5.63,5.63,0,0,0,5.62-5.32A74.16,74.16,0,0,0,1758,1503.91Z"/><path class="bd1bab50-591a-48f2-b0d6-62acb4aced0c" d="M1744.24,1517.71a57,57,0,0,0-44.82-16.51,5.64,5.64,0,0,0-5.21,5.61v0a5.64,5.64,0,0,0,6.08,5.61,45.68,45.68,0,0,1,49.22,49.22,5.64,5.64,0,0,0,5.61,6.08h0a5.64,5.64,0,0,0,5.61-5.21A57,57,0,0,0,1744.24,1517.71Z"/><path class="bd1bab50-591a-48f2-b0d6-62acb4aced0c" d="M1729.77,1532.18a36.55,36.55,0,0,0-30.65-10.39,5.65,5.65,0,0,0-4.91,5.58h0a5.63,5.63,0,0,0,6.36,5.58,25.31,25.31,0,0,1,28.43,28.43,5.63,5.63,0,0,0,5.57,6.36h0a5.65,5.65,0,0,0,5.59-4.91A36.55,36.55,0,0,0,1729.77,1532.18Z"/><path class="f0917007-0f48-4296-956b-92beb1f32029" d="M1823.49,405.66a9,9,0,1,1,9-9A9,9,0,0,1,1823.49,405.66Z"/><path class="f0917007-0f48-4296-956b-92beb1f32029" d="M1897,396.65a74.14,74.14,0,0,0-25-55.51,5.63,5.63,0,0,0-7.74.21h0a5.62,5.62,0,0,0,.25,8.18,63,63,0,0,1,0,94.24,5.63,5.63,0,0,0-.25,8.19h0a5.63,5.63,0,0,0,7.74.21A74.16,74.16,0,0,0,1897,396.65Z"/><path class="f0917007-0f48-4296-956b-92beb1f32029" d="M1877.45,396.65a56.93,56.93,0,0,0-20-43.36,5.63,5.63,0,0,0-7.65.29h0a5.63,5.63,0,0,0,.34,8.26,45.71,45.71,0,0,1,0,69.61,5.63,5.63,0,0,0-.34,8.26h0a5.64,5.64,0,0,0,7.65.29A56.93,56.93,0,0,0,1877.45,396.65Z"/><path class="f0917007-0f48-4296-956b-92beb1f32029" d="M1857,396.65a36.53,36.53,0,0,0-14.33-29,5.63,5.63,0,0,0-7.42.47h0a5.62,5.62,0,0,0,.56,8.44,25.32,25.32,0,0,1,0,40.21,5.61,5.61,0,0,0-.56,8.43h0a5.64,5.64,0,0,0,7.42.48A36.55,36.55,0,0,0,1857,396.65Z"/><path class="f0917007-0f48-4296-956b-92beb1f32029" d="M1841.49,1002.64a9,9,0,1,1,9-9A9,9,0,0,1,1841.49,1002.64Z"/><path class="f0917007-0f48-4296-956b-92beb1f32029" d="M1915,993.63a74.16,74.16,0,0,0-25-55.51,5.64,5.64,0,0,0-7.74.2h0a5.62,5.62,0,0,0,.25,8.18,63,63,0,0,1,0,94.24,5.62,5.62,0,0,0-.25,8.18h0a5.64,5.64,0,0,0,7.74.2A74.16,74.16,0,0,0,1915,993.63Z"/><path class="f0917007-0f48-4296-956b-92beb1f32029" d="M1895.45,993.63a56.91,56.91,0,0,0-20-43.36,5.63,5.63,0,0,0-7.65.28h0a5.64,5.64,0,0,0,.34,8.27,45.71,45.71,0,0,1,0,69.61,5.63,5.63,0,0,0-.34,8.26h0a5.64,5.64,0,0,0,7.65.29A57,57,0,0,0,1895.45,993.63Z"/><path class="f0917007-0f48-4296-956b-92beb1f32029" d="M1875,993.63a36.51,36.51,0,0,0-14.33-29,5.62,5.62,0,0,0-7.41.47h0a5.62,5.62,0,0,0,.55,8.44,25.31,25.31,0,0,1,0,40.2,5.62,5.62,0,0,0-.55,8.44h0a5.63,5.63,0,0,0,7.41.48A36.55,36.55,0,0,0,1875,993.63Z"/><path class="f0917007-0f48-4296-956b-92beb1f32029" d="M1823.49,1603.16a9,9,0,1,1,9-9A9,9,0,0,1,1823.49,1603.16Z"/><path class="f0917007-0f48-4296-956b-92beb1f32029" d="M1897,1594.15a74.16,74.16,0,0,0-25-55.52,5.64,5.64,0,0,0-7.74.21h0a5.63,5.63,0,0,0,.25,8.19,63,63,0,0,1,0,94.24,5.62,5.62,0,0,0-.25,8.18h0a5.64,5.64,0,0,0,7.74.2A74.14,74.14,0,0,0,1897,1594.15Z"/><path class="f0917007-0f48-4296-956b-92beb1f32029" d="M1877.45,1594.15a57,57,0,0,0-20-43.37,5.64,5.64,0,0,0-7.65.29h0a5.63,5.63,0,0,0,.34,8.26,45.71,45.71,0,0,1,0,69.61,5.63,5.63,0,0,0-.34,8.26v0a5.63,5.63,0,0,0,7.65.28A56.93,56.93,0,0,0,1877.45,1594.15Z"/><path class="f0917007-0f48-4296-956b-92beb1f32029" d="M1857,1594.15a36.55,36.55,0,0,0-14.33-29,5.64,5.64,0,0,0-7.42.48h0a5.62,5.62,0,0,0,.56,8.44,25.31,25.31,0,0,1,0,40.2,5.62,5.62,0,0,0-.56,8.44h0a5.63,5.63,0,0,0,7.42.47A36.51,36.51,0,0,0,1857,1594.15Z"/><path class="bd1bab50-591a-48f2-b0d6-62acb4aced0c" d="M1686.19,939.9a9,9,0,1,1,0-12.74A9,9,0,0,1,1686.19,939.9Z"/><path class="bd1bab50-591a-48f2-b0d6-62acb4aced0c" d="M1731.77,881.57a74.16,74.16,0,0,0-56.9-21.6,5.64,5.64,0,0,0-5.33,5.62h0a5.63,5.63,0,0,0,6,5.61,63,63,0,0,1,66.64,66.63,5.63,5.63,0,0,0,5.61,6h0a5.65,5.65,0,0,0,5.62-5.33A74.15,74.15,0,0,0,1731.77,881.57Z"/><path class="bd1bab50-591a-48f2-b0d6-62acb4aced0c" d="M1718,895.37a56.94,56.94,0,0,0-44.82-16.5,5.62,5.62,0,0,0-5.2,5.61h0a5.63,5.63,0,0,0,6.08,5.61,45.71,45.71,0,0,1,49.22,49.22,5.62,5.62,0,0,0,5.6,6.08h0a5.64,5.64,0,0,0,5.61-5.21A57,57,0,0,0,1718,895.37Z"/><path class="bd1bab50-591a-48f2-b0d6-62acb4aced0c" d="M1703.51,909.84a36.52,36.52,0,0,0-30.65-10.38A5.62,5.62,0,0,0,1668,905h0a5.62,5.62,0,0,0,6.36,5.57A25.29,25.29,0,0,1,1702.73,939a5.63,5.63,0,0,0,5.58,6.36h0a5.63,5.63,0,0,0,5.58-4.91A36.55,36.55,0,0,0,1703.51,909.84Z"/><path class="f0917007-0f48-4296-956b-92beb1f32029" d="M466.51,632.54h97.41l-48.7-84.35Zm48.71-5a4.71,4.71,0,1,1,4.7-4.7A4.71,4.71,0,0,1,515.22,627.57Zm7.26-51.32a7.15,7.15,0,0,1-.14,1.4l-3.23,33a3.9,3.9,0,0,1-7.79-.11l-3.23-32.92a7.26,7.26,0,1,1,14.39-1.41Z"/><path class="f0917007-0f48-4296-956b-92beb1f32029" d="M574.28,627.57l-24.79-42.93L524.71,541.7a11,11,0,0,0-19,0l-24.79,42.94-24.79,42.93A11,11,0,0,0,465.64,644h99.15A11,11,0,0,0,574.28,627.57Zm-3.94,8.68a6.34,6.34,0,0,1-5.55,3.21H465.64a6.42,6.42,0,0,1-5.55-9.62L509.67,544a6.4,6.4,0,0,1,11.1,0l49.57,85.86A6.34,6.34,0,0,1,570.34,636.25Z"/><path class="f168d487-ce73-42b6-bc27-d31fd0e14308" d="M520.77,544a6.4,6.4,0,0,0-11.1,0l-49.58,85.86a6.42,6.42,0,0,0,5.55,9.62h99.15a6.42,6.42,0,0,0,5.55-9.62Zm-54.26,88.56,48.71-84.35,48.7,84.35Z"/><path class="ef7a3239-9ece-4ff4-a987-73e689086d6d" d="M508,576.25a7.32,7.32,0,0,0,.13,1.41l3.23,32.92a3.9,3.9,0,0,0,7.79.11l3.23-33a7.15,7.15,0,0,0,.14-1.4,7.26,7.26,0,1,0-14.52,0Z"/><path class="ef7a3239-9ece-4ff4-a987-73e689086d6d" d="M515.22,618.16a4.71,4.71,0,1,0,4.7,4.71A4.71,4.71,0,0,0,515.22,618.16Z"/><path class="aa6c80b6-951b-4ba9-8dc8-b27c591cc33d" d="M736,590.46l0-.18Z"/><path class="aa6c80b6-951b-4ba9-8dc8-b27c591cc33d" d="M738.76,584.05l.1-.13A1.13,1.13,0,0,1,738.76,584.05Z"/><path class="aa6c80b6-951b-4ba9-8dc8-b27c591cc33d" d="M737.52,586.08l.14-.26Z"/><path class="aa6c80b6-951b-4ba9-8dc8-b27c591cc33d" d="M736.26,589.28l.06-.21Z"/><path class="aa6c80b6-951b-4ba9-8dc8-b27c591cc33d" d="M736.58,588.28l.09-.28Z"/><path class="aa6c80b6-951b-4ba9-8dc8-b27c591cc33d" d="M738.07,585.1l.12-.19Z"/><path class="aa6c80b6-951b-4ba9-8dc8-b27c591cc33d" d="M741.86,580.8l0,0Z"/><path class="aa6c80b6-951b-4ba9-8dc8-b27c591cc33d" d="M741,581.54l.09-.08Z"/><path class="aa6c80b6-951b-4ba9-8dc8-b27c591cc33d" d="M739.41,583.22l.14-.18Z"/><path class="aa6c80b6-951b-4ba9-8dc8-b27c591cc33d" d="M754.69,587.78a6.42,6.42,0,1,0,3.28,8.47A6.43,6.43,0,0,0,754.69,587.78Z"/><path class="aa6c80b6-951b-4ba9-8dc8-b27c591cc33d" d="M735.8,591.55l0-.23Z"/><path class="aa6c80b6-951b-4ba9-8dc8-b27c591cc33d" d="M739.27,480.49A110.56,110.56,0,0,0,634.83,627.15H843.72A110.58,110.58,0,0,0,739.27,480.49Zm27.87,119.8a16.44,16.44,0,0,1-27.93,3.56l-26.66-25.74a1.85,1.85,0,0,1,1.4-3.17l37,2.32a16.45,16.45,0,0,1,16.21,23Zm56.91-3.65h0a12.54,12.54,0,0,1-12.39-10.74,73.19,73.19,0,0,0-144.77,0,12.52,12.52,0,0,1-24.8-3.5,98.23,98.23,0,0,1,194.37,0A12.5,12.5,0,0,1,824.05,596.64Z"/><path class="aa6c80b6-951b-4ba9-8dc8-b27c591cc33d" d="M735.66,593.63s0,.08,0,.13S735.66,593.67,735.66,593.63Z"/><path class="aa6c80b6-951b-4ba9-8dc8-b27c591cc33d" d="M735.7,594.8v0Z"/><path class="bd1bab50-591a-48f2-b0d6-62acb4aced0c" d="M642.09,582.4a12.52,12.52,0,0,0,24.8,3.5,73,73,0,0,1,20.67-41l-17.73-17.73A98,98,0,0,0,642.09,582.4Z"/><path class="f168d487-ce73-42b6-bc27-d31fd0e14308" d="M739.27,498.43a97.89,97.89,0,0,0-69.44,28.76l17.73,17.73a73.07,73.07,0,0,1,103.43,0l17.73-17.73A97.92,97.92,0,0,0,739.27,498.43Z"/><path class="baff1777-ca62-4ccc-9089-da764deaaaeb" d="M791,544.92a73.13,73.13,0,0,1,20.67,41,12.54,12.54,0,0,0,12.39,10.74h0a12.5,12.5,0,0,0,12.41-14.24,98,98,0,0,0-27.74-55.21Z"/><path class="f0917007-0f48-4296-956b-92beb1f32029" d="M758.73,578.62a16.45,16.45,0,0,0-7.8-1.36l-37-2.32a1.85,1.85,0,0,0-1.4,3.17l26.66,25.74a16.43,16.43,0,1,0,19.52-25.23Zm-16.84,2.16,0,0Zm-.8.68-.09.08ZM739.55,583l-.14.18Zm-.69.88-.1.13A1.13,1.13,0,0,0,738.86,583.92Zm-.67,1-.12.19Zm-.53.91-.14.26Zm-1,2.18-.09.28Zm-.35,1.07-.06.21Zm-.31,1.21,0,.18Zm-.18,1,0,.23Zm-.17,2.31s0,.08,0,.13S735.66,593.67,735.66,593.63Zm0,1.13v0ZM758,596.25a6.42,6.42,0,1,1-3.28-8.47A6.42,6.42,0,0,1,758,596.25Z"/><path class="f0917007-0f48-4296-956b-92beb1f32029" d="M856.29,541.55a127,127,0,0,0-237,91,16.5,16.5,0,0,0,15.59,11.1H843.72a16.5,16.5,0,0,0,15.59-11.1,127.5,127.5,0,0,0-3-91Zm-12.57,85.6H634.83a110.5,110.5,0,1,1,208.89,0Z"/><text class="f508ae90-2f05-4419-974b-8457f2cd99ad" transform="translate(703.87 700.16)">Baja<tspan x="-43.76" y="38.4">velocidad</tspan></text><text class="f508ae90-2f05-4419-974b-8457f2cd99ad" transform="translate(237.44 1285.39)">Puntos de Acceso</text><text class="f508ae90-2f05-4419-974b-8457f2cd99ad" transform="translate(1106.36 1114.96)">Usuario B <tspan class="a4571478-ed1b-4362-b724-187c00b855cf" x="157.41" y="0"> </tspan><tspan x="217.92" y="0">Contraseña Compartida</tspan></text><text class="f508ae90-2f05-4419-974b-8457f2cd99ad" transform="translate(1101.49 1705.3)">Mal uso de la red</text><text class="f508ae90-2f05-4419-974b-8457f2cd99ad" transform="translate(1103.06 534.4)">Usuario A <tspan class="a4571478-ed1b-4362-b724-187c00b855cf" x="159.36" y="0"> </tspan><tspan x="219.87" y="0">Contraseña Compartida</tspan></text><path class="bd1bab50-591a-48f2-b0d6-62acb4aced0c" d="M336.48,187.26H227.73V174.7a57.79,57.79,0,0,0-115.57,0v14.92a9.81,9.81,0,0,0,19.62,0V174.7a38.17,38.17,0,0,1,76.33,0v12.56H197.24a7.94,7.94,0,0,0-7.94,8v116a7.92,7.92,0,0,0,6.84,7.87,539.1,539.1,0,0,0,70.72,4.58,539.1,539.1,0,0,0,70.72-4.58,7.92,7.92,0,0,0,6.84-7.87v-116A7.94,7.94,0,0,0,336.48,187.26Z"/><path class="baff1777-ca62-4ccc-9089-da764deaaaeb" d="M1332.86,444.69c-2.45-13.54-11.36-18.87-29.47-26.64-8.55,28-24.71,21.86-74.15,22.34-21.44.21-62.74,8.08-66.07-22.34-18.11,7.77-26.93,13.1-29.38,26.64a4.59,4.59,0,0,1-3.07,3.49c10,15.71,52,27.49,102.16,27.49,50.53,0,92.67-11.94,102.36-27.8A4.55,4.55,0,0,1,1332.86,444.69Z"/><path class="f7b3b6d3-3d67-4b8a-bea6-9328deeda1b9" d="M1303.87,418.05c-8.73-6.42-52.85-32.19-54.67-43.73a50.67,50.67,0,0,1-31.5,0c-1.82,11.54-42.14,29.19-50.87,35.61,1.16,17.18,3,31.89,66.21,27.61C1250.48,436.36,1293.41,447,1303.87,418.05Z"/><path class="f7b3b6d3-3d67-4b8a-bea6-9328deeda1b9" d="M1286.92,315.37l.81-4.59,5.41.94c4.12,0,7.81-6,7.81-12.85s-3.69-12.85-7.89-12.85l-.72.15-4.61.83-.81-4.64c-.69-3.92,0-9-1.18-12.66,0,0-18.68-5.21-21.28-30.4-23,25.62-46.92,10.42-46.92,10.42-14.77,32.58-28.23,23.89-35.5,21.29a82.94,82.94,0,0,0-2.82,11.35l-.81,4.64-5.41-1c-4.12,0-7.8,6-7.8,12.85s3.68,12.84,7.88,12.84l5.34-.93.8,4.59c5.75,32.84,28.4,56.68,53.85,56.68S1281.17,348.21,1286.92,315.37Z"/><path class="aa6c80b6-951b-4ba9-8dc8-b27c591cc33d" d="M1258.06,396.08a144.64,144.64,0,0,1-50.76-.17c-9.11,10.1-23.17,16.39-36.2,22.21l-3.58,1.6,3,7a13.61,13.61,0,0,0,12.51,8.24h99.17a13.61,13.61,0,0,0,12.51-8.24l3-7-3.58-1.6C1281.16,412.33,1267.18,406.08,1258.06,396.08Z"/><path class="bbdc9c20-3424-4434-8580-a871ede9831d" d="M1207.88,372.91c-17.45-9.31-31-28.32-36.22-52.59C1163.3,319,1157,310,1157,298.87s6.26-20.09,14.62-21.45c.42-1.92.91-3.8,1.44-5.64a4.56,4.56,0,0,1,5.31-7.38,24.18,24.18,0,0,0,10.64,3.59c4.61.41,13.06.14,18-6.13a17.77,17.77,0,0,0,3.42-12l-.22-3.65,3.51-1a15.3,15.3,0,0,1,3.9-.6c4.53-.06,7.11,2.26,9.33,4.13,2.65,2.24,4.93,4.18,11,3.62,3.33-.31,5.6-3.13,8.94-7.72,4.38-6,11-15.12,24-7.81l3.42,1.92-1.39,3.67c-2,5.43-.31,12.81,4.12,17.52,2.81,3,7.69,6,15.54,4.73a4.58,4.58,0,0,1,5.13,3.16h0a4.56,4.56,0,0,1-3.63,5.84l-1.1.14c.24,1.17.48,2.41.69,3.6,8.32,1.41,14.54,10.32,14.54,21.44s-6.26,20.08-14.61,21.45c-5.24,24.27-18.78,43.27-36.23,52.59.76,8.88,5.08,15.47,11.46,20.86q5.09-1.32,10-3l-1.32-.18a4.58,4.58,0,1,1,1.39-9.06c5.3.85,14.71,1.08,18.78-6.77,2.15-4.15,1.27-10.6-1.62-14.76a4.52,4.52,0,0,1,.2-5.38h0a4.55,4.55,0,0,1,7.34.25,24,24,0,0,1,2.34,4.33c9.08-4.47,21.42-13.53,26.47-39.92,4.65-24.3-2.76-33.49-7.6-36.8-5-3.47-11-3.24-14.22-1.2l-4.84-7.76a20,20,0,0,1,10.65-2.82c1.2-4.61,2.37-12.12,1.79-17.57-.46-4.38-2.49-15.18-11.44-20.89a21.7,21.7,0,0,0-10.8-3.49,68,68,0,0,0-9.51.47l-7.53,1,2.68-7.1a48.24,48.24,0,0,0,3-19.57c-.58-16.13-4.27-18-4.31-18-.21.13-1.46,1.2-2.38,2a36.3,36.3,0,0,1-9.55,6.24c-8.71,3.72-15.5,1.81-21.51.11-5.27-1.49-10.25-2.9-17.27-1.14-.57.14-14,3.64-21,15.84a31.37,31.37,0,0,0-3.65,10.24l-.73,4.2-4.25-.44c-18.51-1.95-32.8,2.27-43.62,12.94-10.54,10.39-15.36,23-14.38,37.54l1-.35a27.32,27.32,0,0,1,7.13-1.28,4.57,4.57,0,0,1,.37,9.13,18.28,18.28,0,0,0-4.72.85,20.74,20.74,0,0,0-9.63,7c-7,8.23-9.54,22.53-6.2,34.78,1.36,4.94,7,21.51,23,27a33.81,33.81,0,0,0,16.69,1.24,4.57,4.57,0,1,1,1.56,9,47.73,47.73,0,0,1-5.51.59c-1.19,2.59-2.24,6.42-.76,10.25,1.9,4.91,6.72,6.82,8.31,7.45,6.09,2.41,12.17.44,15.81-1.33a4.52,4.52,0,0,1,5.68,1.43h0a4.63,4.63,0,0,1-1.79,6.84,33.28,33.28,0,0,1-10.76,3.15,137.39,137.39,0,0,0,14.59,4.75C1202.93,388.19,1207.14,381.66,1207.88,372.91Z"/><path class="bf6333ed-d8d3-411d-a416-95c7ed34b4d6" d="M1297.83,409.78c-10.87-4.86-21.42-9.58-29-16-6.38-5.39-10.7-12-11.46-20.86,17.45-9.32,31-28.32,36.23-52.59,8.35-1.37,14.61-10.3,14.61-21.45s-6.22-20-14.54-21.44c-.21-1.19-.45-2.43-.69-3.6l1.1-.14a4.56,4.56,0,0,0,3.63-5.84h0a4.58,4.58,0,0,0-5.13-3.16C1284.68,266,1279.8,263,1277,260c-4.43-4.71-6.16-12.09-4.12-17.52l1.39-3.67-3.42-1.92c-13-7.31-19.58,1.79-24,7.81-3.34,4.59-5.61,7.41-8.94,7.72-6,.56-8.31-1.38-11-3.62-2.22-1.87-4.8-4.19-9.33-4.13a15.3,15.3,0,0,0-3.9.6l-3.51,1,.22,3.65a17.77,17.77,0,0,1-3.42,12c-4.93,6.27-13.38,6.54-18,6.13a24.18,24.18,0,0,1-10.64-3.59,4.56,4.56,0,0,0-5.31,7.38c-.53,1.84-1,3.72-1.44,5.64-8.36,1.36-14.62,10.29-14.62,21.45s6.26,20.09,14.62,21.45c5.24,24.27,18.77,43.28,36.22,52.59-.74,8.75-5,15.28-11.18,20.63-7.65,6.55-18.32,11.32-29.32,16.24-18.58,8.3-37.73,16.85-40.75,35.4a4.58,4.58,0,0,0,9,1.49c1.8-10.55,11.29-17.07,23.58-23.09l2.87,6.7A22.73,22.73,0,0,0,1183,444.05h99.17a22.71,22.71,0,0,0,20.9-13.77l2.87-6.7c12.29,6,21.79,12.54,23.59,23.09a4.54,4.54,0,0,0,4.49,3.74h0a4.56,4.56,0,0,0,4.54-5.23C1335.55,426.63,1316.4,418.08,1297.83,409.78ZM1179.9,314.93l-.79-4.49-5.21.93c-4.12,0-7.72-5.84-7.72-12.5s3.6-12.5,7.63-12.5l5.31.93.79-4.49c.42-2.41.95-4.76,1.57-7.06a33.11,33.11,0,0,0,6.78,1.34c1.24.11,2.46.16,3.65.16,9.48,0,17.31-3.39,22.31-9.74a25.59,25.59,0,0,0,5.22-13.09c.43.3,1,.73,1.65,1.32,3.14,2.65,7.87,6.65,17.7,5.73,7.67-.71,12-6.66,15.48-11.44,3.79-5.2,5.64-7.4,8.94-6.59a27.75,27.75,0,0,0,7.12,22.78,24.5,24.5,0,0,0,13.2,7.31c.56,2.4,1.22,6.15,1.64,8.53l.93,5.24,5.21-.93c4.11,0,7.72,5.84,7.72,12.5s-3.61,12.5-7.64,12.5l-5.3-.93-.79,4.49c-5.63,31.95-27.79,55.14-52.7,55.14S1185.54,346.88,1179.9,314.93Zm114.8,111.75a13.61,13.61,0,0,1-12.51,8.24H1183a13.61,13.61,0,0,1-12.51-8.24l-3-7,3.58-1.6c13-5.82,27.09-12.11,36.2-22.21a36.71,36.71,0,0,0,9.33-19.26,51.09,51.09,0,0,0,31.94,0,36.81,36.81,0,0,0,9.49,19.43c9.12,10,23.1,16.25,36,22l3.58,1.6Z"/><path class="bf6333ed-d8d3-411d-a416-95c7ed34b4d6" d="M1194.66,378.8h0a4.52,4.52,0,0,0-5.68-1.43c-3.64,1.77-9.72,3.74-15.81,1.33-1.59-.63-6.41-2.54-8.31-7.45-1.48-3.83-.43-7.66.76-10.25a47.73,47.73,0,0,0,5.51-.59,4.57,4.57,0,1,0-1.56-9,33.81,33.81,0,0,1-16.69-1.24c-16-5.51-21.68-22.08-23-27-3.34-12.25-.79-26.55,6.2-34.78a20.74,20.74,0,0,1,9.63-7,18.28,18.28,0,0,1,4.72-.85,4.57,4.57,0,0,0-.37-9.13,27.32,27.32,0,0,0-7.13,1.28l-1,.35c-1-14.54,3.84-27.15,14.38-37.54,10.82-10.67,25.11-14.89,43.62-12.94l4.25.44.73-4.2a31.37,31.37,0,0,1,3.65-10.24c7-12.2,20.44-15.7,21-15.84,7-1.76,12-.35,17.27,1.14,6,1.7,12.8,3.61,21.51-.11a36.3,36.3,0,0,0,9.55-6.24c.92-.77,2.17-1.84,2.38-2,0,0,3.73,1.86,4.31,18a48.24,48.24,0,0,1-3,19.57l-2.68,7.1,7.53-1a68,68,0,0,1,9.51-.47,21.7,21.7,0,0,1,10.8,3.49c9,5.71,11,16.51,11.44,20.89.58,5.45-.59,13-1.79,17.57a20,20,0,0,0-10.65,2.82l4.84,7.76c3.25-2,9.18-2.27,14.22,1.2,4.84,3.31,12.25,12.5,7.6,36.8-5,26.39-17.39,35.45-26.47,39.92a24,24,0,0,0-2.34-4.33,4.55,4.55,0,0,0-7.34-.25h0a4.52,4.52,0,0,0-.2,5.38c2.89,4.16,3.77,10.61,1.62,14.76-4.07,7.85-13.48,7.62-18.78,6.77a4.58,4.58,0,1,0-1.39,9.06l1.32.18a39.24,39.24,0,0,0,4.69.29c8.15,0,17.41-2.71,22.27-12.1.2-.39.38-.78.55-1.19a21.86,21.86,0,0,0,1.62-9.42c9.83-4.48,27.2-14.84,33.43-47.36,5.62-29.4-4.74-41.47-11.41-46a23.81,23.81,0,0,0-4.61-2.47c1.45-5.78,2.56-14,1.9-20.3-.59-5.7-3.31-19.79-15.61-27.64a30.55,30.55,0,0,0-15.33-4.91c-1.37-.06-2.78-.05-4.12,0a60.54,60.54,0,0,0,1.53-16.45,66.25,66.25,0,0,0-2-15c-1.76-6.37-4.67-10.14-8.78-11.4-4.82-1.47-8.22,1.41-11,3.73l-.35.3a26.59,26.59,0,0,1-6.9,4.51c-5.74,2.46-9.8,1.3-15.42-.28s-12.61-3.57-22-1.21c-1.82.46-18,4.89-26.71,20.16a39.25,39.25,0,0,0-3.8,9.11c-19.52-1.24-34.88,4-46.94,15.86-13.44,13.26-19.14,30.21-16.61,49.15a37.34,37.34,0,0,0-4.17,4.31c-9,10.55-12.2,27.87-8,43.09,1.65,6,8.6,26.29,28.88,33.26a40.27,40.27,0,0,0,6.19,1.59,21.16,21.16,0,0,0,.24,14.16c.16.4.35.78.53,1.17,2.37,5.14,6.69,9,12.93,11.47a25.23,25.23,0,0,0,9.37,1.78,25.65,25.65,0,0,0,2.94-.18,33.28,33.28,0,0,0,10.76-3.15A4.63,4.63,0,0,0,1194.66,378.8Z"/><path class="f7b3b6d3-3d67-4b8a-bea6-9328deeda1b9" d="M1247,1544.33c13.5-9,23.9-25.49,27.46-45.65l.56-3.22.18-1v-.07l1.66.28,3.07.52a5.13,5.13,0,0,0,2.8-.75,9.41,9.41,0,0,0,3.52-4.37,17.08,17.08,0,0,0,1.37-6.82c0-5.53-2.59-10.47-5.84-11.7h0c-3.93,9.25-11.46,16.07-18.29,20.69a74.72,74.72,0,0,1-12.62,6.85l-2.79,1.17a3,3,0,0,1-4-3.72l1-2.88c2.78-8.37,6.44-25.13-.34-43.31a61.89,61.89,0,0,0-10.44-18h0c-4.35,3.53-10.37,8.14-17.57,12.95-11.94,8-27.11,16.46-43.21,21.39v0c-.06.36-.12.71-.19,1.07l-.76,4.31-.08,0-5-.87a4.77,4.77,0,0,0-2.79,1c-2.6,1.89-4.54,6.23-4.54,11a16.87,16.87,0,0,0,1.66,7.37c1.39,2.78,3.49,4.63,5.75,4.63l2.84-.49,2.17-.37.25,1.39.51,2.89c5.41,30.68,26.69,53,50.6,53A41.74,41.74,0,0,0,1247,1544.33Z"/><path class="f7b3b6d3-3d67-4b8a-bea6-9328deeda1b9" d="M1295.5,1476.34a77.93,77.93,0,0,0-2.94-11.46c-.42,1-.88,2-1.38,3A21.88,21.88,0,0,1,1295.5,1476.34Z"/><path class="baff1777-ca62-4ccc-9089-da764deaaaeb" d="M1316.94,1625.14c-1.45-8.33-7.89-14-16.71-19-1.88-1.07-3.87-2.1-5.94-3.11l-2.75,6.43a21.82,21.82,0,0,1-20.07,13.23h-95.23a21.81,21.81,0,0,1-20.07-13.23l-2.76-6.43c-7.8,3.82-14.43,7.85-18.53,13.08a20,20,0,0,0-4.12,9.09,4.26,4.26,0,0,1-3.42,3.53c15.3,13.69,52.74,23.36,96.5,23.36s81.25-9.69,96.53-23.4A4.37,4.37,0,0,1,1316.94,1625.14Z"/><path class="f7b3b6d3-3d67-4b8a-bea6-9328deeda1b9" d="M1239.19,1558a49.22,49.22,0,0,1-30.67,0c-3.44,21.8-24.73,31.33-43.72,39.82l-3.44,1.54,2.87,6.67a13,13,0,0,0,12,7.92h95.23a13.07,13.07,0,0,0,12-7.92l2.86-6.67-3.44-1.54C1263.92,1589.28,1242.62,1579.75,1239.19,1558Z"/><path class="bd1bab50-591a-48f2-b0d6-62acb4aced0c" d="M1166.39,1462.53a9.94,9.94,0,0,1,3,.67l.32.07a4.5,4.5,0,0,1,3-5.48c27.13-8.83,52-28.7,59.22-34.82l3.18-2.68,2.85,3a70.93,70.93,0,0,1,15,24,72.79,72.79,0,0,1,3,39.38c6.87-4.16,15.65-11.15,18.72-20.92h0a4.37,4.37,0,0,1,3.43-3,11.68,11.68,0,0,1,2.2-.27,13.36,13.36,0,0,1,3.59.51,50.33,50.33,0,0,0,4.39-17.52c.46-14.94-6.88-30-18.67-38.51a24.93,24.93,0,0,0-12.13-4.65l-6-.85,2.68-5.43c1.11-2.26,2.23-5.52,1.23-8.17-1.57-4.18-7.78-8.06-15.09-9.45-6.82-1.3-12.87-.15-15.74,3-1.7,1.87-2.49,4.64-2.37,8.23l.2,5.72-5.58-1.3a46.47,46.47,0,0,0-16.19-.92c-21.52,2.69-41,21.12-45.36,42.88a52.11,52.11,0,0,0,2.88,30.24,14.38,14.38,0,0,1,7.27-3.62C1165.36,1462.55,1166.39,1462.53,1166.39,1462.53Z"/><path class="bf6333ed-d8d3-411d-a416-95c7ed34b4d6" d="M1325.61,1623.74c0-.34-.14-.67-.21-1-2.52-12.56-12.89-20.26-25.17-26.55-4.43-2.27-9.11-4.36-13.75-6.43-6-2.67-11.83-5.29-17.13-8.2-9.41-5.18-17-11.27-20.22-20.14a27.16,27.16,0,0,1-1.54-7.06c16.75-8.95,29.75-27.2,34.78-50.5,7.92-1.3,13.86-9.66,14-20.17,0-.14,0-.28,0-.43v-.07a27,27,0,0,0-.9-6.85,21.88,21.88,0,0,0-4.32-8.46c.5-1,1-2,1.38-3a60.53,60.53,0,0,0,4.41-19.14,55.34,55.34,0,0,0-22.33-45.9,32.62,32.62,0,0,0-10.73-5.16,16.3,16.3,0,0,0-.39-9.91c-2.67-7.1-11.17-13-21.65-15-10-1.89-18.89.25-23.87,5.74a17.9,17.9,0,0,0-4.28,9.06,54.43,54.43,0,0,0-14.25-.14c-24,3-45.78,22.68-52.08,46.48-.3,1.12-.58,2.24-.8,3.38A61.1,61.1,0,0,0,1149,1467a54.16,54.16,0,0,0,3.62,8,26.3,26.3,0,0,0-1.3,8.24c0,.33,0,.65,0,1,.35,10.25,6.21,18.35,14,19.63,5,23.3,18,41.55,34.78,50.5a27.1,27.1,0,0,1-2.22,8.81c-3.53,7.93-10.75,13.55-19.52,18.38-5.3,2.91-11.18,5.54-17.15,8.21-9.41,4.2-19,8.48-26.34,14.2-6.32,4.91-11,10.89-12.6,18.8-.08.4-.16.81-.23,1.23a4.17,4.17,0,0,0,4.13,4.78h.45a4.08,4.08,0,0,0,.71-.06,4.26,4.26,0,0,0,3.42-3.53,20,20,0,0,1,4.12-9.09c4.1-5.23,10.73-9.26,18.53-13.08l2.76,6.43a21.81,21.81,0,0,0,20.07,13.23h95.23a21.82,21.82,0,0,0,20.07-13.23l2.75-6.43c2.07,1,4.06,2,5.94,3.11,8.82,5,15.26,10.69,16.71,19a4.39,4.39,0,0,0,8.67-1.4ZM1155.19,1436c4.34-21.76,23.84-40.19,45.36-42.88a46.47,46.47,0,0,1,16.19.92l5.58,1.3-.2-5.72c-.12-3.59.67-6.36,2.37-8.23,2.87-3.16,8.92-4.31,15.74-3,7.31,1.39,13.52,5.27,15.09,9.45,1,2.65-.12,5.91-1.23,8.17l-2.68,5.43,6,.85a24.93,24.93,0,0,1,12.13,4.65c11.79,8.46,19.13,23.57,18.67,38.51a50.33,50.33,0,0,1-4.39,17.52,13.36,13.36,0,0,0-3.59-.51,11.68,11.68,0,0,0-2.2.27,4.37,4.37,0,0,0-3.43,3h0c-3.07,9.77-11.85,16.76-18.72,20.92a72.79,72.79,0,0,0-3-39.38,70.93,70.93,0,0,0-15-24l-2.85-3-3.18,2.68c-7.24,6.12-32.09,26-59.22,34.82a4.5,4.5,0,0,0-3,5.48l-.32-.07a9.94,9.94,0,0,0-3-.67s-1,0-1.05.13a14.38,14.38,0,0,0-7.27,3.62A52.11,52.11,0,0,1,1155.19,1436Zm18.06,62.64-.51-2.89-.25-1.39-2.17.37-2.84.49c-2.26,0-4.36-1.85-5.75-4.63a16.87,16.87,0,0,1-1.66-7.37c0-4.78,1.94-9.12,4.54-11a4.77,4.77,0,0,1,2.79-1l5,.87.08,0,.76-4.31c.07-.36.13-.71.19-1.07v0c16.1-4.93,31.27-13.42,43.21-21.39,7.2-4.81,13.22-9.42,17.57-12.95h0a61.89,61.89,0,0,1,10.44,18c6.78,18.18,3.12,34.94.34,43.31l-1,2.88a3,3,0,0,0,4,3.72l2.79-1.17a74.72,74.72,0,0,0,12.62-6.85c6.83-4.62,14.36-11.44,18.29-20.69h0c3.25,1.23,5.84,6.17,5.84,11.7a17.08,17.08,0,0,1-1.37,6.82,9.41,9.41,0,0,1-3.52,4.37,5.13,5.13,0,0,1-2.8.75l-3.07-.52-1.66-.28v.07l-.18,1-.56,3.22c-3.56,20.16-14,36.68-27.46,45.65a41.74,41.74,0,0,1-23.15,7.3C1199.94,1551.63,1178.66,1529.36,1173.25,1498.68ZM1283.48,1606a13.07,13.07,0,0,1-12,7.92h-95.23a13,13,0,0,1-12-7.92l-2.87-6.67,3.44-1.54c19-8.49,40.28-18,43.72-39.82a49.22,49.22,0,0,0,30.67,0c3.43,21.8,24.73,31.33,43.71,39.82l3.44,1.54Z"/><path class="aa6c80b6-951b-4ba9-8dc8-b27c591cc33d" d="M1246.38,781.77c-5.56-1.52-9.33-.57-14.53.75A65.45,65.45,0,0,1,1214.7,785h-.44c-19.78,0-27.21,1-35.73,9.46h78.85C1255.31,789.07,1251.79,783.25,1246.38,781.77Z"/><path class="f7b3b6d3-3d67-4b8a-bea6-9328deeda1b9" d="M1281.65,878.86l.14-.85a3.7,3.7,0,0,1,4.26-3l1.31.22c4.44,0,8-5.81,8-12.43,0-6.28-3.21-11.83-7-12.44-.32.31-.62.63-.95.93l-.76.7a3.7,3.7,0,0,1-5.61-.73l-.56-.87c-4.29-6.69-7-11.34-9.56-15.85-1.32-2.29-2.64-4.57-4.16-7.12a53.07,53.07,0,0,1-6-15.85c-10.33,7.07-23.56,7.51-36.44,7.93-10,.33-19.5.65-27.27,3.94-10.43,4.42-14.32,7.68-19.26,16.25-.6,2.3-1.13,4.67-1.55,7l-.2,1.15a3.4,3.4,0,0,1-3.93,2.76l-2-.35c-4,0-7.64,5.85-7.64,12.51s3.61,12.5,7.73,12.5l2.5-.44a2.76,2.76,0,0,1,3.19,2.24l.31,1.76c5.63,32,27.8,55.15,52.71,55.15S1276,910.82,1281.65,878.86Z"/><path class="f7b3b6d3-3d67-4b8a-bea6-9328deeda1b9" d="M1251.12,949.3a62.31,62.31,0,0,1-1.75-10.38,51.48,51.48,0,0,1-40.87,0,63.39,63.39,0,0,1-1.74,10.38c-4.31,16.53-14.84,24.3-26.38,28.93a67,67,0,0,0,6.89,6,70.21,70.21,0,0,0,83.33,0,64.93,64.93,0,0,0,6.89-6C1266,973.6,1255.42,965.83,1251.12,949.3Z"/><path class="bd1bab50-591a-48f2-b0d6-62acb4aced0c" d="M1326,1010.25c-1.65-19-15.07-22.51-31.78-26.86-2.36-.61-4.78-1.25-7.22-1.95a75.18,75.18,0,0,1-11,10.08,79.34,79.34,0,0,1-94.27,0,75.11,75.11,0,0,1-11-10.08c-2.45.7-4.87,1.34-7.23,1.95-16.71,4.35-30.13,7.85-31.77,26.86a4.52,4.52,0,0,1-3.17,3.88c9.56,25.05,50.82,43.9,100.27,43.9s90.7-18.85,100.27-43.9A4.49,4.49,0,0,1,1326,1010.25Z"/><path class="f0917007-0f48-4296-956b-92beb1f32029" d="M1329.05,991.52c-4.35-6.07-10.58-9.76-17.38-12.4a138.68,138.68,0,0,0-15.11-4.57c-15.66-4.08-29.69-7.74-35.51-23.78a53.33,53.33,0,0,1-2.81-16.64c15.22-10,26.88-27.77,31.65-49.88,8.36-1.37,14.61-10.3,14.61-21.45,0-9.09-4.15-16.71-10.21-19.95,5.27-8.73,6.92-19.2,3.92-28-3.38-9.89-12.37-17.39-22.39-18.67a26,26,0,0,0-8.16.29c-.18-.65-.38-1.34-.59-2-2.65-8.45-8.29-18.75-18.28-21.48-7.87-2.16-13.36-.77-19.18.7a55.81,55.81,0,0,1-14.91,2.18h-.4c-22.54,0-33,1.47-45.5,15.64-.85,1-1.64,1.95-2.38,3a35.92,35.92,0,0,0-6.63,28.45c1.34,6.88,4.65,13.26,8.57,16.89-.12.53-.26,1-.38,1.56-8.35,1.37-14.61,10.3-14.61,21.46s6.26,20.08,14.61,21.45c4.78,22.11,16.43,39.84,31.66,49.88a53.31,53.31,0,0,1-2.82,16.64c-5.82,16-19.85,19.7-35.51,23.78-4.58,1.19-9.31,2.43-13.83,4.09-7.3,2.67-14,6.43-18.66,12.88-3.21,4.47-5.42,10.24-6.08,17.85a4.58,4.58,0,0,0,4.55,5,4.65,4.65,0,0,0,4.55-4.11c1.64-19,15.06-22.51,31.77-26.86,2.36-.61,4.78-1.25,7.23-1.95a75.11,75.11,0,0,0,11,10.08,79.34,79.34,0,0,0,94.27,0,75.18,75.18,0,0,0,11-10.08c2.44.7,4.86,1.34,7.22,1.95,16.71,4.35,30.13,7.85,31.78,26.86a4.49,4.49,0,0,0,3.17,3.88,4.42,4.42,0,0,0,1.37.23,4.58,4.58,0,0,0,4.55-5C1334.47,1001.76,1332.27,996,1329.05,991.52ZM1176.23,878.86l-.31-1.76a2.76,2.76,0,0,0-3.19-2.24l-2.5.44c-4.12,0-7.73-5.84-7.73-12.5s3.61-12.5,7.64-12.51l2,.35a3.4,3.4,0,0,0,3.93-2.76l.2-1.15c.42-2.37,1-4.74,1.55-7,4.94-8.57,8.83-11.83,19.26-16.25,7.77-3.29,17.24-3.61,27.27-3.94,12.88-.42,26.11-.86,36.44-7.93a53.07,53.07,0,0,0,6,15.85c1.52,2.55,2.84,4.83,4.16,7.12,2.59,4.51,5.27,9.16,9.56,15.85l.56.87a3.7,3.7,0,0,0,5.61.73l.76-.7c.33-.3.63-.62.95-.93,3.81.61,7,6.16,7,12.44,0,6.62-3.57,12.43-8,12.43l-1.31-.22a3.7,3.7,0,0,0-4.26,3l-.14.85c-5.64,32-27.81,55.15-52.71,55.15S1181.86,910.82,1176.23,878.86ZM1270.6,984.2a70.21,70.21,0,0,1-83.33,0,67,67,0,0,1-6.89-6c11.54-4.63,22.07-12.4,26.38-28.93a63.39,63.39,0,0,0,1.74-10.38,51.48,51.48,0,0,0,40.87,0,62.31,62.31,0,0,0,1.75,10.38c4.3,16.53,14.84,24.3,26.37,28.93A64.93,64.93,0,0,1,1270.6,984.2Z"/></g></svg>