<svg xmlns="http://www.w3.org/2000/svg" viewBox="0 0 272.72 271.78"><defs><style>.b970e69c-996a-4185-a403-e4dc2a1013a1{fill:none;}.ea480fdc-dcee-4876-ae8f-148316655489{fill:#006691;}.f96fa40e-1046-49b7-9652-9e7170377265{fill:#fff;}</style></defs><g id="b3522c2b-4690-43c0-843f-45942e7cc593" data-name="Lineas"><path class="b970e69c-996a-4185-a403-e4dc2a1013a1" d="M106.66,110.2l7.43,7.42,8.54-8.53-7.43-7.43a4.8,4.8,0,0,1-.63-6,46.74,46.74,0,0,0,6.62-15.91,4.79,4.79,0,0,1,4.69-3.8h10.48V63.88H125.88a4.8,4.8,0,0,1-4.69-3.8,46.79,46.79,0,0,0-6.62-15.92,4.78,4.78,0,0,1,.63-6l7.43-7.43-8.54-8.54-7.43,7.43a4.77,4.77,0,0,1-6,.63,46.9,46.9,0,0,0-15.92-6.62A4.78,4.78,0,0,1,81,19V8.48H68.88V19a4.78,4.78,0,0,1-3.79,4.68,46.9,46.9,0,0,0-15.92,6.62,4.77,4.77,0,0,1-6-.63L35.75,22.2l-8.54,8.54,7.43,7.43a4.77,4.77,0,0,1,.62,6,47,47,0,0,0-6.61,15.92A4.8,4.8,0,0,1,24,63.88H13.48V76H24a4.79,4.79,0,0,1,4.69,3.8,46.91,46.91,0,0,0,6.61,15.91,4.78,4.78,0,0,1-.62,6l-7.43,7.43,8.54,8.53,7.43-7.42a4.78,4.78,0,0,1,6-.63,46.9,46.9,0,0,0,15.92,6.62,4.78,4.78,0,0,1,3.79,4.68v10.48H81V120.87a4.78,4.78,0,0,1,3.79-4.68,46.9,46.9,0,0,0,15.92-6.62A4.78,4.78,0,0,1,106.66,110.2Zm-31.74-6.38a33.91,33.91,0,1,1,33.91-33.91A33.95,33.95,0,0,1,74.92,103.82Z"/><path class="b970e69c-996a-4185-a403-e4dc2a1013a1" d="M193.53,166A14.6,14.6,0,1,0,202,184.78h0A14.62,14.62,0,0,0,193.53,166Z"/><path class="b970e69c-996a-4185-a403-e4dc2a1013a1" d="M74.92,45.58A24.34,24.34,0,1,0,99.25,69.91,24.36,24.36,0,0,0,74.92,45.58Z"/><path class="b970e69c-996a-4185-a403-e4dc2a1013a1" d="M204.67,46.18a9.48,9.48,0,1,0-9.47-9.48A9.49,9.49,0,0,0,204.67,46.18Z"/><path class="b970e69c-996a-4185-a403-e4dc2a1013a1" d="M254.86,193a67.86,67.86,0,0,0-1-30.88,4.78,4.78,0,0,1,2.65-5.6l7.61-3.44-5.75-12.73-7.61,3.45a4.79,4.79,0,0,1-6-1.72A67.89,67.89,0,0,0,222.3,120.9a4.78,4.78,0,0,1-2.09-5.83l2.95-7.81-13.06-4.94-2.95,7.81a4.8,4.8,0,0,1-5.43,3,68.11,68.11,0,0,0-30.87,1,4.79,4.79,0,0,1-5.61-2.65l-3.44-7.61-12.72,5.74,3.44,7.62a4.79,4.79,0,0,1-1.71,6,67.7,67.7,0,0,0-21.15,22.52,4.77,4.77,0,0,1-5.84,2.08L116,144.84l-4.93,13.06,7.81,2.95a4.78,4.78,0,0,1,3,5.42,67.87,67.87,0,0,0,1,30.88,4.78,4.78,0,0,1-2.66,5.6l-7.61,3.44,5.75,12.73,7.61-3.45a4.79,4.79,0,0,1,6,1.72,67.89,67.89,0,0,0,22.52,21.15,4.79,4.79,0,0,1,2.09,5.84l-2.95,7.8,13.06,4.94,2.95-7.81a4.82,4.82,0,0,1,5.43-3,67.82,67.82,0,0,0,30.87-1,4.79,4.79,0,0,1,5.61,2.65l3.44,7.62,12.72-5.75L224.23,242a4.78,4.78,0,0,1,1.72-6,68.09,68.09,0,0,0,21.15-22.52,4.79,4.79,0,0,1,5.84-2.09l7.8,2.95,4.93-13.07-7.8-2.94A4.8,4.8,0,0,1,254.86,193ZM238,198.36A53.06,53.06,0,1,1,207.12,130,53.17,53.17,0,0,1,238,198.36Z"/><path class="b970e69c-996a-4185-a403-e4dc2a1013a1" d="M203.74,138.94a43.48,43.48,0,1,0,25.32,56A43.37,43.37,0,0,0,203.74,138.94ZM211,188.16A24.17,24.17,0,1,1,196.92,157,24.21,24.21,0,0,1,211,188.16Z"/><path class="ea480fdc-dcee-4876-ae8f-148316655489" d="M207.12,130A53.06,53.06,0,1,0,238,198.36,53.12,53.12,0,0,0,207.12,130Zm21.94,65a43.5,43.5,0,1,1-25.32-56A43.53,43.53,0,0,1,229.06,195Z"/><path class="ea480fdc-dcee-4876-ae8f-148316655489" d="M196.92,157A24.18,24.18,0,1,0,211,188.16,24.21,24.21,0,0,0,196.92,157ZM202,184.78h0A14.61,14.61,0,1,1,193.53,166,14.62,14.62,0,0,1,202,184.78Z"/><path class="f96fa40e-1046-49b7-9652-9e7170377265" d="M273.53,194.08,265,190.84a77.76,77.76,0,0,0-.87-27.25l8.37-3.79a4.78,4.78,0,0,0,2.39-6.33L265.14,132a4.77,4.77,0,0,0-2.67-2.51,4.84,4.84,0,0,0-3.66.12l-8.37,3.78a77.56,77.56,0,0,0-19.87-18.67l3.24-8.58A4.8,4.8,0,0,0,231,100l-22-8.31a4.79,4.79,0,0,0-6.17,2.78L199.59,103a78,78,0,0,0-27.25.88l-3.78-8.37a4.8,4.8,0,0,0-6.34-2.39l-21.45,9.69a4.8,4.8,0,0,0-2.39,6.33l3.79,8.37a77.44,77.44,0,0,0-18.67,19.88l-8.58-3.24a4.77,4.77,0,0,0-6.17,2.79l-8.32,22a4.8,4.8,0,0,0,2.79,6.17l8.58,3.23a77.59,77.59,0,0,0,.88,27.26l-8.37,3.78a4.79,4.79,0,0,0-2.4,6.33l9.7,21.45a4.78,4.78,0,0,0,6.33,2.39l8.37-3.78a77.56,77.56,0,0,0,19.87,18.67l-3.24,8.58a4.8,4.8,0,0,0,2.79,6.17l22,8.31a4.79,4.79,0,0,0,6.17-2.78l3.24-8.58a77.78,77.78,0,0,0,27.25-.88l3.79,8.37a4.79,4.79,0,0,0,6.33,2.39L236,256.39a4.78,4.78,0,0,0,2.39-6.33l-3.78-8.37a77.78,77.78,0,0,0,18.67-19.88l8.58,3.25a4.8,4.8,0,0,0,6.17-2.79l8.31-22A4.78,4.78,0,0,0,273.53,194.08Zm-12.79,20.33-7.8-2.95a4.79,4.79,0,0,0-5.84,2.09A68.09,68.09,0,0,1,226,236.07a4.78,4.78,0,0,0-1.72,6l3.44,7.62L215,255.39l-3.44-7.62a4.79,4.79,0,0,0-5.61-2.65,67.82,67.82,0,0,1-30.87,1,4.82,4.82,0,0,0-5.43,3l-2.95,7.81L153.59,252l2.95-7.8a4.79,4.79,0,0,0-2.09-5.84,67.89,67.89,0,0,1-22.52-21.15,4.79,4.79,0,0,0-6-1.72l-7.61,3.45-5.75-12.73,7.61-3.44a4.78,4.78,0,0,0,2.66-5.6,67.87,67.87,0,0,1-1-30.88,4.78,4.78,0,0,0-3-5.42l-7.81-2.95L116,144.84l7.81,2.94a4.77,4.77,0,0,0,5.84-2.08,67.7,67.7,0,0,1,21.15-22.52,4.79,4.79,0,0,0,1.71-6l-3.44-7.62,12.72-5.74,3.44,7.61a4.79,4.79,0,0,0,5.61,2.65,68.11,68.11,0,0,1,30.87-1,4.8,4.8,0,0,0,5.43-3l2.95-7.81,13.06,4.94-2.95,7.81a4.78,4.78,0,0,0,2.09,5.83,67.89,67.89,0,0,1,22.52,21.15,4.79,4.79,0,0,0,6,1.72l7.61-3.45,5.75,12.73-7.61,3.44a4.78,4.78,0,0,0-2.65,5.6,67.86,67.86,0,0,1,1,30.88,4.8,4.8,0,0,0,3,5.43l7.8,2.94Z"/><path class="f96fa40e-1046-49b7-9652-9e7170377265" d="M74.92,36a33.91,33.91,0,1,0,33.91,33.9A33.94,33.94,0,0,0,74.92,36Zm0,58.24A24.34,24.34,0,1,1,99.25,69.91,24.36,24.36,0,0,1,74.92,94.25Z"/><path class="ea480fdc-dcee-4876-ae8f-148316655489" d="M15.25,194.09a4.78,4.78,0,0,0,6.06-3,27.88,27.88,0,0,1,9.33-13.15,4.79,4.79,0,0,0-5.9-7.55A37.55,37.55,0,0,0,12.23,188,4.78,4.78,0,0,0,15.25,194.09Z"/><path class="ea480fdc-dcee-4876-ae8f-148316655489" d="M31.41,222.59a27.8,27.8,0,0,1-9.77-12.81,4.79,4.79,0,0,0-9,3.36,37.45,37.45,0,0,0,13.12,17.2,4.73,4.73,0,0,0,2.81.91,4.78,4.78,0,0,0,2.81-8.66Z"/><path class="ea480fdc-dcee-4876-ae8f-148316655489" d="M69.16,169.15a37.35,37.35,0,0,0-20.59-6.67,4.73,4.73,0,0,0-4.88,4.68,4.8,4.8,0,0,0,4.69,4.89,27.79,27.79,0,0,1,15.32,5,4.79,4.79,0,1,0,5.46-7.86Z"/><path class="ea480fdc-dcee-4876-ae8f-148316655489" d="M77.89,186.26a4.78,4.78,0,0,0-3.27,5.92,28,28,0,0,1-.17,16.12,4.79,4.79,0,0,0,3.15,6,4.66,4.66,0,0,0,1.42.21,4.79,4.79,0,0,0,4.57-3.35,37.74,37.74,0,0,0,.23-21.63A4.78,4.78,0,0,0,77.89,186.26Z"/><path class="ea480fdc-dcee-4876-ae8f-148316655489" d="M63.21,223.25a27.74,27.74,0,0,1-15.42,4.64,4.79,4.79,0,0,0,0,9.58,37.35,37.35,0,0,0,20.72-6.24,4.79,4.79,0,0,0-5.3-8Z"/><path class="ea480fdc-dcee-4876-ae8f-148316655489" d="M237.27,53.2a4.82,4.82,0,0,0,6.1-2.94,41,41,0,0,0,2.29-13.56,41.48,41.48,0,0,0-.74-7.8,4.79,4.79,0,0,0-9.4,1.82,31.59,31.59,0,0,1-1.19,16.37A4.8,4.8,0,0,0,237.27,53.2Z"/><path class="ea480fdc-dcee-4876-ae8f-148316655489" d="M220.52,63.84a31.53,31.53,0,0,1-19.45,4.07A4.79,4.79,0,0,0,200,77.43a43.22,43.22,0,0,0,4.69.26,41,41,0,0,0,20.69-5.59,4.79,4.79,0,1,0-4.84-8.26Z"/><path class="ea480fdc-dcee-4876-ae8f-148316655489" d="M209.23,5.61a31.25,31.25,0,0,1,15.05,6.55,4.79,4.79,0,0,0,6-7.48,40.93,40.93,0,0,0-19.66-8.54A4.79,4.79,0,0,0,205.18.19,4.78,4.78,0,0,0,209.23,5.61Z"/><path class="ea480fdc-dcee-4876-ae8f-148316655489" d="M170.37,24.13a4.68,4.68,0,0,0,2.22.55,4.8,4.8,0,0,0,4.25-2.56,31.53,31.53,0,0,1,11.16-12A4.79,4.79,0,1,0,182.91,2a41.15,41.15,0,0,0-14.55,15.71A4.78,4.78,0,0,0,170.37,24.13Z"/><path class="ea480fdc-dcee-4876-ae8f-148316655489" d="M174.71,64.68a4.79,4.79,0,0,0,7-6.53A31.42,31.42,0,0,1,174,43.64a4.79,4.79,0,1,0-9.34,2.1A40.94,40.94,0,0,0,174.71,64.68Z"/><path class="ea480fdc-dcee-4876-ae8f-148316655489" d="M204.67,55.75a19,19,0,1,0-19-19A19.06,19.06,0,0,0,204.67,55.75Zm0-28.52a9.48,9.48,0,1,1-9.47,9.47A9.49,9.49,0,0,1,204.67,27.23Z"/><path class="f96fa40e-1046-49b7-9652-9e7170377265" d="M110.71,127.78a4.79,4.79,0,0,0,6.77,0l15.3-15.31a4.79,4.79,0,0,0,0-6.77l-8.16-8.16a56.47,56.47,0,0,0,5-12h11.52a4.79,4.79,0,0,0,4.79-4.79V59.09a4.79,4.79,0,0,0-4.79-4.79H129.62a56.47,56.47,0,0,0-5-12l8.16-8.16a4.79,4.79,0,0,0,0-6.77l-15.3-15.31a4.79,4.79,0,0,0-6.77,0l-8.17,8.16a56.22,56.22,0,0,0-12-5V3.69A4.79,4.79,0,0,0,85.74-1.1H64.1a4.79,4.79,0,0,0-4.79,4.79V15.22a56,56,0,0,0-12,5l-8.17-8.16a4.79,4.79,0,0,0-6.77,0L17.06,27.36a4.79,4.79,0,0,0,0,6.77l8.16,8.16a56,56,0,0,0-5,12H8.7a4.79,4.79,0,0,0-4.79,4.79V80.74A4.79,4.79,0,0,0,8.7,85.53H20.22a56,56,0,0,0,5,12l-8.16,8.16a4.79,4.79,0,0,0,0,6.77l15.3,15.31a4.79,4.79,0,0,0,6.77,0l8.17-8.16a56,56,0,0,0,12,5v11.53a4.78,4.78,0,0,0,4.79,4.78H85.74a4.78,4.78,0,0,0,4.79-4.78V124.61a56.22,56.22,0,0,0,12-5Zm-26-11.59A4.78,4.78,0,0,0,81,120.87v10.48H68.88V120.87a4.78,4.78,0,0,0-3.79-4.68,46.9,46.9,0,0,1-15.92-6.62,4.78,4.78,0,0,0-6,.63l-7.43,7.42-8.54-8.53,7.43-7.43a4.78,4.78,0,0,0,.62-6,46.91,46.91,0,0,1-6.61-15.91A4.79,4.79,0,0,0,24,76H13.48V63.88H24a4.8,4.8,0,0,0,4.69-3.8,47,47,0,0,1,6.61-15.92,4.77,4.77,0,0,0-.62-6l-7.43-7.43,8.54-8.54,7.43,7.43a4.77,4.77,0,0,0,6,.63,46.9,46.9,0,0,1,15.92-6.62A4.78,4.78,0,0,0,68.88,19V8.48H81V19a4.78,4.78,0,0,0,3.79,4.68,46.9,46.9,0,0,1,15.92,6.62,4.77,4.77,0,0,0,6-.63l7.43-7.43,8.54,8.54-7.43,7.43a4.78,4.78,0,0,0-.63,6,46.79,46.79,0,0,1,6.62,15.92,4.8,4.8,0,0,0,4.69,3.8h10.48V76H125.88a4.79,4.79,0,0,0-4.69,3.8,46.74,46.74,0,0,1-6.62,15.91,4.8,4.8,0,0,0,.63,6l7.43,7.43-8.54,8.53-7.43-7.42a4.78,4.78,0,0,0-6-.63A46.9,46.9,0,0,1,84.75,116.19Z"/></g></svg>