<svg id="b83f0fb0-6e62-4abb-b552-64b6b1c7fb86" data-name="Capa 1" xmlns="http://www.w3.org/2000/svg" viewBox="0 0 800 800"><defs><style>.b41a9d66-46c5-4f9d-b1e4-2ebcc25cb1e7{fill:#3c3c3b;}</style></defs><path class="b41a9d66-46c5-4f9d-b1e4-2ebcc25cb1e7" d="M446.78,567.37A46.78,46.78,0,1,1,400,520.59,46.78,46.78,0,0,1,446.78,567.37Z"/><path class="b41a9d66-46c5-4f9d-b1e4-2ebcc25cb1e7" d="M400,185.86c-114.51,0-217.51,50.15-288.24,129.62a29.26,29.26,0,0,0,1.06,40.18l0,0a29.2,29.2,0,0,0,42.49-1.28c60-67.49,147.45-110.08,244.66-110.08s184.64,42.59,244.66,110.08a29.2,29.2,0,0,0,42.49,1.28l0,0a29.26,29.26,0,0,0,1.06-40.18C617.51,236,514.51,185.86,400,185.86Z"/><path class="b41a9d66-46c5-4f9d-b1e4-2ebcc25cb1e7" d="M400,287.2c-90,0-170.78,40.37-225.16,103.94a29.25,29.25,0,0,0,1.48,39.72l.07.06a29.22,29.22,0,0,0,42.89-1.74,237.3,237.3,0,0,1,361.44,0,29.21,29.21,0,0,0,42.89,1.74l.07-.06a29.25,29.25,0,0,0,1.48-39.72C570.78,327.57,490,287.2,400,287.2Z"/><path class="b41a9d66-46c5-4f9d-b1e4-2ebcc25cb1e7" d="M400,393.42a189.73,189.73,0,0,0-150.65,74.42,29.24,29.24,0,0,0,2.46,38.51h0a29.2,29.2,0,0,0,43.81-2.87,131.39,131.39,0,0,1,208.76,0,29.2,29.2,0,0,0,43.81,2.87h0a29.24,29.24,0,0,0,2.46-38.51A189.73,189.73,0,0,0,400,393.42Z"/></svg>