<svg id="acdc7dfc-e188-4ce4-9519-b76a0b96259c" data-name="Capa 1" xmlns="http://www.w3.org/2000/svg" viewBox="0 0 800 800"><defs><style>.a156566e-9be3-4ebc-a05d-36e6abedc692{fill:#006691;}.f5c7ee3e-48d6-4da6-b3a3-7c435c17efda{fill:#e62a32;}.e7d3f999-315d-4548-94e0-52aae7f724e2{fill:#3c3c3b;}</style></defs><path class="a156566e-9be3-4ebc-a05d-36e6abedc692" d="M551.4,444.54a17,17,0,0,0-17-17.05H370.63a17.06,17.06,0,0,0,0,34.11H534.35A17.05,17.05,0,0,0,551.4,444.54ZM200.09,574.15a13.64,13.64,0,0,1-13.64-13.64V328.57a13.64,13.64,0,0,1,13.64-13.64H554.81a13.65,13.65,0,0,1,13.65,13.64V457.15L623,402.58V233.07a54.57,54.57,0,0,0-54.57-54.57h-382a54.58,54.58,0,0,0-54.58,54.57V574.15a54.58,54.58,0,0,0,54.58,54.58H409.06a40.78,40.78,0,0,1,11.38-23.6c4.94-5,18.72-18.69,18.72-18.69l12.3-12.29Zm95.5-347.9h54.58a20.47,20.47,0,0,1,0,40.93H295.59a20.47,20.47,0,0,1,0-40.93Zm-81.86-6.82a27.29,27.29,0,1,1-27.28,27.29A27.29,27.29,0,0,1,213.73,219.43Zm437.5,291.1L612.1,471.4a6.81,6.81,0,0,0-9.65,0L492.82,581a6.83,6.83,0,0,0,0,9.65L532,629.81a6.83,6.83,0,0,0,9.65,0L651.23,520.18A6.81,6.81,0,0,0,651.23,510.53Zm-417-14.83a17.06,17.06,0,1,0,0,34.11H479.78a17.06,17.06,0,0,0,0-34.11ZM534.35,359.27H370.63a17.06,17.06,0,0,0,0,34.11H534.35a17.06,17.06,0,0,0,0-34.11Z"/><path class="f5c7ee3e-48d6-4da6-b3a3-7c435c17efda" d="M295.59,355.86H241a13.64,13.64,0,0,0-13.64,13.64v68.22A13.64,13.64,0,0,0,241,451.36h54.57a13.65,13.65,0,0,0,13.65-13.64V369.5A13.65,13.65,0,0,0,295.59,355.86ZM705.15,456.61,666,417.48a6.81,6.81,0,0,0-9.65,0L635.81,438a6.8,6.8,0,0,0,0,9.64L675,486.82a6.82,6.82,0,0,0,9.64,0l20.56-20.56A6.81,6.81,0,0,0,705.15,456.61Z"/><path class="e7d3f999-315d-4548-94e0-52aae7f724e2" d="M484.47,596.4a6.78,6.78,0,0,0-9.61,0C470.41,600.8,464,607.16,461,610.2a6.63,6.63,0,0,0-1.91,4.24l-3.4,44.16a6.82,6.82,0,0,0,7.58,7.3L505.71,661a6.88,6.88,0,0,0,4-1.95l13.87-13.87a6.83,6.83,0,0,0,0-9.65Z"/></svg>