<svg id="f852830f-7447-411b-9659-6bd0aa9f2e5b" data-name="Capa 1" xmlns="http://www.w3.org/2000/svg" viewBox="0 0 800 800"><defs><style>.b00a2ebf-c034-49f6-a59c-58b7b362e8d8{fill:#3c3c3b;}.a7df7755-e16e-40e6-b3b1-e7408e307d87{fill:#fceaea;}.bc04445e-0b34-4da7-b532-7363caea7d60{fill:#006691;}</style></defs><path class="b00a2ebf-c034-49f6-a59c-58b7b362e8d8" d="M579.39,324.58H559.9V305.19c0-49.2-42.68-89.22-95.14-89.22s-95.14,40-95.14,89.22v19.39H350.13c-7.23,0-13.08,5.49-13.08,12.27V516a12.51,12.51,0,0,0,11.26,12.15,942.16,942.16,0,0,0,116.45,7.08,942.16,942.16,0,0,0,116.45-7.08A12.51,12.51,0,0,0,592.47,516V336.85C592.47,330.07,586.62,324.58,579.39,324.58ZM511.6,444.37a21,21,0,0,1,6.18,5.53,11.48,11.48,0,0,1,2.21,6.82,14.38,14.38,0,0,1-1.13,5.36,21.28,21.28,0,0,1-3,5.12,16.91,16.91,0,0,1-4.14,3.85,8.56,8.56,0,0,1-4.71,1.52,14.92,14.92,0,0,1-5.1-1,20,20,0,0,1-5.33-3L480.3,457l-1.36.93V477q0,8-3.06,12.4t-11.23,4.37q-7.83,0-10.83-4.37t-3-12.4V457.88l-1.13-.93L432.89,468.6q-5.55,4-10.43,4a8.56,8.56,0,0,1-4.71-1.52,17.09,17.09,0,0,1-4.14-3.85,21.24,21.24,0,0,1-2.94-5.12,14.2,14.2,0,0,1-1.14-5.36,11.48,11.48,0,0,1,2.21-6.82,21.1,21.1,0,0,1,6.18-5.53l20.64-12.82v-1.4L418.38,417.8a22.13,22.13,0,0,1-6.47-5.65,11.39,11.39,0,0,1-2.38-6.94,13.2,13.2,0,0,1,1.25-5.36,23.14,23.14,0,0,1,3.12-5.12,17.35,17.35,0,0,1,4.25-3.85,8.5,8.5,0,0,1,4.54-1.51q4.76,0,10.88,4.19l16.11,11.19,1.13-.94V382.37q0-7.33,3-11.82t10.83-4.49a17.25,17.25,0,0,1,6.8,1.17,11,11,0,0,1,4.43,3.32,12.87,12.87,0,0,1,2.38,5.12,30.36,30.36,0,0,1,.68,6.7v21.44l1.13.94L496,393.56q6.12-4.19,10.89-4.19a8.37,8.37,0,0,1,4.59,1.51,17.67,17.67,0,0,1,4.19,3.85,23.14,23.14,0,0,1,3.12,5.12,13,13,0,0,1,1.25,5.36,11.39,11.39,0,0,1-2.38,6.94,22,22,0,0,1-6.47,5.65L491,430.15v1.4Zm16-119.79H401.92V305.19c0-32.49,28.19-58.92,62.84-58.92s62.83,26.43,62.83,58.92Z"/><path class="a7df7755-e16e-40e6-b3b1-e7408e307d87" d="M198.06,539.54a13,13,0,0,1,6.62-10.13l6.92-3.22A120.17,120.17,0,0,1,226,517.7c3.33-2.44,6.76-4.77,10.25-7,34.18-21.92,75.07-34,115.63-37.78q12.07-1.14,24.05-1.31c8.81-.13,17.54.11,26.11.72,26,8.86,24,50.53-2.08,57.81-2.67.9-5.45,1.71-8.3,2.49-26.25,7.13-58.79,10.5-75.22,32a47.09,47.09,0,0,0-6.58,11.86c4.68,33.33,39.67,22,78.39,21.16,66.58-1.51,240.09-45.65,261.71-61.78,6.28-3.4,12.31-4,17.76-2.58,22.1,5.66,34.48,44,14,59.87a498.28,498.28,0,0,1-76.81,57.49q-7.29,4.44-14.71,8.65a557.44,557.44,0,0,1-170.46,62c-4.42.78-8.9,1.48-13.41,2.12-4.35,1.13-8.73,2.16-13.18,3-20.45,4.91-42.41,9-64.25,10a184.3,184.3,0,0,1-34.42-1.53c-5.05-.13-10.09-.21-15.13-.21a365.51,365.51,0,0,1-38.38-3.78A158.69,158.69,0,0,1,216.4,725,39.06,39.06,0,0,1,198,691.78v-151C198,540.38,198,540,198.06,539.54Z"/><path class="bc04445e-0b34-4da7-b532-7363caea7d60" d="M179.25,731.88a17.66,17.66,0,0,0,17.67-17.66V528.87a17.67,17.67,0,0,0-17.67-17.67h-70.5a17.67,17.67,0,0,0-17.67,17.67V714.22a17.66,17.66,0,0,0,17.67,17.66Z"/><path class="bc04445e-0b34-4da7-b532-7363caea7d60" d="M89.36,768.69c15.68,0,28.39-10.74,28.39-24V493.16c0-13.25-12.71-24-28.39-24H-24c-15.68,0-28.4,10.73-28.4,24V744.71c0,13.24,12.71,24,28.39,24Z"/></svg>