<svg id="f6717e8a-be86-4ab9-88ef-60df96796397" data-name="Capa 1" xmlns="http://www.w3.org/2000/svg" viewBox="0 0 800 800"><defs><style>.bb37aa49-af7b-4afa-ad7f-cad12312db71{fill:#3c3c3b;}.a092812c-3999-47d9-9134-0d31320e229c{fill:#ffec36;}.e5a3e1d6-950c-43fd-9f7a-38397165d2e0{fill:#fff;}</style></defs><path class="bb37aa49-af7b-4afa-ad7f-cad12312db71" d="M361.73,99.43c24.84-43,86.94-43,111.78,0l146,252.88,146,252.89c24.84,43-6.21,96.81-55.89,96.81h-584c-49.68,0-80.74-53.79-55.89-96.81l146-252.89Z"/><path class="a092812c-3999-47d9-9134-0d31320e229c" d="M742.32,618.59l-292-505.77a37.75,37.75,0,0,0-65.39,0l-292,505.77a37.76,37.76,0,0,0,32.7,56.63h584a37.75,37.75,0,0,0,32.69-56.63ZM130.74,634.51,417.62,137.62,704.51,634.51Z"/><circle class="e5a3e1d6-950c-43fd-9f7a-38397165d2e0" cx="417.62" cy="302.9" r="42.78"/><circle class="e5a3e1d6-950c-43fd-9f7a-38397165d2e0" cx="417.62" cy="505.12" r="22.97" transform="translate(-103.61 107.79) rotate(-13.1)"/><polygon class="e5a3e1d6-950c-43fd-9f7a-38397165d2e0" points="374.85 302.9 395.09 509.56 440.3 508.58 460.4 302.9 374.85 302.9"/><circle class="e5a3e1d6-950c-43fd-9f7a-38397165d2e0" cx="417.62" cy="577.5" r="27.71" transform="translate(-86.14 73.38) rotate(-9.11)"/></svg>