<svg id="bf5335ec-9af7-4da5-a06c-c32de3f2f74f" data-name="Capa 1" xmlns="http://www.w3.org/2000/svg" viewBox="0 0 453.54 170.08"><defs><style>.bf185854-77bf-49ac-9180-78ac963cac47{fill:#3c3c3b;}.b2e5ab81-6d0f-4145-b2c5-a0f3690dab36{fill:#fff;}.a102d356-2c88-4caf-aa7a-2aab60040755{fill:#00b5e2;}</style></defs><path class="bf185854-77bf-49ac-9180-78ac963cac47" d="M140.83,74.25A3.66,3.66,0,0,1,141.89,77V103.3a3.73,3.73,0,0,1-1.06,2.71,3.56,3.56,0,0,1-2.67,1.08,3.52,3.52,0,0,1-2.64-1,3.9,3.9,0,0,1-1.09-2.68,13.52,13.52,0,0,1-9.77,4.36,14.25,14.25,0,0,1-7.78-2.21,15.44,15.44,0,0,1-5.5-6.13,19.1,19.1,0,0,1-2-8.9,19.63,19.63,0,0,1,2-8.92,15.29,15.29,0,0,1,5.45-6.16,13.78,13.78,0,0,1,7.62-2.21,14.34,14.34,0,0,1,5.6,1.09A14.9,14.9,0,0,1,134.43,77V77a3.72,3.72,0,0,1,1-2.7,3.87,3.87,0,0,1,5.35,0Zm-8.64,23.67a12.16,12.16,0,0,0,0-14.9,8.7,8.7,0,0,0-13.13,0,12.21,12.21,0,0,0,0,14.9,8.2,8.2,0,0,0,6.56,3A8.31,8.31,0,0,0,132.19,97.92Z"/><path class="bf185854-77bf-49ac-9180-78ac963cac47" d="M176.73,74.9a3.7,3.7,0,0,1,1.06,2.7V93.41q0,6.72-3.7,10.51t-10.55,3.8q-6.84,0-10.51-3.8t-3.67-10.51V77.6a3.7,3.7,0,0,1,1.06-2.7,3.54,3.54,0,0,1,2.67-1.09,3.57,3.57,0,0,1,2.68,1.09,3.73,3.73,0,0,1,1,2.7V93.41c0,2.53.56,4.4,1.68,5.63a6.51,6.51,0,0,0,5,1.83,6.59,6.59,0,0,0,5.1-1.83c1.12-1.23,1.68-3.1,1.68-5.63V77.6a3.74,3.74,0,0,1,1.06-2.7,3.83,3.83,0,0,1,5.35,0Z"/><path class="bf185854-77bf-49ac-9180-78ac963cac47" d="M202.51,100.9a3.32,3.32,0,0,1-1.12,5,7.58,7.58,0,0,1-4.13,1.15,12,12,0,0,1-6.5-1.64c-1.77-1.1-2.65-3.44-2.65-7V81.28h-2.86a3.4,3.4,0,0,1-3.48-3.49,3.2,3.2,0,0,1,1-2.39,3.4,3.4,0,0,1,2.49-1h2.86v-4a3.71,3.71,0,0,1,3.8-3.79,3.52,3.52,0,0,1,2.61,1.08,3.77,3.77,0,0,1,1.06,2.71v4H200a3.42,3.42,0,0,1,3.49,3.49,3.17,3.17,0,0,1-1,2.39,3.44,3.44,0,0,1-2.49,1h-4.41V98.14a2.35,2.35,0,0,0,.68,1.89,2.74,2.74,0,0,0,1.87.59,5.53,5.53,0,0,0,1.37-.24,3.64,3.64,0,0,1,1.43-.32A2,2,0,0,1,202.51,100.9Z"/><path class="bf185854-77bf-49ac-9180-78ac963cac47" d="M237.69,92.1a3.94,3.94,0,0,1-2.61.93H214.55A9.41,9.41,0,0,0,218,98.79a9.57,9.57,0,0,0,6,2.08,13.46,13.46,0,0,0,4-.46,10.51,10.51,0,0,0,2.27-1l1.15-.71a4.66,4.66,0,0,1,2.11-.56,3,3,0,0,1,2.24.93,3,3,0,0,1,.94,2.18,3.87,3.87,0,0,1-1.74,3,14.78,14.78,0,0,1-4.67,2.43,19.25,19.25,0,0,1-15-1.18,15.19,15.19,0,0,1-6-6,17.55,17.55,0,0,1-2.11-8.62,19,19,0,0,1,2.24-9.4,15.89,15.89,0,0,1,5.91-6.19,15.25,15.25,0,0,1,7.83-2.14,14.49,14.49,0,0,1,7.75,2.24,16.75,16.75,0,0,1,5.82,6,16.24,16.24,0,0,1,2.17,8.21A3.17,3.17,0,0,1,237.69,92.1Zm-23.08-5.29h16.3v-.43a6.4,6.4,0,0,0-2.55-4.48A8,8,0,0,0,223.13,80Q215.92,80,214.61,86.81Z"/><path class="bf185854-77bf-49ac-9180-78ac963cac47" d="M272.66,77q2.43,3.76,2.43,10.42V103.3A3.77,3.77,0,0,1,274,106a3.6,3.6,0,0,1-2.68,1.08,3.56,3.56,0,0,1-2.67-1.08,3.73,3.73,0,0,1-1.06-2.71V87.37A9,9,0,0,0,266.19,82q-1.43-2-4.91-2a7.6,7.6,0,0,0-5.67,2.09,7.21,7.21,0,0,0-2.05,5.25V103.3A3.73,3.73,0,0,1,252.5,106a3.56,3.56,0,0,1-2.67,1.08,3.6,3.6,0,0,1-2.68-1.08,3.76,3.76,0,0,1-1.05-2.71V77.6a3.73,3.73,0,0,1,1.05-2.7,3.57,3.57,0,0,1,2.68-1.09,3.54,3.54,0,0,1,2.67,1.09,3.7,3.7,0,0,1,1.06,2.7v1.06A15,15,0,0,1,258,74.8a11.41,11.41,0,0,1,5.94-1.61Q270.24,73.19,272.66,77Z"/><path class="bf185854-77bf-49ac-9180-78ac963cac47" d="M300.81,100.9a3.32,3.32,0,0,1-1.12,5,7.58,7.58,0,0,1-4.13,1.15,12.08,12.08,0,0,1-6.51-1.64c-1.76-1.1-2.64-3.44-2.64-7V81.28h-2.86a3.42,3.42,0,0,1-3.49-3.49,3.21,3.21,0,0,1,1-2.39,3.4,3.4,0,0,1,2.49-1h2.86v-4a3.71,3.71,0,0,1,3.79-3.79,3.53,3.53,0,0,1,2.62,1.08,3.77,3.77,0,0,1,1.06,2.71v4h4.41a3.35,3.35,0,0,1,2.49,1,3.38,3.38,0,0,1,1,2.49,3.21,3.21,0,0,1-1,2.39,3.44,3.44,0,0,1-2.49,1h-4.41V98.14a2.35,2.35,0,0,0,.68,1.89,2.74,2.74,0,0,0,1.87.59,5.61,5.61,0,0,0,1.37-.24,3.64,3.64,0,0,1,1.43-.32A2,2,0,0,1,300.81,100.9Z"/><path class="bf185854-77bf-49ac-9180-78ac963cac47" d="M309.87,69.08a2.9,2.9,0,0,1-.87-2.42V65.47a2.81,2.81,0,0,1,.93-2.42,7,7,0,0,1,6,0,2.9,2.9,0,0,1,.87,2.42v1.19a2.84,2.84,0,0,1-.9,2.45,5.41,5.41,0,0,1-3.08.66A4.9,4.9,0,0,1,309.87,69.08ZM315.59,106a3.56,3.56,0,0,1-2.67,1.08,3.6,3.6,0,0,1-2.68-1.08,3.76,3.76,0,0,1-1.05-2.71V77.6a3.73,3.73,0,0,1,1.05-2.7,3.57,3.57,0,0,1,2.68-1.09,3.54,3.54,0,0,1,2.67,1.09,3.7,3.7,0,0,1,1.06,2.7v25.7A3.73,3.73,0,0,1,315.59,106Z"/><path class="bf185854-77bf-49ac-9180-78ac963cac47" d="M348.32,74.84q3.24,1.65,3.24,4.38a3.78,3.78,0,0,1-.81,2.4,2.58,2.58,0,0,1-2.12,1,3.88,3.88,0,0,1-1.61-.28,5.6,5.6,0,0,1-1.22-.74,8.35,8.35,0,0,0-1.15-.78,7.88,7.88,0,0,0-1.83-.56,10,10,0,0,0-2-.25,9.43,9.43,0,0,0-7.31,2.89,11.89,11.89,0,0,0,0,15,8.8,8.8,0,0,0,6.84,3,10.7,10.7,0,0,0,4.54-.74,9.93,9.93,0,0,0,1-.66,7,7,0,0,1,1.21-.71,3.32,3.32,0,0,1,1.37-.25,3.16,3.16,0,0,1,2.46,1,3.69,3.69,0,0,1,.9,2.56,3.59,3.59,0,0,1-1.74,2.79,13.43,13.43,0,0,1-4.61,2.09,23,23,0,0,1-6.09.78,15.75,15.75,0,0,1-8.43-2.24,15.05,15.05,0,0,1-5.63-6.19,19.28,19.28,0,0,1-2-8.81,18.8,18.8,0,0,1,2.08-9,15.32,15.32,0,0,1,5.82-6.12,16.23,16.23,0,0,1,8.46-2.21A18.8,18.8,0,0,1,348.32,74.84Z"/><path class="bf185854-77bf-49ac-9180-78ac963cac47" d="M387,74.25A3.7,3.7,0,0,1,388,77V103.3A3.77,3.77,0,0,1,387,106a3.6,3.6,0,0,1-2.68,1.08,3.52,3.52,0,0,1-2.64-1,3.9,3.9,0,0,1-1.09-2.68,13.52,13.52,0,0,1-9.77,4.36,14.22,14.22,0,0,1-7.77-2.21,15.46,15.46,0,0,1-5.51-6.13,19.1,19.1,0,0,1-2-8.9,19.51,19.51,0,0,1,2-8.92,15.2,15.2,0,0,1,5.44-6.16,13.78,13.78,0,0,1,7.62-2.21,14.34,14.34,0,0,1,5.6,1.09A14.77,14.77,0,0,1,380.55,77V77a3.69,3.69,0,0,1,1.06-2.7,3.54,3.54,0,0,1,2.67-1.09A3.62,3.62,0,0,1,387,74.25Zm-8.65,23.67a12.16,12.16,0,0,0,0-14.9,8.7,8.7,0,0,0-13.13,0,12.21,12.21,0,0,0,0,14.9,8.81,8.81,0,0,0,13.16,0Z"/><path class="bf185854-77bf-49ac-9180-78ac963cac47" d="M425.78,92.1a3.94,3.94,0,0,1-2.61.93H402.64a9.41,9.41,0,0,0,3.42,5.76,9.57,9.57,0,0,0,6,2.08,13.46,13.46,0,0,0,4-.46,10.51,10.51,0,0,0,2.27-1l1.15-.71a4.66,4.66,0,0,1,2.11-.56,3.08,3.08,0,0,1,2.25.93,3,3,0,0,1,.93,2.18,3.87,3.87,0,0,1-1.74,3,14.78,14.78,0,0,1-4.67,2.43,19.23,19.23,0,0,1-15-1.18,15.15,15.15,0,0,1-6-6,17.55,17.55,0,0,1-2.11-8.62,19,19,0,0,1,2.24-9.4,15.89,15.89,0,0,1,5.91-6.19,15.26,15.26,0,0,1,7.84-2.14A14.48,14.48,0,0,1,419,75.43a16.67,16.67,0,0,1,5.82,6A16.25,16.25,0,0,1,427,89.67,3.22,3.22,0,0,1,425.78,92.1ZM402.7,86.81H419v-.43a6.4,6.4,0,0,0-2.55-4.48A8,8,0,0,0,411.23,80Q404,80,402.7,86.81Z"/><path class="b2e5ab81-6d0f-4145-b2c5-a0f3690dab36" d="M83.35,76H79.89V72.54c0-8.74-7.58-15.85-16.89-15.85S46.1,63.8,46.1,72.54V76H42.64a2.25,2.25,0,0,0-2.32,2.18V110a2.23,2.23,0,0,0,2,2.16A168.12,168.12,0,0,0,63,113.39a168.12,168.12,0,0,0,20.68-1.26,2.23,2.23,0,0,0,2-2.16V78.16A2.25,2.25,0,0,0,83.35,76ZM51.84,76V72.54c0-5.77,5-10.47,11.16-10.47s11.16,4.7,11.16,10.47V76Z"/><path class="a102d356-2c88-4caf-aa7a-2aab60040755" d="M65.76,99.48l-.24.17V103a3.72,3.72,0,0,1-.55,2.2,2.25,2.25,0,0,1-2,.78,2.15,2.15,0,0,1-1.92-.78,3.8,3.8,0,0,1-.54-2.2V99.65l-.2-.17-3,2.07a3.22,3.22,0,0,1-1.85.7,1.53,1.53,0,0,1-.84-.26,3,3,0,0,1-.73-.69,3.74,3.74,0,0,1-.53-.91,2.61,2.61,0,0,1-.2-1,2,2,0,0,1,.4-1.21,3.61,3.61,0,0,1,1.09-1L58.35,95v-.25l-3.59-2.19a3.87,3.87,0,0,1-1.14-1,2,2,0,0,1-.43-1.23,2.51,2.51,0,0,1,.22-1,4.45,4.45,0,0,1,.56-.91,3.21,3.21,0,0,1,.75-.68,1.5,1.5,0,0,1,.81-.27,3.53,3.53,0,0,1,1.93.75l2.86,2,.2-.16V86.24a3.67,3.67,0,0,1,.54-2.1,2.13,2.13,0,0,1,1.92-.8,3.09,3.09,0,0,1,1.21.21,1.93,1.93,0,0,1,.78.59,2.32,2.32,0,0,1,.43.91,5.38,5.38,0,0,1,.12,1.19v3.81l.2.16,2.82-2a3.53,3.53,0,0,1,1.93-.75,1.51,1.51,0,0,1,.82.27,3.38,3.38,0,0,1,.74.68,4,4,0,0,1,.55.91,2.36,2.36,0,0,1,.23,1,2,2,0,0,1-.43,1.23,3.87,3.87,0,0,1-1.14,1l-3.59,2.19V95l3.67,2.28a3.61,3.61,0,0,1,1.09,1,2.06,2.06,0,0,1,.4,1.21,2.44,2.44,0,0,1-.21,1,3.41,3.41,0,0,1-.52.91,3,3,0,0,1-.73.69,1.53,1.53,0,0,1-.84.26,2.64,2.64,0,0,1-.91-.17,3.56,3.56,0,0,1-.94-.53Z"/></svg>